<svg id="icons" xmlns="http://www.w3.org/2000/svg" version="1.1">
  <symbol id="logo" viewBox="0 0 26 24">
    <path d="M23.8421 6.79683C23.0149 6.07761 21.6484 4.92685 20.4257 3.84801C19.9223 3.38051 19.4548 3.12878 18.9513 3.12878C17.9804 3.12878 16.9375 3.95589 16.1104 4.71108C17.4769 5.8978 20.2459 8.27125 21.6125 9.45797C22.5115 10.2132 22.5834 10.7885 22.5834 11.4358V17.5133C22.5834 18.9517 21.3967 20.1385 19.9582 20.1385H10.3206C8.88217 20.1385 7.69545 18.9517 7.69545 17.5133V12.8743C7.19199 13.2699 6.54469 13.5216 5.82546 13.5216C5.25008 13.5216 4.71066 13.3418 4.24316 13.0901V17.4773C4.24316 20.8217 6.97622 23.5548 10.3206 23.5548H19.9223C23.2667 23.5548 25.9997 20.8217 25.9997 17.4773V11.3999C25.9997 10.1053 25.748 8.41509 23.8421 6.79683Z" fill="#FFFFFF"/>
    <path d="M13.4495 4.53112C13.5214 4.4592 13.6293 4.35131 13.7732 4.20747C14.5643 3.38036 15.8949 1.97787 17.4772 1.43845C17.3333 1.29461 17.2254 1.15076 17.0816 1.00692L16.9737 0.934993C16.3624 0.395574 15.6072 0 14.5643 0C13.1259 0 12.4066 0.683264 11.5436 1.5823L5.71784 7.51591C5.60996 7.40802 5.46611 7.30014 5.35823 7.19225C5.28631 7.12033 5.21438 7.04841 5.14246 7.01245C5.1065 6.97649 5.07054 6.94053 5.03458 6.90456C3.59613 5.71784 1.7621 5.60996 0 7.30014C1.33057 8.23513 3.12863 9.78147 4.56708 11.184C4.89073 11.5076 5.32227 11.6874 5.78976 11.6874C6.25726 11.6874 6.6888 11.5076 7.01245 11.184L13.4495 4.53112Z" fill="#F7981C"/>
  </symbol>

  <symbol id="hamburger-menu" viewBox="0 0 25 16">
    <rect width="25" height="2" fill="white"/>
    <rect y="7" width="25" height="2" fill="white"/>
    <rect y="14" width="25" height="2" fill="white"/>
  </symbol>

  <symbol id="arrow-down" viewBox="0 0 12 7" fill="none">
    <path d="M11 1L6.06494 6.06495L1 1" stroke="currentColor" stroke-miterlimit="10" />
  </symbol>

  <symbol id="arrow-up" viewBox="0 0 12 7" fill="none">
    <path d="M11 6.06495L6.06494 1L1 6.06495" stroke="currentColor" stroke-miterlimit="10" />
  </symbol>

  <symbol id="arrow-left" viewBox="0 0 13 22" fill="none">
    <path d="M12 21L2 10.8701L12 1" stroke="currentColor" stroke-width="2" stroke-miterlimit="10" stroke-linecap="round"/>
  </symbol>

  <symbol id="arrow-left-filled" viewBox="0 0 13 22" fill="none">
    <path d="M12 21L2 10.8701L12 1Z" stroke="currentColor" fill="currentColor" stroke-width="2" stroke-miterlimit="10" stroke-linecap="round"/>
  </symbol>

  <symbol id="arrow-right" viewBox="0 0 13 22" fill="none">
    <path d="M1 21L11 10.8701L1 1" stroke="currentColor" stroke-width="2" stroke-miterlimit="10" stroke-linecap="round"/>
  </symbol>

  <symbol id="arrow-right-filled" viewBox="0 0 13 22" fill="none">
    <path d="M1 21L11 10.8701L1 1Z" stroke="currentColor" fill="currentColor" stroke-width="2" stroke-miterlimit="10" stroke-linecap="round"/>
  </symbol>

  <symbol id="expand" viewBox="0 0 24 24" fill="none">
    <path d="M16.59 8.59L12 13.17 7.41 8.59 6 10l6 6 6-6z" fill="currentColor" />
  </symbol>

  <symbol id="user" viewBox="0 0 11 12">
    <path d="M3.43922 5.19515C3.58556 5.26832 3.73191 5.34149 3.87825 5.41466C3.95142 5.41466 3.95142 5.48784 4.02459 5.48784C4.09776 5.56101 4.2441 5.56101 4.39045 5.63418C4.46362 5.63418 4.46362 5.63418 4.53679 5.63418C4.68313 5.63418 4.90265 5.70735 5.04899 5.70735C5.19533 5.70735 5.41484 5.70735 5.56119 5.63418C5.63436 5.63418 5.63436 5.63418 5.70753 5.63418C5.85387 5.63418 5.92704 5.56101 6.07338 5.56101C6.14656 5.56101 6.14655 5.56101 6.21973 5.48784C6.36607 5.34149 6.51241 5.26832 6.58558 5.19515C7.31729 4.68295 7.82949 3.8049 7.82949 2.85367C7.90266 1.24391 6.58558 0 5.04899 0C3.51239 0 2.19531 1.24391 2.19531 2.85367C2.19531 3.8049 2.70751 4.68295 3.43922 5.19515Z" fill="currentColor"/>
    <path d="M7.39029 5.56079C6.73175 6.07299 5.92686 6.43885 5.04881 6.43885C4.17076 6.43885 3.36587 6.07299 2.70733 5.56079C1.09757 6.36567 0 8.04861 0 9.95106C0 10.6828 0.146342 11.4145 0.439027 11.9999H9.58542C9.87811 11.3413 10.0244 10.6828 10.0244 9.95106C10.0244 8.04861 9.00005 6.36567 7.39029 5.56079Z" fill="currentColor"/>
  </symbol>

  <symbol id="admin" viewBox="0 0 20 14">
    <path d="M19.0625 9.6875C19.1562 9.25 19.1562 8.78125 19.0625 8.34375L19.875 7.875C19.9688 7.84375 20 7.71875 19.9688 7.625C19.75 6.9375 19.4062 6.34375 18.9375 5.8125C18.875 5.75 18.75 5.71875 18.6562 5.78125L17.8438 6.25C17.5 5.96875 17.125 5.71875 16.6875 5.59375V4.65625C16.6875 4.53125 16.625 4.4375 16.5312 4.4375C15.8125 4.28125 15.125 4.28125 14.4375 4.4375C14.3438 4.4375 14.2812 4.53125 14.2812 4.65625V5.59375C13.8438 5.71875 13.4688 5.96875 13.125 6.25L12.3125 5.78125C12.2188 5.71875 12.0938 5.75 12.0312 5.8125C11.5625 6.34375 11.1875 6.9375 11 7.625C10.9688 7.71875 11 7.84375 11.0938 7.875L11.9062 8.34375C11.8125 8.78125 11.8125 9.25 11.9062 9.6875L11.0938 10.1562C11 10.1875 10.9688 10.3125 11 10.4062C11.1875 11.0938 11.5625 11.6875 12.0312 12.2188C12.0938 12.2812 12.2188 12.3125 12.3125 12.25L13.125 11.7812C13.4688 12.0625 13.8438 12.3125 14.2812 12.4375V13.375C14.2812 13.5 14.3438 13.5938 14.4375 13.5938C15.1562 13.75 15.8438 13.75 16.5312 13.5938C16.625 13.5938 16.6875 13.5 16.6875 13.375V12.4375C17.125 12.3125 17.5 12.0625 17.8438 11.7812L18.6562 12.25C18.75 12.3125 18.875 12.2812 18.9375 12.2188C19.4062 11.6875 19.75 11.0938 19.9688 10.4062C20 10.3125 19.9688 10.1875 19.875 10.1562L19.0625 9.6875ZM15.5 10.5312C14.6562 10.5312 13.9688 9.84375 13.9688 9C13.9688 8.1875 14.6562 7.5 15.5 7.5C16.3125 7.5 17 8.1875 17 9C17 9.84375 16.3125 10.5312 15.5 10.5312ZM3 6C4.09375 6 5 5.125 5 4C5 2.90625 4.09375 2 3 2C1.875 2 1 2.90625 1 4C1 5.125 1.875 6 3 6ZM10 7C10.0312 7 10.0938 7 10.1562 7C10.4062 6.3125 10.8125 5.6875 11.2812 5.15625C11.5312 4.90625 11.8438 4.75 12.1875 4.75C12.4062 4.75 12.625 4.8125 12.8125 4.90625L13.0625 5.0625C13.0938 5.03125 13.0938 5.03125 13.125 5.03125C13.3438 4.5625 13.4688 4.0625 13.4688 3.53125C13.4688 1.59375 11.9062 0.03125 9.96875 0.03125C8.0625 0.03125 6.5 1.59375 6.5 3.5C6.5 5.4375 8.0625 7 10 7ZM13.2812 13.0938C13.1875 13.0625 13.125 13 13.0625 12.9688C12.8125 13.125 12.5938 13.2812 12.1875 13.2812C11.875 13.2812 11.5312 13.125 11.3125 12.875C10.7188 12.25 10.2812 11.5 10.0312 10.7188C9.71875 9.625 10.8125 9.15625 10.8438 9.125C10.8438 9.0625 10.8438 8.96875 10.8438 8.90625L10.5938 8.75C10.4688 8.6875 10.375 8.59375 10.2812 8.5C10.1875 8.5 10.0938 8.5 10 8.5C9.21875 8.5 8.5 8.3125 7.84375 8H7.59375C5.59375 8 4 9.625 4 11.625V12.5C4 13.3438 4.65625 14 5.5 14H13.4688C13.3438 13.8125 13.2812 13.625 13.2812 13.375V13.0938ZM5.40625 7.59375C5.03125 7.25 4.53125 7 4 7H2C0.875 7 0 7.90625 0 9V10C0 10.5625 0.4375 11 1 11H3.03125C3.25 9.53125 4.125 8.28125 5.40625 7.59375Z" fill="currentColor"/>
  </symbol>

  <symbol id="info" viewBox="0 0 24 24" >
    <path d="M0 0h24v24H0V0z" fill="none"/>
    <path d="M11 7h2v2h-2zm0 4h2v6h-2zm1-9C6.48 2 2 6.48 2 12s4.48 10 10 10 10-4.48 10-10S17.52 2 12 2zm0 18c-4.41 0-8-3.59-8-8s3.59-8 8-8 8 3.59 8 8-3.59 8-8 8z" fill="currentColor" />
  </symbol>

  <symbol id="calendar" viewBox="0 0 14 15" fill="none">
    <path d="M6.90039 3.69971V14.1997" stroke="currentColor" stroke-miterlimit="10"/>
    <path d="M9.90039 3.69971V14.1997" stroke="currentColor" stroke-miterlimit="10"/>
    <path d="M3.90039 3.69971V14.1997" stroke="currentColor" stroke-miterlimit="10"/>
    <path d="M12.8 3.69971H1V14.3997H12.8V3.69971Z" stroke="currentColor" stroke-miterlimit="10"/>
    <path d="M1.09961 8.19971H12.6996" stroke="currentColor" stroke-miterlimit="10"/>
    <path d="M1.09961 11.2998H12.6996" stroke="currentColor" stroke-miterlimit="10"/>
    <path d="M4.90039 1.2998H2.90039V3.59981H4.90039V1.2998Z" stroke="currentColor" stroke-miterlimit="10"/>
    <path d="M10.9004 1.2998H8.90039V3.59981H10.9004V1.2998Z" stroke="currentColor" stroke-miterlimit="10"/>
    <path d="M12.7002 3.7998H1.2002V5.7998H12.7002V3.7998Z" fill="currentColor"/>
  </symbol>

  <symbol id="dashboard" viewBox="0 0 17 17" fill="none">
    <path d="M0 16.7376V8.31188H4.21287V16.6238H0V16.7376ZM6.26238 16.7376V0H10.4752V16.7376H6.26238ZM12.5248 5.23762H16.7376V16.7376H12.5248V5.23762Z" fill="currentColor"/>
  </symbol>

  <symbol id="reservations" viewBox="0 0 19 21" fill="none">
    <path class="fill" d="M16.8724 18.8852V7.37705H2.1276V18.8852H16.8724ZM16.8724 2.11475C17.4332 2.11475 17.928 2.32787 18.3568 2.7541C18.7856 3.18033 19 3.67213 19 4.22951V18.8852C19 19.4426 18.7856 19.9344 18.3568 20.3607C17.928 20.7869 17.4332 21 16.8724 21H2.1276C1.53385 21 1.02257 20.7869 0.59375 20.3607C0.197917 19.9344 0 19.4426 0 18.8852V4.22951C0 3.67213 0.197917 3.18033 0.59375 2.7541C1.02257 2.32787 1.53385 2.11475 2.1276 2.11475H3.16667V0H5.29427V2.11475H13.7057V0H15.8333V2.11475H16.8724Z" fill="currentColor"/>
    <path class="stroke" d="M7 13.5L9 15L12.5 11" stroke="currentColor" stroke-width="1.5" stroke-linecap="round" stroke-linejoin="round"/>
  </symbol>

  <symbol id="legal" viewBox="0 0 12 16" fill="none">
    <path d="M7 4.25V0H0.75C0.3125 0 0 0.34375 0 0.75V15.25C0 15.6875 0.3125 16 0.75 16H11.25C11.6562 16 12 15.6875 12 15.25V5H7.75C7.3125 5 7 4.6875 7 4.25ZM2 2.25C2 2.125 2.09375 2 2.25 2H4.75C4.875 2 5 2.125 5 2.25V2.75C5 2.90625 4.875 3 4.75 3H2.25C2.09375 3 2 2.90625 2 2.75V2.25ZM2 4.25C2 4.125 2.09375 4 2.25 4H4.75C4.875 4 5 4.125 5 4.25V4.75C5 4.90625 4.875 5 4.75 5H2.25C2.09375 5 2 4.90625 2 4.75V4.25ZM8 12H9.5C9.75 12 10 12.25 10 12.5C10 12.7812 9.75 13 9.5 13H8C7.5 13 7.03125 12.7188 6.8125 12.2812C6.71875 12.0938 6.5625 12.0625 6.5 12.0625C6.40625 12.0625 6.25 12.0938 6.15625 12.25L5.9375 12.75C5.84375 12.9062 5.65625 13 5.5 13C5.46875 13 5.46875 13 5.4375 13C5.25 13 5.0625 12.875 5 12.6875L4.5 11.0938L4.15625 12.0938C3.96875 12.6562 3.46875 13 2.875 13H2.5C2.21875 13 2 12.7812 2 12.5C2 12.25 2.21875 12 2.5 12H2.875C3.03125 12 3.15625 11.9062 3.21875 11.7812L3.78125 10.0625C3.875 9.75 4.15625 9.5625 4.5 9.5625C4.8125 9.5625 5.09375 9.75 5.1875 10.0625L5.625 11.375C6.25 10.875 7.3125 11.0625 7.6875 11.8125C7.75 11.9375 7.875 12 8 12ZM11.7812 3.28125L8.71875 0.21875C8.5625 0.09375 8.375 0 8.1875 0H8V4H12V3.8125C12 3.625 11.9062 3.4375 11.7812 3.28125Z" fill="currentColor"/>
  </symbol>

  <symbol id="legal-profile" viewBox="0 0 12 16" fill="none">
    <path d="M7 4.25V0H0.75C0.3125 0 0 0.34375 0 0.75V15.25C0 15.6875 0.3125 16 0.75 16H11.25C11.6562 16 12 15.6875 12 15.25V5H7.75C7.3125 5 7 4.6875 7 4.25ZM2 2.25C2 2.125 2.09375 2 2.25 2H4.75C4.875 2 5 2.125 5 2.25V2.75C5 2.90625 4.875 3 4.75 3H2.25C2.09375 3 2 2.90625 2 2.75V2.25ZM2 4.25C2 4.125 2.09375 4 2.25 4H4.75C4.875 4 5 4.125 5 4.25V4.75C5 4.90625 4.875 5 4.75 5H2.25C2.09375 5 2 4.90625 2 4.75V4.25ZM8 12H9.5C9.75 12 10 12.25 10 12.5C10 12.7812 9.75 13 9.5 13H8C7.5 13 7.03125 12.7188 6.8125 12.2812C6.71875 12.0938 6.5625 12.0625 6.5 12.0625C6.40625 12.0625 6.25 12.0938 6.15625 12.25L5.9375 12.75C5.84375 12.9062 5.6875 13.0312 5.5 13.0312C5.46875 13.0312 5.5 13 5.5 13C5.46875 13 5.46875 13 5.4375 13C5.25 13 5.0625 12.875 5 12.6875L4.5 11.0938L4.15625 12.0938C3.96875 12.6562 3.46875 13 2.875 13H2.5C2.21875 13 2 12.7812 2 12.5C2 12.25 2.21875 12 2.5 12H2.875C3.03125 12 3.15625 11.9062 3.21875 11.7812L3.78125 10.0625C3.875 9.75 4.15625 9.5625 4.5 9.5625C4.8125 9.5625 5.09375 9.75 5.1875 10.0625L5.625 11.375C6.25 10.875 7.3125 11.0625 7.6875 11.8125C7.75 11.9375 7.875 12 8 12ZM11.7812 3.28125L8.71875 0.21875C8.5625 0.09375 8.375 0 8.1875 0H8V4H12V3.8125C12 3.625 11.9062 3.4375 11.7812 3.28125Z" fill="currentColor"/>
  </symbol>

  <symbol id="rateplans" viewBox="0 0 22 24"  fill="none">
    <path d="M6.76367 15.2515C6.76367 15.4207 6.84831 15.5054 7.01758 15.5054H19.5605V17.689H6.56055C5.98503 17.689 5.47721 17.4689 5.03711 17.0288C4.63086 16.5887 4.42773 16.0809 4.42773 15.5054C4.42773 15.1668 4.51237 14.8283 4.68164 14.4897L6.1543 11.7983L2.24414 3.57178H0.0605469V1.43896H3.61523C4.29232 2.86084 4.9694 4.29964 5.64648 5.75537C5.81576 6.06006 6.20508 6.87256 6.81445 8.19287C7.42383 9.47933 7.89779 10.478 8.23633 11.189H15.8535C18.3926 6.5848 19.7806 4.04574 20.0176 3.57178L21.8965 4.63818L17.7324 12.2046C17.3262 12.9494 16.6999 13.3218 15.8535 13.3218H7.7793L6.81445 15.0991L6.76367 15.2515ZM15.9043 19.4155C16.3444 18.9754 16.8522 18.7554 17.4277 18.7554C18.0033 18.7554 18.4941 18.9754 18.9004 19.4155C19.3405 19.8556 19.5605 20.3634 19.5605 20.939C19.5605 21.5145 19.3405 22.0223 18.9004 22.4624C18.4941 22.8687 18.0033 23.0718 17.4277 23.0718C16.8522 23.0718 16.3444 22.8687 15.9043 22.4624C15.4642 22.0223 15.2441 21.5145 15.2441 20.939C15.2441 20.3634 15.4642 19.8556 15.9043 19.4155ZM5.03711 19.4155C5.47721 18.9754 5.98503 18.7554 6.56055 18.7554C7.13607 18.7554 7.64388 18.9754 8.08398 19.4155C8.52409 19.8556 8.74414 20.3634 8.74414 20.939C8.74414 21.5145 8.52409 22.0223 8.08398 22.4624C7.64388 22.8687 7.13607 23.0718 6.56055 23.0718C5.98503 23.0718 5.47721 22.8687 5.03711 22.4624C4.63086 22.0223 4.42773 21.5145 4.42773 20.939C4.42773 20.3634 4.63086 19.8556 5.03711 19.4155ZM10.9277 9.00537V5.75537H7.67773V3.57178H10.9277V0.321777H13.0605V3.57178H16.3105V5.75537H13.0605V9.00537H10.9277Z" fill="currentColor"/>
  </symbol>

  <symbol id="color-customization" viewBox="0 0 19 19" fill="none">
    <path d="M9.45049 0C12.0693 0 14.2327 0.79703 16.0545 2.39109C17.8762 3.98515 18.7871 6.03465 18.7871 8.31188C18.7871 9.79208 18.2178 10.9307 17.1931 11.9554C16.1683 12.9802 14.9158 13.4356 13.5495 13.4356H11.7277C11.2723 13.4356 10.9307 13.5495 10.5891 13.8911C10.2475 14.2327 10.1337 14.5743 10.1337 15.0297C10.1337 15.3713 10.2475 15.7129 10.4752 16.0545C10.703 16.396 10.8168 16.7376 10.8168 17.0792C10.8168 17.5347 10.703 17.8762 10.3614 18.2178C10.0198 18.5594 9.67822 18.6733 9.22277 18.6733C6.60396 18.6733 4.44059 17.7624 2.61881 15.9406C0.910891 14.2327 0 11.9554 0 9.45049C0 6.83168 0.910891 4.55446 2.73267 2.73267C4.55446 0.910891 6.83168 0 9.45049 0ZM2.61881 8.99505C2.9604 9.33663 3.30198 9.45049 3.75743 9.45049C4.21287 9.45049 4.55446 9.33663 4.89604 8.99505C5.23762 8.65347 5.35148 8.31188 5.35148 7.85644C5.35148 7.40099 5.23762 7.05941 4.89604 6.71782C4.55446 6.37624 4.21287 6.26238 3.75743 6.26238C3.30198 6.26238 2.9604 6.37624 2.61881 6.71782C2.27723 6.94554 2.0495 7.40099 2.0495 7.85644C2.0495 8.31188 2.27723 8.65347 2.61881 8.99505ZM5.69307 4.78218C6.03465 5.12376 6.37624 5.23762 6.83168 5.23762C7.28713 5.23762 7.62871 5.12376 7.9703 4.78218C8.31188 4.44059 8.42574 4.09901 8.42574 3.64356C8.42574 3.18812 8.31188 2.84653 7.9703 2.50495C7.62871 2.27723 7.17327 2.0495 6.83168 2.0495C6.37624 2.0495 6.03465 2.27723 5.69307 2.61881C5.35148 2.9604 5.23762 3.30198 5.23762 3.75743C5.23762 4.09901 5.35148 4.44059 5.69307 4.78218ZM10.9307 4.78218C11.2723 5.12376 11.6139 5.23762 12.0693 5.23762C12.5248 5.23762 12.8663 5.12376 13.2079 4.78218C13.5495 4.44059 13.6634 4.09901 13.6634 3.64356C13.6634 3.18812 13.5495 2.84653 13.2079 2.50495C12.8663 2.16337 12.5248 2.0495 12.0693 2.0495C11.6139 2.0495 11.2723 2.16337 10.9307 2.50495C10.5891 2.84653 10.4752 3.18812 10.4752 3.64356C10.4752 4.09901 10.5891 4.44059 10.9307 4.78218ZM14.005 8.99505C14.3465 9.33663 14.6881 9.45049 15.1436 9.45049C15.599 9.45049 15.9406 9.33663 16.2822 8.99505C16.6238 8.65347 16.7376 8.31188 16.7376 7.85644C16.7376 7.40099 16.6238 7.05941 16.2822 6.71782C15.9406 6.37624 15.599 6.26238 15.1436 6.26238C14.6881 6.26238 14.3465 6.37624 14.005 6.71782C13.6634 7.05941 13.5495 7.40099 13.5495 7.85644C13.5495 8.31188 13.6634 8.65347 14.005 8.99505Z" fill="currentColor"/>
  </symbol>

  <symbol id="email-customization" viewBox="0 0 20 19" fill="none">
    <path d="M19.8686 6.94857V16.9371C19.8686 17.48 19.6514 17.9143 19.3257 18.3486C18.8914 18.7829 18.4571 19 17.9143 19H1.95429C1.41143 19 0.977143 18.7829 0.542857 18.3486C0.217143 17.9143 0 17.48 0 16.9371V6.94857C0 6.18857 0.325714 5.64571 0.977143 5.21143L9.98857 0L19 5.32C19.5429 5.64571 19.8686 6.18857 19.8686 6.94857ZM9.98857 11.9429L18.24 6.84L9.98857 1.95429L1.73714 6.84L9.98857 11.9429Z" fill="currentColor"/>
  </symbol>

  <symbol id="text-customization" viewBox="0 0 12 15" fill="none">
    <path d="M8.1444 15H3.86643V3.31395H0V0H12V3.31395H8.1444V15Z" fill="currentColor"/>
  </symbol>

  <symbol id="translation-tool" viewBox="0 0 20 16" fill="none">
    <path d="M19.75 4.75L15.4336 9.06641V5.81641H7.81641V3.68359H15.4336V0.433594L19.75 4.75ZM4.56641 6.93359V10.1836H12.1836V12.3164H4.56641V15.5664L0.25 11.25L4.56641 6.93359Z" fill="currentColor"/>
  </symbol>

  <symbol id="home" viewBox="0 0 22 19" fill="none">
    <path d="M8.81104 18.6187H3.42822V9.93506H0.178223L10.9946 0.185059L21.811 9.93506H18.561V18.6187H13.1782V12.1187H8.81104V18.6187Z" fill="currentColor"/>
  </symbol>

  <symbol id="user-group" viewBox="0 0 23 15" fill="none">
    <path d="M4.32673 8.65346C5.35148 8.42574 6.37624 8.31188 7.28713 8.31188C8.19802 8.31188 9.22277 8.42574 10.2475 8.65346C11.2723 8.88119 12.297 9.33663 13.2079 9.90594C14.1188 10.4752 14.5743 11.1584 14.5743 11.9554V14.5743H0V11.9554C0 11.1584 0.455446 10.5891 1.36634 9.90594C2.27723 9.45049 3.30198 8.99505 4.32673 8.65346ZM9.56436 5.35148C8.88119 5.92079 8.19802 6.26238 7.28713 6.26238C6.4901 6.26238 5.69307 5.92079 5.12376 5.35148C4.55446 4.66832 4.21287 3.98515 4.21287 3.18812C4.21287 2.27723 4.55446 1.59406 5.12376 0.910891C5.80693 0.341584 6.4901 0 7.28713 0C8.08416 0 8.88119 0.341584 9.45049 0.910891C10.1337 1.59406 10.4752 2.27723 10.4752 3.18812C10.4752 3.98515 10.1337 4.66832 9.56436 5.35148ZM17.8762 5.35148C17.3069 5.92079 16.5099 6.26238 15.7129 6.26238C14.9158 6.26238 14.1188 5.92079 13.5495 5.35148C12.8663 4.66832 12.5248 3.98515 12.5248 3.18812C12.5248 2.39109 12.8663 1.59406 13.4356 1.02475C14.1188 0.341584 14.802 0 15.7129 0C16.5099 0 17.3069 0.341584 17.8762 0.910891C18.4455 1.4802 18.7871 2.27723 18.7871 3.07426C18.7871 3.98515 18.4455 4.66832 17.8762 5.35148ZM15.7129 8.31188C16.6238 8.31188 17.6485 8.42574 18.6733 8.65346C19.698 8.88119 20.7228 9.33663 21.6337 9.90594C22.5446 10.4752 23 11.1584 23 11.9554V14.5743H16.7376V11.9554C16.7376 10.4752 16.0545 9.33663 14.6881 8.31188C14.9158 8.31188 15.2574 8.31188 15.7129 8.31188Z" fill="currentColor"/>
  </symbol>

  <symbol id="users-access" viewBox="0 0 23 15" fill="none" >
    <path d="M14.5 13.7383C15.2448 13.7383 15.875 14.0104 16.3906 14.5547C16.9062 15.0703 17.1641 15.6862 17.1641 16.4023C17.1641 17.1471 16.8919 17.7917 16.3477 18.3359C15.832 18.8516 15.2161 19.1094 14.5 19.1094C13.7839 19.1094 13.1536 18.8516 12.6094 18.3359C12.0938 17.7917 11.8359 17.1471 11.8359 16.4023C11.8359 16.1159 11.8503 15.9154 11.8789 15.8008L5.39062 12.0195C4.84635 12.5065 4.21615 12.75 3.5 12.75C2.75521 12.75 2.11068 12.4779 1.56641 11.9336C1.02214 11.3893 0.75 10.7448 0.75 10C0.75 9.25521 1.02214 8.61068 1.56641 8.06641C2.11068 7.52214 2.75521 7.25 3.5 7.25C4.21615 7.25 4.84635 7.49349 5.39062 7.98047L11.8359 4.24219C11.7786 3.95573 11.75 3.74089 11.75 3.59766C11.75 2.85286 12.0221 2.20833 12.5664 1.66406C13.1107 1.11979 13.7552 0.847656 14.5 0.847656C15.2448 0.847656 15.8893 1.11979 16.4336 1.66406C16.9779 2.20833 17.25 2.85286 17.25 3.59766C17.25 4.34245 16.9779 4.98698 16.4336 5.53125C15.8893 6.07552 15.2448 6.34766 14.5 6.34766C13.8125 6.34766 13.1823 6.08984 12.6094 5.57422L6.16406 9.35547C6.22135 9.64193 6.25 9.85677 6.25 10C6.25 10.1432 6.22135 10.3581 6.16406 10.6445L12.6953 14.4258C13.2109 13.9674 13.8125 13.7383 14.5 13.7383Z" fill="currentColor"/>
  </symbol>

  <symbol id="dot" viewBox="0 0 5 5" fill="none">
    <circle cx="2.5" cy="2.5" r="2.5" fill="currentColor"/>
  </symbol>

  <symbol id="cross" viewBox="0 0 10 10" fill="none">
    <path d="M4 0H6V3.99997H10V5.99998H6V10H4V5.99998H0V3.99997H4V0Z" fill="white"/>
  </symbol>

  <symbol id="blank-circle" viewBox="0 0 22 22" fill="none">
    <circle cx="11" cy="11" r="11" fill="currentColor"/>
  </symbol>

  <symbol id="quick-update" viewBox="0 0 27 21" fill="none">
    <path fill-rule="evenodd" clip-rule="evenodd" d="M14.4745 7.37705H2.36784V18.8852H15.6471C16.4527 19.5937 17.3934 20.1521 18.4256 20.5167C18.0378 20.8389 17.6002 21 17.1126 21H2.36784C1.77409 21 1.2628 20.7869 0.833984 20.3607C0.438151 19.9344 0.240234 19.4426 0.240234 18.8852V4.22951C0.240234 3.67213 0.438151 3.18033 0.833984 2.7541C1.2628 2.32787 1.77409 2.11475 2.36784 2.11475H3.4069V0H5.53451V2.11475H13.946V0H16.0736V2.11475H17.1126C17.6734 2.11475 18.1682 2.32787 18.597 2.7541C19.0258 3.18033 19.2402 3.67213 19.2402 4.22951V4.24089C17.3095 4.7109 15.6369 5.8403 14.4745 7.37705Z" fill="currentColor"/>
    <path d="M21.2578 16.5851V14.5426L23.9917 17.2553L21.2578 20V17.9574C19.7568 17.9574 18.4596 17.4255 17.366 16.3617C16.2939 15.2766 15.7578 13.9894 15.7578 12.5C15.7578 11.4362 16.0473 10.4681 16.6262 9.59574L17.6233 10.5851C17.3017 11.1596 17.1409 11.7979 17.1409 12.5C17.1409 13.6277 17.5375 14.5957 18.3309 15.4043C19.1457 16.1915 20.1214 16.5851 21.2578 16.5851ZM21.2578 7.04255C22.7588 7.04255 24.0453 7.58511 25.1175 8.67021C26.211 9.73404 26.7578 11.0106 26.7578 12.5C26.7578 13.5638 26.4683 14.5319 25.8894 15.4043L24.8923 14.4149C25.214 13.8404 25.3748 13.2021 25.3748 12.5C25.3748 11.3723 24.9674 10.4149 24.1525 9.62766C23.3592 8.81915 22.3943 8.41489 21.2578 8.41489V10.4574L18.5239 7.74468L21.2578 5V7.04255Z" fill="currentColor"/>
  </symbol>

  <symbol id="pencil" viewBox="0 0 13 12" fill="none">
    <path d="M12.4722 2.6875L11.2534 3.90625L8.75342 1.40625L9.97217 0.1875C10.0972 0.0625 10.2534 0 10.4409 0C10.6284 0 10.7847 0.0625 10.9097 0.1875L12.4722 1.75C12.5972 1.875 12.6597 2.03125 12.6597 2.21875C12.6597 2.40625 12.5972 2.5625 12.4722 2.6875ZM0.659668 9.5L8.03467 2.125L10.5347 4.625L3.15967 12H0.659668V9.5Z" fill="currentColor"/>
  </symbol>

  <symbol id="bubble-square-left" viewBox="0 0 26 25" fill="none">
    <path d="M24.186 1.27162L24.2063 1.29366L24.2284 1.31401C24.5902 1.64805 24.75 2.01845 24.75 2.46479V17.4883C24.75 17.9373 24.5874 18.3379 24.2068 18.7185L24.1962 18.7291L24.186 18.7401C23.852 19.102 23.4816 19.2617 23.0352 19.2617H5.48826H5.1776L4.95793 19.4814L1.25 23.1893V2.46479C1.25 1.99821 1.406 1.6218 1.73456 1.29324C2.11516 0.912638 2.5158 0.75 2.96479 0.75H23.0352C23.4816 0.75 23.852 0.909752 24.186 1.27162Z" fill="none" stroke="currentColor" stroke-width="2"/>
  </symbol>

  <symbol id="map-tag" viewBox="0 0 14 19" fill="none">
    <path d="M5.3949 8.22339C5.85323 8.65308 6.3975 8.86792 7.02771 8.86792C7.65792 8.86792 8.18787 8.65308 8.61755 8.22339C9.07589 7.76506 9.30505 7.22078 9.30505 6.59058C9.30505 5.96037 9.07589 5.43042 8.61755 5.00073C8.18787 4.5424 7.65792 4.31323 7.02771 4.31323C6.3975 4.31323 5.85323 4.5424 5.3949 5.00073C4.96521 5.43042 4.75037 5.96037 4.75037 6.59058C4.75037 7.22078 4.96521 7.76506 5.3949 8.22339ZM2.47302 2.07886C3.73344 0.818441 5.25167 0.188232 7.02771 0.188232C8.80375 0.188232 10.3077 0.818441 11.5394 2.07886C12.7998 3.31063 13.4301 4.81453 13.4301 6.59058C13.4301 7.4786 13.2009 8.49552 12.7426 9.64136C12.3129 10.7872 11.7829 11.8614 11.1527 12.864C10.5225 13.8666 9.89229 14.8119 9.26208 15.7C8.66052 16.5593 8.1449 17.2468 7.71521 17.7625L7.02771 18.4929C6.85583 18.2924 6.62667 18.0346 6.34021 17.7195C6.05375 17.3757 5.53813 16.7169 4.79333 15.7429C4.04854 14.7403 3.38969 13.7807 2.81677 12.864C2.2725 11.9187 1.7712 10.8588 1.31287 9.68433C0.854533 8.50985 0.625366 7.4786 0.625366 6.59058C0.625366 4.81453 1.24125 3.31063 2.47302 2.07886Z" fill="currentColor"/>
  </symbol>

  <symbol id="times" viewBox="0 0 28 28" fill="none">
    <path stroke="currentColor" stroke-width="2" d="M1 1L27 27ZM1 27L27 1"/>
  </symbol>

  <symbol id="close" viewBox="0 0 24 24" fill="none">
    <path d="M19 6.41L17.59 5 12 10.59 6.41 5 5 6.41 10.59 12 5 17.59 6.41 19 12 13.41 17.59 19 19 17.59 13.41 12z" fill="currentColor" />
  </symbol>

  <symbol id="download" viewBox="0 0 11 14" fill="none">
    <path d="M0.470215 11.51H10.9468V13.0217H0.470215V11.51ZM10.9468 4.76001L5.7085 9.99829L0.470215 4.76001H3.4585V0.26001H7.9585V4.76001H10.9468Z" fill="currentColor"/>
  </symbol>

  <symbol id="download-icon" viewBox="0 0 24 24" fill="none">
    <path d="M10.75 4C10.3125 4 10 4.34375 10 4.75V10H7.25C6.6875 10 6.40625 10.6875 6.8125 11.0938L11.5625 15.8438C11.7812 16.0625 12.1875 16.0625 12.4062 15.8438L17.1562 11.0938C17.5625 10.6875 17.2812 10 16.7188 10H14V4.75C14 4.34375 13.6562 4 13.25 4H10.75ZM20 15.75C20 15.3438 19.6562 15 19.25 15H14.6562L13.125 16.5312C12.5 17.1875 11.4688 17.1875 10.8438 16.5312L9.3125 15H4.75C4.3125 15 4 15.3438 4 15.75V19.25C4 19.6875 4.3125 20 4.75 20H19.25C19.6562 20 20 19.6875 20 19.25V15.75ZM16.125 18.5C16.125 18.8438 15.8438 19.125 15.5 19.125C15.1562 19.125 14.875 18.8438 14.875 18.5C14.875 18.1562 15.1562 17.875 15.5 17.875C15.8438 17.875 16.125 18.1562 16.125 18.5ZM18.125 18.5C18.125 18.8438 17.8438 19.125 17.5 19.125C17.1562 19.125 16.875 18.8438 16.875 18.5C16.875 18.1562 17.1562 17.875 17.5 17.875C17.8438 17.875 18.125 18.1562 18.125 18.5Z" fill="currentColor"/>
  </symbol>

  <symbol id="dots-h" viewBox="0 0 20 5" fill="none">
    <circle cx="2.5" cy="2.5" r="2.5" fill="currentColor"/>
    <circle cx="10" cy="2.5" r="2.5" fill="currentColor"/>
    <circle cx="17.5" cy="2.5" r="2.5" fill="currentColor"/>
  </symbol>

  <symbol id="dots-small" viewBox="0 0 5 5" fill="none">
    <path d="M5 2.5C5 3.88071 3.88071 5 2.5 5C1.11929 5 0 3.88071 0 2.5C0 1.11929 1.11929 0 2.5 0C3.88071 0 5 1.11929 5 2.5Z" fill="#5A5C6C"/>
  </symbol>

  <symbol id="users-invite" viewBox="0 0 20 14" fill="none">
    <path d="M8.08594 9.61719C9.6224 8.99219 11.0938 8.67969 12.5 8.67969C13.9062 8.67969 15.3646 8.99219 16.875 9.61719C18.4115 10.2161 19.1797 11.0104 19.1797 12V13.6797H5.82031V12C5.82031 11.0104 6.57552 10.2161 8.08594 9.61719ZM5 5.32031H7.5V7H5V9.5H3.32031V7H0.820312V5.32031H3.32031V2.82031H5V5.32031ZM14.8438 6.02344C14.1927 6.67448 13.4115 7 12.5 7C11.5885 7 10.8073 6.67448 10.1562 6.02344C9.50521 5.3724 9.17969 4.59115 9.17969 3.67969C9.17969 2.76823 9.50521 1.98698 10.1562 1.33594C10.8073 0.658854 11.5885 0.320312 12.5 0.320312C13.4115 0.320312 14.1927 0.658854 14.8438 1.33594C15.4948 1.98698 15.8203 2.76823 15.8203 3.67969C15.8203 4.59115 15.4948 5.3724 14.8438 6.02344Z" fill="#4A90E2"/>
  </symbol>

  <symbol id="checkbox-tick" viewBox="0 0 18 18" fill="none">
    <path d="M2 8L6.5 11.5L14 4" stroke="currentColor" stroke-width="2" />
  </symbol>

  <symbol id="ok-tick" viewBox="0 0 18 18" fill="none">
    <path d="M3 9L7 13L15 4" stroke="currentColor" stroke-width="1.5" />
  </symbol>

  <symbol id="fail-tick" viewBox="0 0 18 18" fill="none">
    <path d="M4 4L13 13M4 13L13 4" stroke="currentColor" stroke-width="1.5" />
  </symbol>

  <symbol id="edit" viewBox="0 0 17 17" fill="none">
    <path d="M16.4551 3.94531L14.7793 5.62109L11.3418 2.18359L13.0176 0.507812C13.1895 0.335938 13.4043 0.25 13.6621 0.25C13.9199 0.25 14.1348 0.335938 14.3066 0.507812L16.4551 2.65625C16.627 2.82812 16.7129 3.04297 16.7129 3.30078C16.7129 3.55859 16.627 3.77344 16.4551 3.94531ZM0.212891 13.3125L10.3535 3.17188L13.791 6.60938L3.65039 16.75H0.212891V13.3125Z" fill="currentColor"/>
  </symbol>

  <symbol id="delete" viewBox="0 0 16 20" fill="none">
    <path d="M11.413 1.80004H15.063V3.91941H0.462891V1.80004H4.11292L5.1726 0.740356H10.3533L11.413 1.80004Z" fill="currentColor"/>
    <path d="M12.3548 7.45157V17.1065C12.3548 17.2242 12.3548 17.2242 12.2371 17.342C12.1193 17.4597 12.0016 17.4597 12.0016 17.4597H3.64183C3.52409 17.4597 3.52409 17.4597 3.40634 17.342C3.17086 17.2242 3.17086 17.2242 3.17086 17.1065V7.45157H12.3548ZM14.0032 5.68542H1.52246V17.1065C1.52246 17.6952 1.75795 18.1662 2.11117 18.6371C2.58215 19.1081 3.05312 19.2258 3.64183 19.2258H12.0016C12.5903 19.2258 13.0612 18.9904 13.5322 18.6371C14.0032 18.1662 14.1209 17.6952 14.1209 17.1065V5.68542H14.0032Z" fill="currentColor"/>
    <path d="M6.82112 9.45337H5.4082V15.9292H6.82112V9.45337Z" fill="currentColor"/>
    <path d="M10.2352 9.45337H8.82227V15.9292H10.2352V9.45337Z" fill="currentColor"/>
  </symbol>

  <symbol id="copy" viewBox="0 0 16 19" fill="none">
    <path d="M14.2832 17V5.32031H5.14258V17H14.2832ZM14.2832 3.67969C14.7259 3.67969 15.1165 3.84896 15.4551 4.1875C15.7936 4.5 15.9629 4.8776 15.9629 5.32031V17C15.9629 17.4427 15.7936 17.8333 15.4551 18.1719C15.1165 18.5104 14.7259 18.6797 14.2832 18.6797H5.14258C4.69987 18.6797 4.30924 18.5104 3.9707 18.1719C3.63216 17.8333 3.46289 17.4427 3.46289 17V5.32031C3.46289 4.8776 3.63216 4.5 3.9707 4.1875C4.30924 3.84896 4.69987 3.67969 5.14258 3.67969H14.2832ZM11.7832 0.320312V2H1.7832V13.6797H0.142578V2C0.142578 1.55729 0.298828 1.16667 0.611328 0.828125C0.94987 0.489583 1.34049 0.320312 1.7832 0.320312H11.7832Z" fill="currentColor"/>
  </symbol>

  <symbol id="plus" viewBox="0 0 11 12" fill="none">
    <path d="M6.72266 0.42627H4.72266V11.1071H6.72266V0.42627Z" fill="currentColor"/>
    <path d="M10.7227 4.69849H0.722656V6.83466H10.7227V4.69849Z" fill="currentColor"/>
  </symbol>

  <symbol id="history" viewBox="0 0 14 14" fill="none">
    <path d="M7.50391 3.47852V6.97852L10.5039 8.75977L10.0039 9.60352L6.50391 7.47852V3.47852H7.50391ZM3.37891 10.6035C4.44141 11.6452 5.70182 12.166 7.16016 12.166C8.61849 12.166 9.86849 11.6452 10.9102 10.6035C11.9727 9.54102 12.5039 8.2806 12.5039 6.82227C12.5039 5.36393 11.9727 4.11393 10.9102 3.07227C9.86849 2.00977 8.61849 1.47852 7.16016 1.47852C5.70182 1.47852 4.44141 2.00977 3.37891 3.07227C2.33724 4.11393 1.81641 5.36393 1.81641 6.82227C1.81641 8.2806 2.33724 9.54102 3.37891 10.6035ZM2.44141 2.13477C3.75391 0.822266 5.32682 0.166016 7.16016 0.166016C8.99349 0.166016 10.556 0.822266 11.8477 2.13477C13.1602 3.42643 13.8164 4.98893 13.8164 6.82227C13.8164 8.6556 13.1602 10.2285 11.8477 11.541C10.556 12.8327 8.99349 13.4785 7.16016 13.4785C5.32682 13.4785 3.75391 12.8327 2.44141 11.541C1.14974 10.2285 0.503906 8.6556 0.503906 6.82227C0.503906 4.98893 1.14974 3.42643 2.44141 2.13477Z" fill="currentColor"/>
  </symbol>

  <symbol id="link" viewBox="0 0 24 24" fill="none">
    <path fill="currentColor" d="M3.9 12c0-1.71 1.39-3.1 3.1-3.1h4V7H7c-2.76 0-5 2.24-5 5s2.24 5 5 5h4v-1.9H7c-1.71 0-3.1-1.39-3.1-3.1zM8 13h8v-2H8v2zm9-6h-4v1.9h4c1.71 0 3.1 1.39 3.1 3.1s-1.39 3.1-3.1 3.1h-4V17h4c2.76 0 5-2.24 5-5s-2.24-5-5-5z"/>
  </symbol>

  <symbol id="cloud" viewBox="0 0 54 36" fill="none">
    <path d="M31.6387 19.9688H38.2637L27.1875 8.99609L16.1113 19.9688H22.7363V28.8711H31.6387V19.9688ZM43.4395 13.4473C46.2689 13.6543 48.6842 14.8275 50.6855 16.9668C52.6868 19.0371 53.6875 21.5215 53.6875 24.4199C53.6875 27.4564 52.5833 30.0788 50.375 32.2871C48.2357 34.4264 45.6478 35.4961 42.6113 35.4961H13.9375C10.2799 35.4961 7.13997 34.2194 4.51758 31.666C1.96419 29.0436 0.6875 25.9036 0.6875 22.2461C0.6875 18.8646 1.82617 15.9316 4.10352 13.4473C6.38086 10.8939 9.17578 9.44466 12.4883 9.09961C13.9375 6.4082 15.9733 4.23438 18.5957 2.57812C21.2181 0.921875 24.082 0.09375 27.1875 0.09375C31.1901 0.09375 34.7096 1.37044 37.7461 3.92383C40.7826 6.4082 42.6803 9.58268 43.4395 13.4473Z" fill="currentColor"/>
  </symbol>

  <symbol id="drag-drop" viewBox="0 0 26 26" fill="none">
    <path d="M14.5253 18.2958L10.9897 21.8314L7.45421 18.2958H10.1611L10.1335 14.8984H11.846L11.8184 18.2958H14.5253ZM3.91868 14.7603L0.383145 11.2248L3.91868 7.68923V10.3961L7.31611 10.3685V12.081L3.91868 12.0534V14.7603ZM7.45421 4.1537L10.9897 0.618164L14.5253 4.1537H11.8184L11.846 7.55112H10.1335L10.1611 4.1537H7.45421ZM18.0608 7.68923L21.5963 11.2248L18.0608 14.7603V12.0534L14.6634 12.081V10.3685L18.0608 10.3961V7.68923Z" fill="currentColor"/>
  </symbol>

  <symbol id="i-mark" viewBox="0 0 16 16" fill="none">
    <path d="M3.63567 12.0855C4.86235 13.2881 6.31753 13.8895 8.00121 13.8895C9.6849 13.8895 11.1281 13.2881 12.3307 12.0855C13.5574 10.8588 14.1707 9.40365 14.1707 7.71996C14.1707 6.03628 13.5574 4.59312 12.3307 3.39049C11.1281 2.16381 9.6849 1.55047 8.00121 1.55047C6.31753 1.55047 4.86235 2.16381 3.63567 3.39049C2.43304 4.59312 1.83172 6.03628 1.83172 7.71996C1.83172 9.40365 2.43304 10.8588 3.63567 12.0855ZM2.5533 2.30813C4.06861 0.792813 5.88458 0.0351562 8.00121 0.0351562C10.1178 0.0351562 11.9218 0.792813 13.413 2.30813C14.9284 3.79939 15.686 5.60333 15.686 7.71996C15.686 9.83659 14.9284 11.6526 13.413 13.1679C11.9218 14.6591 10.1178 15.4048 8.00121 15.4048C5.88458 15.4048 4.06861 14.6591 2.5533 13.1679C1.06204 11.6526 0.316406 9.83659 0.316406 7.71996C0.316406 5.60333 1.06204 3.79939 2.5533 2.30813ZM7.24356 3.85952H8.75887V8.47762H7.24356V3.85952ZM7.24356 10.029H8.75887V11.5804H7.24356V10.029Z" fill="currentColor"/>
  </symbol>

  <symbol id="star-mark" viewBox="0 0 21 20" fill="none">
    <path d="M10.9414 15.834L4.75391 19.584L6.39453 12.5527L0.957031 7.81836L8.12891 7.20898L10.9414 0.599609L13.7539 7.20898L20.9258 7.81836L15.4883 12.5527L17.1289 19.584L10.9414 15.834Z" fill="currentColor"/>
  </symbol>

  <symbol id="photo" viewBox="0 0 19 16" fill="none">
    <path d="M17.1409 1.87867C16.7807 1.49646 16.3382 1.26758 15.8242 1.26758H3.07422C2.55744 1.26758 2.10464 1.4988 1.72457 1.87887C1.3582 2.24524 1.14648 2.68853 1.14648 3.19531V13.0898C1.14648 13.6102 1.35147 14.0664 1.72457 14.4395C2.09767 14.8126 2.55384 15.0176 3.07422 15.0176H15.8242C16.331 15.0176 16.7743 14.8059 17.1407 14.4395C17.5207 14.0594 17.752 13.6066 17.752 13.0898V3.19531C17.752 2.68135 17.5231 2.23885 17.1409 1.87867Z" stroke="currentColor"/>
    <path d="M16.5969 12.6402H2.30176L5.85156 8.03505L8.44196 11.1051L11.9918 6.5L16.5969 12.6402Z" fill="currentColor"/>
  </symbol>

  <symbol id="search" viewBox="0 0 19 19" fill="none">
    <path d="M3.88086 10.5303C4.79232 11.4417 5.89909 11.8975 7.20117 11.8975C8.50326 11.8975 9.61003 11.4417 10.5215 10.5303C11.4329 9.61882 11.8887 8.51204 11.8887 7.20996C11.8887 5.90788 11.4329 4.80111 10.5215 3.88965C9.61003 2.97819 8.50326 2.52246 7.20117 2.52246C5.89909 2.52246 4.79232 2.97819 3.88086 3.88965C2.9694 4.80111 2.51367 5.90788 2.51367 7.20996C2.51367 8.51204 2.9694 9.61882 3.88086 10.5303ZM13.4512 11.8975L18.627 17.0732L17.0645 18.6357L11.8887 13.46V12.6299L11.5957 12.3369C10.3587 13.4111 8.89388 13.9482 7.20117 13.9482C5.31315 13.9482 3.70182 13.2972 2.36719 11.9951C1.0651 10.693 0.414062 9.09798 0.414062 7.20996C0.414062 5.32194 1.0651 3.72689 2.36719 2.4248C3.70182 1.09017 5.31315 0.422852 7.20117 0.422852C9.08919 0.422852 10.6842 1.09017 11.9863 2.4248C13.2884 3.72689 13.9395 5.32194 13.9395 7.20996C13.9395 8.90267 13.4023 10.3675 12.3281 11.6045L12.6211 11.8975H13.4512Z" fill="currentColor"/>
  </symbol>

  <symbol id="connect" viewBox="0 0 20 22" fill="none">
    <path d="M16.4941 15.3525C17.3743 15.3525 18.1191 15.6742 18.7285 16.3174C19.3379 16.9268 19.6426 17.6546 19.6426 18.501C19.6426 19.3812 19.321 20.1429 18.6777 20.7861C18.0684 21.3955 17.3405 21.7002 16.4941 21.7002C15.6478 21.7002 14.903 21.3955 14.2598 20.7861C13.6504 20.1429 13.3457 19.3812 13.3457 18.501C13.3457 18.1624 13.3626 17.9255 13.3965 17.79L5.72852 13.3213C5.08529 13.8968 4.34049 14.1846 3.49414 14.1846C2.61393 14.1846 1.85221 13.863 1.20898 13.2197C0.565755 12.5765 0.244141 11.8148 0.244141 10.9346C0.244141 10.0544 0.565755 9.29264 1.20898 8.64941C1.85221 8.00618 2.61393 7.68457 3.49414 7.68457C4.34049 7.68457 5.08529 7.97233 5.72852 8.54785L13.3457 4.12988C13.278 3.79134 13.2441 3.53743 13.2441 3.36816C13.2441 2.48796 13.5658 1.72624 14.209 1.08301C14.8522 0.439779 15.6139 0.118164 16.4941 0.118164C17.3743 0.118164 18.1361 0.439779 18.7793 1.08301C19.4225 1.72624 19.7441 2.48796 19.7441 3.36816C19.7441 4.24837 19.4225 5.01009 18.7793 5.65332C18.1361 6.29655 17.3743 6.61816 16.4941 6.61816C15.6816 6.61816 14.9368 6.31348 14.2598 5.7041L6.64258 10.1729C6.71029 10.5114 6.74414 10.7653 6.74414 10.9346C6.74414 11.1038 6.71029 11.3577 6.64258 11.6963L14.3613 16.165C14.9707 15.6234 15.6816 15.3525 16.4941 15.3525Z" fill="currentColor"/>
  </symbol>

  <symbol id="new-window" viewBox="0 0 24 24" fill="none">
    <path fill="currentColor" d="M19 19H5V5h7V3H5c-1.11 0-2 .9-2 2v14c0 1.1.89 2 2 2h14c1.1 0 2-.9 2-2v-7h-2v7zM14 3v2h3.59l-9.83 9.83 1.41 1.41L19 6.41V10h2V3h-7z"/>
  </symbol>

  <symbol id="new-window-alt" viewBox="0 0 12 13" fill="none">
    <path opacity="0.8" d="M10.125 8H9.375C9.16406 8 9 8.1875 9 8.375V11H1.5V3.5H4.875C5.0625 3.5 5.25 3.33594 5.25 3.125V2.375C5.25 2.1875 5.0625 2 4.875 2H1.125C0.492188 2 0 2.51562 0 3.125V11.375C0 12.0078 0.492188 12.5 1.125 12.5H9.375C9.98438 12.5 10.5 12.0078 10.5 11.375V8.375C10.5 8.1875 10.3125 8 10.125 8ZM11.4375 0.5H8.4375C7.92188 0.5 7.66406 1.10938 8.03906 1.46094L8.85938 2.30469L3.16406 8.02344C3.07031 8.11719 2.97656 8.28125 2.97656 8.42188C2.97656 8.53906 3.07031 8.72656 3.16406 8.82031L3.67969 9.33594C3.77344 9.42969 3.96094 9.52344 4.07812 9.52344C4.21875 9.52344 4.38281 9.42969 4.47656 9.33594L10.1953 3.64062L11.0391 4.46094C11.3906 4.8125 12 4.57812 12 4.0625V1.0625C12 0.757812 11.7422 0.5 11.4375 0.5Z" fill="currentColor"/>
  </symbol>

  <symbol id="done-mark" viewBox="0 0 14 8" fill="none">
    <path d="M10.2883 3.89961C10.3883 3.79961 10.4883 3.69961 10.5883 3.59961C11.1883 2.89961 12.2883 1.79961 13.5883 1.29961C13.4883 1.19961 13.3883 1.09961 13.2883 0.999609L13.1883 0.899609C12.6883 0.499609 12.0883 0.0996094 11.1883 0.0996094C9.98828 0.0996094 9.38828 0.699609 8.68828 1.39961L5.68828 4.69961C5.58828 4.59961 5.48828 4.49961 5.38828 4.39961C5.28828 4.29961 5.28828 4.29961 5.18828 4.19961L5.08828 4.09961C3.88828 3.09961 2.38828 2.99961 0.988281 4.39961C2.08828 5.19961 3.58828 6.39961 4.68828 7.59961C4.98828 7.89961 5.28828 7.99961 5.68828 7.99961C6.08828 7.99961 6.38828 7.79961 6.68828 7.59961L10.2883 3.89961Z" fill="currentColor"/>
  </symbol>

  <symbol id="globe" viewBox="0 0 24 24" fill="none">
    <path fill="currentColor" d="M12 2C6.48 2 2 6.48 2 12s4.48 10 10 10 10-4.48 10-10S17.52 2 12 2zm-1 17.93c-3.95-.49-7-3.85-7-7.93 0-.62.08-1.21.21-1.79L9 15v1c0 1.1.9 2 2 2v1.93zm6.9-2.54c-.26-.81-1-1.39-1.9-1.39h-1v-3c0-.55-.45-1-1-1H8v-2h2c.55 0 1-.45 1-1V7h2c1.1 0 2-.9 2-2v-.41c2.93 1.19 5 4.06 5 7.41 0 2.08-.8 3.97-2.1 5.39z"/>
  </symbol>

  <symbol id="alert-success" viewBox="0 0 24 24" fill="none">
    <path fill="currentColor" d="M12 2C6.48 2 2 6.48 2 12s4.48 10 10 10 10-4.48 10-10S17.52 2 12 2zm0 18c-4.41 0-8-3.59-8-8s3.59-8 8-8 8 3.59 8 8-3.59 8-8 8zm4.59-12.42L10 14.17l-2.59-2.58L6 13l4 4 8-8z"/>
  </symbol>
  <symbol id="alert-info" viewBox="0 0 24 24" fill="none">
    <path fill="currentColor" d="M11 7h2v2h-2zm0 4h2v6h-2zm1-9C6.48 2 2 6.48 2 12s4.48 10 10 10 10-4.48 10-10S17.52 2 12 2zm0 18c-4.41 0-8-3.59-8-8s3.59-8 8-8 8 3.59 8 8-3.59 8-8 8z"/>
  </symbol>
  <symbol id="alert-warning" viewBox="0 0 24 24" fill="none">
    <path fill="currentColor" d="M12 5.99L19.53 19H4.47L12 5.99M12 2L1 21h22L12 2zm1 14h-2v2h2v-2zm0-6h-2v4h2v-4z"/>
  </symbol>
  <symbol id="alert-error" viewBox="0 0 24 24" fill="none">
    <path fill="currentColor" d="M12,3.19l7,3.11V11c0,4.52-2.98,8.69-7,9.93C7.98,19.69,5,15.52,5,11V6.3L12,3.19 M12,1L3,5v6c0,5.55,3.84,10.74,9,12 c5.16-1.26,9-6.45,9-12V5L12,1L12,1z M11,7h2v2h-2V7z M11,11h2v6h-2V11z"/>
  </symbol>

  <symbol id="camera" viewBox="0 0 24 24" fill="none">
    <circle cx="12" cy="12" r="3.2" fill="currentColor" />
    <path fill="currentColor" d="M9 2L7.17 4H4c-1.1 0-2 .9-2 2v12c0 1.1.9 2 2 2h16c1.1 0 2-.9 2-2V6c0-1.1-.9-2-2-2h-3.17L15 2H9zm3 15c-2.76 0-5-2.24-5-5s2.24-5 5-5 5 2.24 5 5-2.24 5-5 5z"/>
  </symbol>

  <symbol id="toggle-down" viewBox="0 0 24 24" fill="none">
    <path fill="currentColor" d="M15.88 9.29L12 13.17 8.12 9.29c-.39-.39-1.02-.39-1.41 0-.39.39-.39 1.02 0 1.41l4.59 4.59c.39.39 1.02.39 1.41 0l4.59-4.59c.39-.39.39-1.02 0-1.41-.39-.38-1.03-.39-1.42 0z"/>
  </symbol>

  <symbol id="cancel" viewBox="0 0 24 24" fill="none">
    <path fill="currentColor" d="M12 2C6.47 2 2 6.47 2 12s4.47 10 10 10 10-4.47 10-10S17.53 2 12 2zm0 18c-4.41 0-8-3.59-8-8s3.59-8 8-8 8 3.59 8 8-3.59 8-8 8zm3.59-13L12 10.59 8.41 7 7 8.41 10.59 12 7 15.59 8.41 17 12 13.41 15.59 17 17 15.59 13.41 12 17 8.41z"/>
  </symbol>

  <symbol id="sign-out" viewBox="0 0 14 12" fill="none">
    <path fill="currentColor" d="M13.5898 6.21484C13.8359 5.96875 13.8359 5.55859 13.5898 5.28516L8.99609 0.691406C8.55859 0.28125 7.875 0.582031 7.875 1.15625V3.78125H4.15625C3.77344 3.78125 3.5 4.08203 3.5 4.4375V7.0625C3.5 7.44531 3.77344 7.71875 4.15625 7.71875H7.875V10.3438C7.875 10.9453 8.58594 11.2188 8.99609 10.8086L13.5898 6.21484ZM5.25 10.6719V9.57812C5.25 9.41406 5.08594 9.25 4.92188 9.25H2.625C2.13281 9.25 1.75 8.86719 1.75 8.375V3.125C1.75 2.66016 2.13281 2.25 2.625 2.25H4.92188C5.08594 2.25 5.25 2.11328 5.25 1.92188V0.828125C5.25 0.664062 5.08594 0.5 4.92188 0.5H2.625C1.17578 0.5 0 1.67578 0 3.125V8.375C0 9.82422 1.17578 11 2.625 11H4.92188C5.08594 11 5.25 10.8633 5.25 10.6719Z"/>
  </symbol>

  <symbol id="properties" viewBox="0 0 24 24" fill="none">
    <path fill="currentColor" d="M15 11V5l-3-3-3 3v2H3v14h18V11h-6zm-8 8H5v-2h2v2zm0-4H5v-2h2v2zm0-4H5V9h2v2zm6 8h-2v-2h2v2zm0-4h-2v-2h2v2zm0-4h-2V9h2v2zm0-4h-2V5h2v2zm6 12h-2v-2h2v2zm0-4h-2v-2h2v2z"/>
  </symbol>

  <symbol id="settings" viewBox="0 0 24 24" fill="none">
    <path fill="currentColor" d="M19.14,12.94c0.04-0.3,0.06-0.61,0.06-0.94c0-0.32-0.02-0.64-0.07-0.94l2.03-1.58c0.18-0.14,0.23-0.41,0.12-0.61 l-1.92-3.32c-0.12-0.22-0.37-0.29-0.59-0.22l-2.39,0.96c-0.5-0.38-1.03-0.7-1.62-0.94L14.4,2.81c-0.04-0.24-0.24-0.41-0.48-0.41 h-3.84c-0.24,0-0.43,0.17-0.47,0.41L9.25,5.35C8.66,5.59,8.12,5.92,7.63,6.29L5.24,5.33c-0.22-0.08-0.47,0-0.59,0.22L2.74,8.87 C2.62,9.08,2.66,9.34,2.86,9.48l2.03,1.58C4.84,11.36,4.8,11.69,4.8,12s0.02,0.64,0.07,0.94l-2.03,1.58 c-0.18,0.14-0.23,0.41-0.12,0.61l1.92,3.32c0.12,0.22,0.37,0.29,0.59,0.22l2.39-0.96c0.5,0.38,1.03,0.7,1.62,0.94l0.36,2.54 c0.05,0.24,0.24,0.41,0.48,0.41h3.84c0.24,0,0.44-0.17,0.47-0.41l0.36-2.54c0.59-0.24,1.13-0.56,1.62-0.94l2.39,0.96 c0.22,0.08,0.47,0,0.59-0.22l1.92-3.32c0.12-0.22,0.07-0.47-0.12-0.61L19.14,12.94z M12,15.6c-1.98,0-3.6-1.62-3.6-3.6 s1.62-3.6,3.6-3.6s3.6,1.62,3.6,3.6S13.98,15.6,12,15.6z"/>
  </symbol>

  <symbol id="credit-card" viewBox="0 0 16 13" fill="none">
    <path fill="currentColor" d="M0 11.5625C0 12.3008 0.574219 12.875 1.3125 12.875H14.4375C15.1484 12.875 15.75 12.3008 15.75 11.5625V6.75H0V11.5625ZM5.25 9.70312C5.25 9.53906 5.38672 9.375 5.57812 9.375H9.29688C9.46094 9.375 9.625 9.53906 9.625 9.70312V10.7969C9.625 10.9883 9.46094 11.125 9.29688 11.125H5.57812C5.38672 11.125 5.25 10.9883 5.25 10.7969V9.70312ZM1.75 9.70312C1.75 9.53906 1.88672 9.375 2.07812 9.375H4.04688C4.21094 9.375 4.375 9.53906 4.375 9.70312V10.7969C4.375 10.9883 4.21094 11.125 4.04688 11.125H2.07812C1.88672 11.125 1.75 10.9883 1.75 10.7969V9.70312ZM15.75 1.9375C15.75 1.22656 15.1484 0.625 14.4375 0.625H1.3125C0.574219 0.625 0 1.22656 0 1.9375V3.25H15.75V1.9375Z"/>
  </symbol>

  <symbol id="file-sign" viewBox="0 0 11 15" fill="none">
    <path fill="currentColor" d="M6.125 4.46875V0.75H0.65625C0.273438 0.75 0 1.05078 0 1.40625V14.0938C0 14.4766 0.273438 14.75 0.65625 14.75H9.84375C10.1992 14.75 10.5 14.4766 10.5 14.0938V5.125H6.78125C6.39844 5.125 6.125 4.85156 6.125 4.46875ZM1.75 2.71875C1.75 2.60938 1.83203 2.5 1.96875 2.5H4.15625C4.26562 2.5 4.375 2.60938 4.375 2.71875V3.15625C4.375 3.29297 4.26562 3.375 4.15625 3.375H1.96875C1.83203 3.375 1.75 3.29297 1.75 3.15625V2.71875ZM1.75 4.46875C1.75 4.35938 1.83203 4.25 1.96875 4.25H4.15625C4.26562 4.25 4.375 4.35938 4.375 4.46875V4.90625C4.375 5.04297 4.26562 5.125 4.15625 5.125H1.96875C1.83203 5.125 1.75 5.04297 1.75 4.90625V4.46875ZM7 11.25H8.3125C8.53125 11.25 8.75 11.4688 8.75 11.6875C8.75 11.9336 8.53125 12.125 8.3125 12.125H7C6.5625 12.125 6.15234 11.8789 5.96094 11.4961C5.87891 11.332 5.74219 11.3047 5.6875 11.3047C5.60547 11.3047 5.46875 11.332 5.38672 11.4688L5.19531 11.9062C5.11328 12.043 4.94922 12.125 4.8125 12.125C4.78516 12.125 4.78516 12.125 4.75781 12.125C4.59375 12.125 4.42969 12.0156 4.375 11.8516L3.9375 10.457L3.63672 11.332C3.47266 11.8242 3.03516 12.125 2.51562 12.125H2.1875C1.94141 12.125 1.75 11.9336 1.75 11.6875C1.75 11.4688 1.94141 11.25 2.1875 11.25H2.51562C2.65234 11.25 2.76172 11.168 2.81641 11.0586L3.30859 9.55469C3.39062 9.28125 3.63672 9.11719 3.9375 9.11719C4.21094 9.11719 4.45703 9.28125 4.53906 9.55469L4.92188 10.7031C5.46875 10.2656 6.39844 10.4297 6.72656 11.0859C6.78125 11.1953 6.89062 11.25 7 11.25ZM10.3086 3.62109L7.62891 0.941406C7.49219 0.832031 7.32812 0.75 7.16406 0.75H7V4.25H10.5V4.08594C10.5 3.92188 10.418 3.75781 10.3086 3.62109Z"/>
  </symbol>

  <symbol id="spinner2" viewBox="0 0 512 512" fill="none">
    <path fill="currentColor" d="M288 39.056v16.659c0 10.804 7.281 20.159 17.686 23.066C383.204 100.434 440 171.518 440 256c0 101.689-82.295 184-184 184-101.689 0-184-82.295-184-184 0-84.47 56.786-155.564 134.312-177.219C216.719 75.874 224 66.517 224 55.712V39.064c0-15.709-14.834-27.153-30.046-23.234C86.603 43.482 7.394 141.206 8.003 257.332c.72 137.052 111.477 246.956 248.531 246.667C393.255 503.711 504 392.788 504 256c0-115.633-79.14-212.779-186.211-240.236C302.678 11.889 288 23.456 288 39.056z"/>
  </symbol>

  <symbol id="spinner" viewBox="0 0 128 128" fill="none">
    <path d="M64 9.75A54.25 54.25 0 0 0 9.75 64H0a64 64 0 0 1 128 0h-9.75A54.25 54.25 0 0 0 64 9.75z" fill="currentColor" />
  </symbol>

  <symbol id="pdf" viewBox="0 0 56 24" fill="none">
    <path d="M8.26367 11.0273C8.26367 12.071 7.92188 12.8708 7.23828 13.4268C6.55469 13.9827 5.58171 14.2607 4.31934 14.2607H3.28027V18H1.64648V8.00586H4.52441C5.77311 8.00586 6.70736 8.26107 7.32715 8.77148C7.9515 9.2819 8.26367 10.0339 8.26367 11.0273ZM3.28027 12.8867H4.14844C4.98698 12.8867 5.60221 12.7409 5.99414 12.4492C6.38607 12.1576 6.58203 11.7018 6.58203 11.082C6.58203 10.5078 6.40658 10.0794 6.05566 9.79688C5.70475 9.51432 5.15788 9.37305 4.41504 9.37305H3.28027V12.8867ZM18.3877 12.9072C18.3877 14.557 17.9297 15.8193 17.0137 16.6943C16.0977 17.5648 14.7783 18 13.0557 18H10.2598V8.00586H13.3496C14.9401 8.00586 16.1774 8.43424 17.0615 9.29102C17.9456 10.1478 18.3877 11.3532 18.3877 12.9072ZM16.665 12.9619C16.665 10.5693 15.5462 9.37305 13.3086 9.37305H11.8936V16.626H13.0557C15.4619 16.626 16.665 15.4046 16.665 12.9619ZM22.1611 18H20.541V8.00586H26.1807V9.38672H22.1611V12.5107H25.9277V13.8984H22.1611V18Z" fill="currentColor"/>
    <path d="M43.1719 3.125C42.707 3.125 42.375 3.49023 42.375 3.92188V9.5H39.4531C38.8555 9.5 38.5566 10.2305 38.9883 10.6621L44.0352 15.709C44.2676 15.9414 44.6992 15.9414 44.9316 15.709L49.9785 10.6621C50.4102 10.2305 50.1113 9.5 49.5137 9.5H46.625V3.92188C46.625 3.49023 46.2598 3.125 45.8281 3.125H43.1719ZM53 15.6094C53 15.1777 52.6348 14.8125 52.2031 14.8125H47.3223L45.6953 16.4395C45.0312 17.1367 43.9355 17.1367 43.2715 16.4395L41.6445 14.8125H36.7969C36.332 14.8125 36 15.1777 36 15.6094V19.3281C36 19.793 36.332 20.125 36.7969 20.125H52.2031C52.6348 20.125 53 19.793 53 19.3281V15.6094ZM48.8828 18.5312C48.8828 18.8965 48.584 19.1953 48.2188 19.1953C47.8535 19.1953 47.5547 18.8965 47.5547 18.5312C47.5547 18.166 47.8535 17.8672 48.2188 17.8672C48.584 17.8672 48.8828 18.166 48.8828 18.5312ZM51.0078 18.5312C51.0078 18.8965 50.709 19.1953 50.3438 19.1953C49.9785 19.1953 49.6797 18.8965 49.6797 18.5312C49.6797 18.166 49.9785 17.8672 50.3438 17.8672C50.709 17.8672 51.0078 18.166 51.0078 18.5312Z" fill="currentColor"/>
    <path d="M43.1719 3.125C42.707 3.125 42.375 3.49023 42.375 3.92188V9.5H39.4531C38.8555 9.5 38.5566 10.2305 38.9883 10.6621L44.0352 15.709C44.2676 15.9414 44.6992 15.9414 44.9316 15.709L49.9785 10.6621C50.4102 10.2305 50.1113 9.5 49.5137 9.5H46.625V3.92188C46.625 3.49023 46.2598 3.125 45.8281 3.125H43.1719ZM53 15.6094C53 15.1777 52.6348 14.8125 52.2031 14.8125H47.3223L45.6953 16.4395C45.0312 17.1367 43.9355 17.1367 43.2715 16.4395L41.6445 14.8125H36.7969C36.332 14.8125 36 15.1777 36 15.6094V19.3281C36 19.793 36.332 20.125 36.7969 20.125H52.2031C52.6348 20.125 53 19.793 53 19.3281V15.6094ZM48.8828 18.5312C48.8828 18.8965 48.584 19.1953 48.2188 19.1953C47.8535 19.1953 47.5547 18.8965 47.5547 18.5312C47.5547 18.166 47.8535 17.8672 48.2188 17.8672C48.584 17.8672 48.8828 18.166 48.8828 18.5312ZM51.0078 18.5312C51.0078 18.8965 50.709 19.1953 50.3438 19.1953C49.9785 19.1953 49.6797 18.8965 49.6797 18.5312C49.6797 18.166 49.9785 17.8672 50.3438 17.8672C50.709 17.8672 51.0078 18.166 51.0078 18.5312Z" fill="currentColor"/>
  </symbol>

  <symbol id="csv" viewBox="0 0 56 24" fill="none">
    <path d="M5.93164 9.26367C4.99284 9.26367 4.25456 9.59635 3.7168 10.2617C3.17904 10.9271 2.91016 11.8454 2.91016 13.0166C2.91016 14.2425 3.16764 15.1699 3.68262 15.7988C4.20215 16.4277 4.95182 16.7422 5.93164 16.7422C6.35547 16.7422 6.76562 16.7012 7.16211 16.6191C7.55859 16.5326 7.97103 16.4232 8.39941 16.291V17.6924C7.61556 17.9886 6.72689 18.1367 5.7334 18.1367C4.27051 18.1367 3.14714 17.6947 2.36328 16.8105C1.57943 15.9219 1.1875 14.6527 1.1875 13.0029C1.1875 11.9639 1.37663 11.0547 1.75488 10.2754C2.1377 9.49609 2.68913 8.89909 3.40918 8.48438C4.12923 8.06966 4.97461 7.8623 5.94531 7.8623C6.96615 7.8623 7.90951 8.0765 8.77539 8.50488L8.1875 9.86523C7.85026 9.70573 7.49251 9.56673 7.11426 9.44824C6.74056 9.3252 6.34635 9.26367 5.93164 9.26367ZM16.3154 15.2861C16.3154 16.1748 15.9941 16.8721 15.3516 17.3779C14.709 17.8838 13.8226 18.1367 12.6924 18.1367C11.5622 18.1367 10.637 17.9613 9.91699 17.6104V16.0654C10.3727 16.2796 10.8558 16.4482 11.3662 16.5713C11.8812 16.6943 12.3597 16.7559 12.8018 16.7559C13.4489 16.7559 13.9251 16.6328 14.2305 16.3867C14.5404 16.1406 14.6953 15.8102 14.6953 15.3955C14.6953 15.0218 14.554 14.7051 14.2715 14.4453C13.9889 14.1855 13.4056 13.8779 12.5215 13.5225C11.61 13.1533 10.9674 12.7318 10.5938 12.2578C10.2201 11.7839 10.0332 11.2142 10.0332 10.5488C10.0332 9.71484 10.3294 9.05859 10.9219 8.58008C11.5143 8.10156 12.3096 7.8623 13.3076 7.8623C14.2646 7.8623 15.2171 8.07194 16.165 8.49121L15.6455 9.82422C14.7568 9.45052 13.9639 9.26367 13.2666 9.26367C12.738 9.26367 12.3369 9.37988 12.0635 9.6123C11.79 9.84017 11.6533 10.1432 11.6533 10.5215C11.6533 10.7812 11.708 11.0046 11.8174 11.1914C11.9268 11.3737 12.1068 11.5469 12.3574 11.7109C12.6081 11.875 13.0592 12.0915 13.7109 12.3604C14.4447 12.6657 14.9824 12.9505 15.3242 13.2148C15.666 13.4792 15.9167 13.7777 16.0762 14.1104C16.2357 14.443 16.3154 14.835 16.3154 15.2861ZM23.9443 8.00586H25.6396L22.1396 18H20.417L16.9307 8.00586H18.6123L20.6973 14.2197C20.8066 14.516 20.9229 14.8988 21.0459 15.3682C21.1689 15.833 21.2487 16.1794 21.2852 16.4072C21.3444 16.0609 21.4355 15.6598 21.5586 15.2041C21.6816 14.7484 21.7819 14.4111 21.8594 14.1924L23.9443 8.00586Z" fill="currentColor"/>
    <path d="M42.1719 3.125C41.707 3.125 41.375 3.49023 41.375 3.92188V9.5H38.4531C37.8555 9.5 37.5566 10.2305 37.9883 10.6621L43.0352 15.709C43.2676 15.9414 43.6992 15.9414 43.9316 15.709L48.9785 10.6621C49.4102 10.2305 49.1113 9.5 48.5137 9.5H45.625V3.92188C45.625 3.49023 45.2598 3.125 44.8281 3.125H42.1719ZM52 15.6094C52 15.1777 51.6348 14.8125 51.2031 14.8125H46.3223L44.6953 16.4395C44.0312 17.1367 42.9355 17.1367 42.2715 16.4395L40.6445 14.8125H35.7969C35.332 14.8125 35 15.1777 35 15.6094V19.3281C35 19.793 35.332 20.125 35.7969 20.125H51.2031C51.6348 20.125 52 19.793 52 19.3281V15.6094ZM47.8828 18.5312C47.8828 18.8965 47.584 19.1953 47.2188 19.1953C46.8535 19.1953 46.5547 18.8965 46.5547 18.5312C46.5547 18.166 46.8535 17.8672 47.2188 17.8672C47.584 17.8672 47.8828 18.166 47.8828 18.5312ZM50.0078 18.5312C50.0078 18.8965 49.709 19.1953 49.3438 19.1953C48.9785 19.1953 48.6797 18.8965 48.6797 18.5312C48.6797 18.166 48.9785 17.8672 49.3438 17.8672C49.709 17.8672 50.0078 18.166 50.0078 18.5312Z" fill="currentColor"/>
  </symbol>

  <symbol id="xlsx" viewBox="0 0 56 24" fill="none">
    <path d="M 8.932 9.912 L 6.902 9.912 L 4.424 6.342 L 1.988 9.912 L 0 9.912 L 3.458 4.942 L 0.168 0.168 L 2.198 0.168 L 4.508 3.5 L 6.776 0.168 L 8.764 0.168 L 5.474 4.9 L 8.932 9.912 Z M 35.812 9.912 L 33.782 9.912 L 31.304 6.342 L 28.868 9.912 L 26.88 9.912 L 30.338 4.942 L 27.048 0.168 L 29.078 0.168 L 31.388 3.5 L 33.656 0.168 L 35.644 0.168 L 32.354 4.9 L 35.812 9.912 Z M 18.62 9.296 L 18.62 7.504 A 10.295 10.295 0 0 0 19.825 8.062 Q 20.931 8.484 21.868 8.484 A 2.704 2.704 0 0 0 22.346 8.444 Q 22.617 8.395 22.835 8.287 A 1.468 1.468 0 0 0 23.023 8.176 A 0.978 0.978 0 0 0 23.454 7.469 A 1.292 1.292 0 0 0 23.464 7.308 A 1.04 1.04 0 0 0 23.403 6.946 A 0.933 0.933 0 0 0 23.219 6.643 A 1.871 1.871 0 0 0 22.753 6.27 A 2.225 2.225 0 0 0 22.61 6.195 A 6.7 6.7 0 0 0 22.409 6.103 Q 22.181 6.003 21.872 5.882 A 24.368 24.368 0 0 0 21.574 5.768 Q 20.919 5.526 20.438 5.299 A 7.675 7.675 0 0 1 20.09 5.124 Q 19.516 4.816 19.11 4.249 Q 18.704 3.682 18.704 2.786 A 3.046 3.046 0 0 1 18.829 1.889 A 2.335 2.335 0 0 1 19.614 0.735 A 3.094 3.094 0 0 1 20.721 0.175 Q 21.334 0 22.106 0 Q 22.848 0 23.562 0.161 A 5.708 5.708 0 0 1 24.609 0.502 A 5.116 5.116 0 0 1 24.878 0.63 L 24.878 2.38 Q 23.464 1.596 22.148 1.596 Q 21.42 1.596 21.007 1.855 A 0.933 0.933 0 0 0 20.755 2.08 Q 20.607 2.276 20.595 2.544 A 1.062 1.062 0 0 0 20.594 2.59 A 0.822 0.822 0 0 0 20.884 3.237 A 1.131 1.131 0 0 0 21.021 3.339 Q 21.448 3.612 22.344 3.934 A 18.234 18.234 0 0 1 22.994 4.19 Q 23.505 4.403 23.884 4.606 A 2.99 2.99 0 0 1 24.756 5.319 A 3.602 3.602 0 0 1 24.927 5.537 Q 25.34 6.107 25.391 6.99 A 4.266 4.266 0 0 1 25.396 7.112 A 3.29 3.29 0 0 1 25.264 8.068 A 2.522 2.522 0 0 1 24.458 9.289 Q 23.569 10.038 22.116 10.078 A 6.023 6.023 0 0 1 21.952 10.08 A 6.638 6.638 0 0 1 20.934 9.998 A 8.289 8.289 0 0 1 20.286 9.87 Q 19.404 9.66 18.62 9.296 Z M 10.808 9.912 L 10.808 0.168 L 12.656 0.168 L 12.656 8.288 L 16.758 8.288 L 16.758 9.912 L 10.808 9.912 Z" transform="translate(0,9)"  fill="currentColor"/>
    <path d="M42.1719 3.125C41.707 3.125 41.375 3.49023 41.375 3.92188V9.5H38.4531C37.8555 9.5 37.5566 10.2305 37.9883 10.6621L43.0352 15.709C43.2676 15.9414 43.6992 15.9414 43.9316 15.709L48.9785 10.6621C49.4102 10.2305 49.1113 9.5 48.5137 9.5H45.625V3.92188C45.625 3.49023 45.2598 3.125 44.8281 3.125H42.1719ZM52 15.6094C52 15.1777 51.6348 14.8125 51.2031 14.8125H46.3223L44.6953 16.4395C44.0312 17.1367 42.9355 17.1367 42.2715 16.4395L40.6445 14.8125H35.7969C35.332 14.8125 35 15.1777 35 15.6094V19.3281C35 19.793 35.332 20.125 35.7969 20.125H51.2031C51.6348 20.125 52 19.793 52 19.3281V15.6094ZM47.8828 18.5312C47.8828 18.8965 47.584 19.1953 47.2188 19.1953C46.8535 19.1953 46.5547 18.8965 46.5547 18.5312C46.5547 18.166 46.8535 17.8672 47.2188 17.8672C47.584 17.8672 47.8828 18.166 47.8828 18.5312ZM50.0078 18.5312C50.0078 18.8965 49.709 19.1953 49.3438 19.1953C48.9785 19.1953 48.6797 18.8965 48.6797 18.5312C48.6797 18.166 48.9785 17.8672 49.3438 17.8672C49.709 17.8672 50.0078 18.166 50.0078 18.5312Z" transform="translate(5,0)" fill="currentColor"/>
  </symbol>

  <symbol id="dashboard" viewBox="0 0 17 17" fill="none">
    <path d="M0 16.7376V8.31182H4.21287V16.6237H0V16.7376ZM6.26238 16.7376V-6.10352e-05H10.4752V16.7376H6.26238ZM12.5248 5.23756H16.7376V16.7376H12.5248V5.23756Z" fill="currentColor"/>
  </symbol>

  <symbol id="admin" viewBox="0 0 24 24" fill="none">
    <circle cx="17" cy="15.5" fill-rule="evenodd" r="1.12" fill="currentColor" />
    <path fill="currentColor" d="M17,17.5c-0.73,0-2.19,0.36-2.24,1.08c0.5,0.71,1.32,1.17,2.24,1.17 s1.74-0.46,2.24-1.17C19.19,17.86,17.73,17.5,17,17.5z" fill-rule="evenodd"/>
    <path
      fill="currentColor"
      d="M18,11.09V6.27L10.5,3L3,6.27v4.91c0,4.54,3.2,8.79,7.5,9.82 c0.55-0.13,1.08-0.32,1.6-0.55C13.18,21.99,14.97,23,17,23c3.31,0,6-2.69,6-6C23,14.03,20.84,11.57,18,11.09z M11,17 c0,0.56,0.08,1.11,0.23,1.62c-0.24,0.11-0.48,0.22-0.73,0.3c-3.17-1-5.5-4.24-5.5-7.74v-3.6l5.5-2.4l5.5,2.4v3.51 C13.16,11.57,11,14.03,11,17z M17,21c-2.21,0-4-1.79-4-4c0-2.21,1.79-4,4-4s4,1.79,4,4C21,19.21,19.21,21,17,21z"
      fill-rule="evenodd"/>
  </symbol>

  <symbol id="user-cog" viewBox="0 0 640 512" fill="none">
    <path d="M610.5 341.3c2.6-14.1 2.6-28.5 0-42.6l25.8-14.9c3-1.7 4.3-5.2 3.3-8.5c-6.7-21.6-18.2-41.2-33.2-57.4c-2.3-2.5-6-3.1-9-1.4l-25.8 14.9c-10.9-9.3-23.4-16.5-36.9-21.3v-29.8c0-3.4-2.4-6.4-5.7-7.1c-22.3-5-45-4.8-66.2 0c-3.3.7-5.7 3.7-5.7 7.1v29.8c-13.5 4.8-26 12-36.9 21.3l-25.8-14.9c-2.9-1.7-6.7-1.1-9 1.4c-15 16.2-26.5 35.8-33.2 57.4c-1 3.3.4 6.8 3.3 8.5l25.8 14.9c-2.6 14.1-2.6 28.5 0 42.6l-25.8 14.9c-3 1.7-4.3 5.2-3.3 8.5c6.7 21.6 18.2 41.1 33.2 57.4c2.3 2.5 6 3.1 9 1.4l25.8-14.9c10.9 9.3 23.4 16.5 36.9 21.3v29.8c0 3.4 2.4 6.4 5.7 7.1c22.3 5 45 4.8 66.2 0c3.3-.7 5.7-3.7 5.7-7.1v-29.8c13.5-4.8 26-12 36.9-21.3l25.8 14.9c2.9 1.7 6.7 1.1 9-1.4c15-16.2 26.5-35.8 33.2-57.4c1-3.3-.4-6.8-3.3-8.5l-25.8-14.9zM496 368.5c-26.8 0-48.5-21.8-48.5-48.5s21.8-48.5 48.5-48.5s48.5 21.8 48.5 48.5s-21.7 48.5-48.5 48.5zM96 224c35.3 0 64-28.7 64-64s-28.7-64-64-64s-64 28.7-64 64s28.7 64 64 64zm224 32c1.9 0 3.7-.5 5.6-.6c8.3-21.7 20.5-42.1 36.3-59.2c7.4-8 17.9-12.6 28.9-12.6c6.9 0 13.7 1.8 19.6 5.3l7.9 4.6c.8-.5 1.6-.9 2.4-1.4c7-14.6 11.2-30.8 11.2-48c0-61.9-50.1-112-112-112S208 82.1 208 144c0 61.9 50.1 112 112 112zm105.2 194.5c-2.3-1.2-4.6-2.6-6.8-3.9c-8.2 4.8-15.3 9.8-27.5 9.8c-10.9 0-21.4-4.6-28.9-12.6c-18.3-19.8-32.3-43.9-40.2-69.6c-10.7-34.5 24.9-49.7 25.8-50.3c-.1-2.6-.1-5.2 0-7.8l-7.9-4.6c-3.8-2.2-7-5-9.8-8.1c-3.3.2-6.5.6-9.8.6c-24.6 0-47.6-6-68.5-16h-8.3C179.6 288 128 339.6 128 403.2V432c0 26.5 21.5 48 48 48h255.4c-3.7-6-6.2-12.8-6.2-20.3v-9.2zM173.1 274.6C161.5 263.1 145.6 256 128 256H64c-35.3 0-64 28.7-64 64v32c0 17.7 14.3 32 32 32h65.9c6.3-47.4 34.9-87.3 75.2-109.4z" fill="currentColor"/>
  </symbol>

  <symbol id="bank-icon" viewBox="0 0 45 42" fill="none">
    <path d="M22.5 0L0 9V12H3C3 12.8203 3.72656 13.5 4.61719 13.5H40.3828C41.2734 13.5 42 12.8203 42 12H45V9L22.5 0ZM6 15V33H4.61719C3.72656 33 3 33.6797 3 34.5V36H42V34.5C42 33.6797 41.2734 33 40.3828 33H39V15H33V33H30V15H24V33H21V15H15V33H12V15H6ZM43.3828 37.5H1.61719C0.726563 37.5 0 38.1797 0 39V42H45V39C45 38.1797 44.2734 37.5 43.3828 37.5Z" fill="#5A5C6C"/>
  </symbol>

  <symbol id="clock-icon" viewBox="0 0 448 512" fill="none">
    <path fill="currentColor" d="M400 224h-24v-72C376 68.2 307.8 0 224 0S72 68.2 72 152v72H48c-26.5 0-48 21.5-48 48v192c0 26.5 21.5 48 48 48h352c26.5 0 48-21.5 48-48V272c0-26.5-21.5-48-48-48zm-104 0H152v-72c0-39.7 32.3-72 72-72s72 32.3 72 72v72z" />
  </symbol>

  <symbol id="info-circle" viewBox="0 0 512 512" fill="none">
    <path fill="currentColor" d="M256 8C119.043 8 8 119.083 8 256c0 136.997 111.043 248 248 248s248-111.003 248-248C504 119.083 392.957 8 256 8zm0 110c23.196 0 42 18.804 42 42s-18.804 42-42 42-42-18.804-42-42 18.804-42 42-42zm56 254c0 6.627-5.373 12-12 12h-88c-6.627 0-12-5.373-12-12v-24c0-6.627 5.373-12 12-12h12v-64h-12c-6.627 0-12-5.373-12-12v-24c0-6.627 5.373-12 12-12h64c6.627 0 12 5.373 12 12v100h12c6.627 0 12 5.373 12 12v24z" />
  </symbol>

  <symbol id="check" viewBox="0 0 8 8" fill="none">
    <path d="M0 4C0 1.79086 1.79086 0 4 0C6.20914 0 8 1.79086 8 4C8 6.20914 6.20914 8 4 8C1.79086 8 0 6.20914 0 4Z" fill="white"/>
    <path d="M3.30838 5.54967C3.39172 5.63344 3.53338 5.63344 3.61672 5.54967L6.06672 3.08685C6.15005 3.00308 6.15005 2.86067 6.06672 2.7769L5.76672 2.47533C5.68338 2.39156 5.55005 2.39156 5.46672 2.47533L3.46672 4.4858L2.52505 3.54758C2.44172 3.46381 2.30838 3.46381 2.22505 3.54758L1.92505 3.84915C1.84172 3.93292 1.84172 4.07533 1.92505 4.1591L3.30838 5.54967Z" fill="#27AE60"/>
  </symbol>

  <symbol id="invisible" viewBox="0 0 24 19" fill="none">
    <path d="M11.8594 6H12C12.8125 6 13.5156 6.29688 14.1094 6.89062C14.7031 7.48438 15 8.1875 15 9V9.1875L11.8594 6ZM7.54688 6.79688C7.17188 7.54688 6.98438 8.28125 6.98438 9C6.98438 10.375 7.46875 11.5625 8.4375 12.5625C9.4375 13.5312 10.625 14.0156 12 14.0156C12.7188 14.0156 13.4531 13.8281 14.2031 13.4531L12.6562 11.9062C12.4062 11.9688 12.1875 12 12 12C11.1875 12 10.4844 11.7031 9.89062 11.1094C9.29688 10.5156 9 9.8125 9 9C9 8.8125 9.03125 8.59375 9.09375 8.34375L7.54688 6.79688ZM2.01562 1.26562L3.28125 0L21 17.7188L19.7344 18.9844C19.5781 18.8281 19.0781 18.3438 18.2344 17.5312C17.4219 16.7188 16.7969 16.0938 16.3594 15.6562C15.0156 16.2188 13.5625 16.5 12 16.5C9.53125 16.5 7.29688 15.8125 5.29688 14.4375C3.29688 13.0625 1.85938 11.25 0.984375 9C1.32812 8.1875 1.85938 7.29688 2.57812 6.32812C3.32812 5.32812 4.04688 4.5625 4.73438 4.03125C4.35938 3.65625 3.82812 3.125 3.14062 2.4375C2.48438 1.75 2.10938 1.35938 2.01562 1.26562ZM12 3.98438C11.375 3.98438 10.7656 4.10938 10.1719 4.35938L8.01562 2.20312C9.23438 1.73438 10.5625 1.5 12 1.5C14.4688 1.5 16.6875 2.1875 18.6562 3.5625C20.6562 4.9375 22.0938 6.75 22.9688 9C22.2188 10.8438 21.0781 12.4219 19.5469 13.7344L16.6406 10.8281C16.8906 10.2344 17.0156 9.625 17.0156 9C17.0156 7.625 16.5156 6.45312 15.5156 5.48438C14.5469 4.48438 13.375 3.98438 12 3.98438Z"
      fill="currentColor"/>
  </symbol>

  <symbol id="visible" viewBox="0 0 24 17" fill="none">
    <path d="M9.89062 5.89062C10.4844 5.29688 11.1875 5 12 5C12.8125 5 13.5156 5.29688 14.1094 5.89062C14.7031 6.48438 15 7.1875 15 8C15 8.8125 14.7031 9.51562 14.1094 10.1094C13.5156 10.7031 12.8125 11 12 11C11.1875 11 10.4844 10.7031 9.89062 10.1094C9.29688 9.51562 9 8.8125 9 8C9 7.1875 9.29688 6.48438 9.89062 5.89062ZM8.4375 11.5625C9.4375 12.5312 10.625 13.0156 12 13.0156C13.375 13.0156 14.5469 12.5312 15.5156 11.5625C16.5156 10.5625 17.0156 9.375 17.0156 8C17.0156 6.625 16.5156 5.45312 15.5156 4.48438C14.5469 3.48438 13.375 2.98438 12 2.98438C10.625 2.98438 9.4375 3.48438 8.4375 4.48438C7.46875 5.45312 6.98438 6.625 6.98438 8C6.98438 9.375 7.46875 10.5625 8.4375 11.5625ZM5.29688 2.5625C7.29688 1.1875 9.53125 0.5 12 0.5C14.4688 0.5 16.7031 1.1875 18.7031 2.5625C20.7031 3.9375 22.1406 5.75 23.0156 8C22.1406 10.25 20.7031 12.0625 18.7031 13.4375C16.7031 14.8125 14.4688 15.5 12 15.5C9.53125 15.5 7.29688 14.8125 5.29688 13.4375C3.29688 12.0625 1.85938 10.25 0.984375 8C1.85938 5.75 3.29688 3.9375 5.29688 2.5625Z"
      fill="currentColor"/>
  </symbol>
  <symbol id="brush" viewBox="0 0 17 16" fill="none">
    <path d="M16.2656 1.86719C16.4219 2.02344 16.5 2.21875 16.5 2.45312C16.5 2.6875 16.4219 2.88281 16.2656 3.03906L8.80469 10.5L6.5 8.19531L13.9609 0.734375C14.1172 0.578125 14.3125 0.5 14.5469 0.5C14.7812 0.5 14.9766 0.578125 15.1328 0.734375L16.2656 1.86719ZM3.0625 10.4219C3.55729 9.92708 4.14323 9.67969 4.82031 9.67969C5.4974 9.67969 6.08333 9.92708 6.57812 10.4219C7.07292 10.9167 7.32031 11.5026 7.32031 12.1797C7.32031 13.0911 6.99479 13.8724 6.34375 14.5234C5.69271 15.1745 4.91146 15.5 4 15.5C2.64583 15.5 1.53906 14.9401 0.679688 13.8203C1.07031 13.8203 1.4349 13.6771 1.77344 13.3906C2.13802 13.0781 2.32031 12.6745 2.32031 12.1797C2.32031 11.5026 2.56771 10.9167 3.0625 10.4219Z"
      fill="currentColor"/>
  </symbol>
  <symbol id="language" viewBox="0 0 18 18" fill="none">
    <path d="M12.6328 10.6797H15.4453C15.6016 9.95052 15.6797 9.39062 15.6797 9C15.6797 8.60938 15.6016 8.04948 15.4453 7.32031H12.6328C12.7109 7.86719 12.75 8.42708 12.75 9C12.75 9.57292 12.7109 10.1328 12.6328 10.6797ZM11.1484 15.2891C11.7995 15.0807 12.4766 14.6901 13.1797 14.1172C13.8828 13.5182 14.4167 12.9193 14.7812 12.3203H12.3203C12.0599 13.362 11.6693 14.3516 11.1484 15.2891ZM10.9531 10.6797C11.0312 10.1328 11.0703 9.57292 11.0703 9C11.0703 8.42708 11.0312 7.86719 10.9531 7.32031H7.04688C6.96875 7.86719 6.92969 8.42708 6.92969 9C6.92969 9.57292 6.96875 10.1328 7.04688 10.6797H10.9531ZM9 15.6406C9.72917 14.5729 10.263 13.4661 10.6016 12.3203H7.39844C7.73698 13.4661 8.27083 14.5729 9 15.6406ZM5.67969 5.67969C5.99219 4.5599 6.38281 3.57031 6.85156 2.71094C6.20052 2.91927 5.51042 3.32292 4.78125 3.92188C4.07812 4.49479 3.55729 5.08073 3.21875 5.67969H5.67969ZM3.21875 12.3203C3.55729 12.9193 4.07812 13.5182 4.78125 14.1172C5.51042 14.6901 6.20052 15.0807 6.85156 15.2891C6.33073 14.3516 5.9401 13.362 5.67969 12.3203H3.21875ZM2.55469 10.6797H5.36719C5.28906 10.1328 5.25 9.57292 5.25 9C5.25 8.42708 5.28906 7.86719 5.36719 7.32031H2.55469C2.39844 8.04948 2.32031 8.60938 2.32031 9C2.32031 9.39062 2.39844 9.95052 2.55469 10.6797ZM9 2.35938C8.27083 3.42708 7.73698 4.53385 7.39844 5.67969H10.6016C10.263 4.53385 9.72917 3.42708 9 2.35938ZM14.7812 5.67969C14.4167 5.08073 13.8828 4.49479 13.1797 3.92188C12.4766 3.32292 11.7995 2.91927 11.1484 2.71094C11.6172 3.57031 12.0078 4.5599 12.3203 5.67969H14.7812ZM3.10156 3.14062C4.74219 1.5 6.70833 0.679688 9 0.679688C11.2917 0.679688 13.2448 1.5 14.8594 3.14062C16.5 4.75521 17.3203 6.70833 17.3203 9C17.3203 11.2917 16.5 13.2578 14.8594 14.8984C13.2448 16.513 11.2917 17.3203 9 17.3203C6.70833 17.3203 4.74219 16.513 3.10156 14.8984C1.48698 13.2578 0.679688 11.2917 0.679688 9C0.679688 6.70833 1.48698 4.75521 3.10156 3.14062Z"
      fill="currentColor"/>
  </symbol>
  <symbol id="list" viewBox="0 0 16 10" fill="none">
    <path d="M3.82031 0.820312H15.5V2.5H3.82031V0.820312ZM3.82031 9.17969V7.5H15.5V9.17969H3.82031ZM3.82031 5.82031V4.17969H15.5V5.82031H3.82031ZM0.5 2.5V0.820312H2.17969V2.5H0.5ZM0.5 9.17969V7.5H2.17969V9.17969H0.5ZM0.5 5.82031V4.17969H2.17969V5.82031H0.5Z"
      fill="currentColor"/>
  </symbol>
  <symbol id="sliders" viewBox="0 0 122.23 122.88" style="width:24px;height:24px">
    <path class="ast0" d="M122.23 12.35v10.54c0 1.29-1.21 2.35-2.69 2.35H77.85c-2.84 5.92-8.89 10.01-15.9 10.01-7 0-13.05-4.09-15.89-10.01H2.69C1.22 25.24 0 24.18 0 22.89V12.35C0 11.06 1.21 10 2.69 10h43.37C48.9 4.08 54.95 0 61.95 0S75 4.09 77.84 10h41.69c1.49 0 2.7 1.06 2.7 2.35zM49.57 112.88c-2.84 5.92-8.89 10-15.9 10-7 0-13.05-4.08-15.89-10H2.69c-1.48 0-2.69-1.06-2.69-2.35V99.99c0-1.29 1.21-2.35 2.69-2.35h15.09c2.84-5.92 8.89-10.01 15.89-10.01s13.05 4.09 15.89 10.01h69.97c1.48 0 2.69 1.06 2.69 2.35v10.54c0 1.29-1.22 2.35-2.69 2.35H49.57zm54.55-43.15c-2.84 5.92-8.89 10.01-15.89 10.01s-13.05-4.09-15.9-10.01H2.69C1.22 69.73 0 68.67 0 67.38V56.85c0-1.29 1.21-2.35 2.69-2.35h69.64c2.84-5.92 8.89-10 15.89-10s13.05 4.09 15.89 10h15.42c1.48 0 2.69 1.06 2.69 2.35v10.53c0 1.29-1.21 2.35-2.69 2.35h-15.41z" fill="#4a90e2" clip-rule="evenodd" fill-rule="evenodd"/>
  </symbol>
  <svg id="diamond" viewBox="0 0 10 10" fill="none">
    <path d="M5 0L6.78571 3.21429L10 5L6.78571 6.78571L5 10L3.21429 6.78571L0 5L3.21429 3.21429L5 0Z" fill="currentColor"/>
  </svg>
  <svg id="bold" viewBox="0 0 10 12" fill="none">
    <path d="M6.25 9.92969C6.61458 9.92969 6.91406 9.8125 7.14844 9.57812C7.38281 9.31771 7.5 9.01823 7.5 8.67969C7.5 8.34115 7.38281 8.05469 7.14844 7.82031C6.91406 7.5599 6.61458 7.42969 6.25 7.42969H3.32031V9.92969H6.25ZM3.32031 2.42969V4.92969H5.82031C6.15885 4.92969 6.44531 4.8125 6.67969 4.57812C6.9401 4.31771 7.07031 4.01823 7.07031 3.67969C7.07031 3.34115 6.9401 3.05469 6.67969 2.82031C6.44531 2.5599 6.15885 2.42969 5.82031 2.42969H3.32031ZM8.00781 5.98438C9.20573 6.53125 9.80469 7.48177 9.80469 8.83594C9.80469 9.72135 9.50521 10.4766 8.90625 11.1016C8.33333 11.7005 7.60417 12 6.71875 12H0.820312V0.320312H6.05469C6.99219 0.320312 7.77344 0.645833 8.39844 1.29688C9.04948 1.94792 9.375 2.74219 9.375 3.67969C9.375 4.61719 8.91927 5.38542 8.00781 5.98438Z" fill="currentColor"/>
  </svg>
  <svg id="italic" viewBox="0 0 10 12" fill="none">
    <path d="M3.32031 0.320312H10V2.82031H7.65625L4.84375 9.5H6.67969V12H0V9.5H2.34375L5.15625 2.82031H3.32031V0.320312Z" fill="currentColor"/>
  </svg>
  <svg id="restaurant" viewBox="0 0 24 24" fill="none">
    <path d="M0 0h24v24H0V0z" fill="none"/>
    <path d="M16 6v6c0 1.1.9 2 2 2h1v7c0 .55.45 1 1 1s1-.45 1-1V3.13c0-.65-.61-1.13-1.24-.98C17.6 2.68 16 4.51 16 6zm-5 3H9V3c0-.55-.45-1-1-1s-1 .45-1 1v6H5V3c0-.55-.45-1-1-1s-1 .45-1 1v6c0 2.21 1.79 4 4 4v8c0 .55.45 1 1 1s1-.45 1-1v-8c2.21 0 4-1.79 4-4V3c0-.55-.45-1-1-1s-1 .45-1 1v6z" fill="currentColor"/>
  </svg>
  <svg id="gift" viewBox="0 0 512 512" fill="none">
    <path d="M32 448c0 17.7 14.3 32 32 32h160V320H32v128zm256 32h160c17.7 0 32-14.3 32-32V320H288v160zm192-320h-42.1c6.2-12.1 10.1-25.5 10.1-40 0-48.5-39.5-88-88-88-41.6 0-68.5 21.3-103 68.3-34.5-47-61.4-68.3-103-68.3-48.5 0-88 39.5-88 88 0 14.5 3.8 27.9 10.1 40H32c-17.7 0-32 14.3-32 32v80c0 8.8 7.2 16 16 16h480c8.8 0 16-7.2 16-16v-80c0-17.7-14.3-32-32-32zm-326.1 0c-22.1 0-40-17.9-40-40s17.9-40 40-40c19.9 0 34.6 3.3 86.1 80h-86.1zm206.1 0h-86.1c51.4-76.5 65.7-80 86.1-80 22.1 0 40 17.9 40 40s-17.9 40-40 40z" fill="currentColor"></path>
  </svg>
  <svg id="calendar-circle-fill" viewBox="0 0 81 81" fill="none" xmlns="http://www.w3.org/2000/svg">
    <path d="M40.5 81.0001C32.4899 81.0001 24.6596 78.6248 17.9994 74.1746C11.3392 69.7244 6.14824 63.3992 3.0829 55.9987C0.0175488 48.5983 -0.784487 40.4551 0.778214 32.5989C2.34091 24.7427 6.19816 17.5263 11.8622 11.8623C17.5262 6.19823 24.7426 2.34098 32.5988 0.778277C40.4551 -0.784424 48.5983 0.0176031 55.9987 3.08295C63.3991 6.1483 69.7243 11.3393 74.1745 17.9995C78.6247 24.6597 81 32.4899 81 40.5001C80.9879 51.2376 76.717 61.5319 69.1244 69.1245C61.5318 76.7171 51.2375 80.9879 40.5 81.0001Z" fill="#4A90E2"/>
    <path d="M52.2227 53.2227V34.0274H27.7773V53.2227H52.2227ZM52.2227 25.2501C53.1523 25.2501 53.9727 25.6055 54.6836 26.3165C55.3945 27.0274 55.75 27.8477 55.75 28.7774V53.2227C55.75 54.1524 55.3945 54.9727 54.6836 55.6837C53.9727 56.3946 53.1523 56.7501 52.2227 56.7501H27.7773C26.793 56.7501 25.9453 56.4219 25.2344 55.7657C24.5781 55.0547 24.25 54.2071 24.25 53.2227V28.7774C24.25 27.8477 24.5781 27.0274 25.2344 26.3165C25.9453 25.6055 26.793 25.2501 27.7773 25.2501H29.5V21.7227H33.0273V25.2501H46.9727V21.7227H50.5V25.2501H52.2227ZM47.957 39.3594L37.5391 49.7774L31.9609 44.1993L33.8477 42.3126L37.5391 46.004L46.0703 37.4727L47.957 39.3594Z" fill="white"/>
  </svg>
  <svg id="note-circle-fill" viewBox="0 0 81 81" fill="none" xmlns="http://www.w3.org/2000/svg">
    <path d="M40.5 81.0001C32.4899 81.0001 24.6596 78.6248 17.9994 74.1746C11.3392 69.7244 6.14824 63.3992 3.0829 55.9987C0.0175488 48.5983 -0.784487 40.4551 0.778214 32.5989C2.34091 24.7427 6.19816 17.5263 11.8622 11.8623C17.5262 6.19823 24.7426 2.34098 32.5988 0.778277C40.4551 -0.784424 48.5983 0.0176031 55.9987 3.08295C63.3991 6.1483 69.7243 11.3393 74.1745 17.9995C78.6247 24.6597 81 32.4899 81 40.5001C80.9879 51.2376 76.717 61.5319 69.1244 69.1245C61.5318 76.7171 51.2375 80.9879 40.5 81.0001Z" fill="#4A90E2"/>
    <path d="M54.0273 51.5001V35.7501H46.9727V51.5001H54.0273ZM45.25 42.7227V35.7501H25.9727V42.7227H45.25ZM45.25 51.5001V44.5274H25.9727V51.5001H45.25ZM54.0273 26.9727C54.957 26.9727 55.75 27.3282 56.4062 28.0391C57.1172 28.7501 57.4727 29.5704 57.4727 30.5001V51.5001C57.4727 52.4297 57.1172 53.2501 56.4062 53.961C55.75 54.6719 54.957 55.0274 54.0273 55.0274H25.9727C25.043 55.0274 24.2227 54.6719 23.5117 53.961C22.8555 53.2501 22.5273 52.4297 22.5273 51.5001V30.5001C22.5273 29.5704 22.8555 28.7501 23.5117 28.0391C24.2227 27.3282 25.043 26.9727 25.9727 26.9727H54.0273Z" fill="white"/>
  </svg>
  <svg id="code-circle-fill" viewBox="0 0 81 81" fill="none" xmlns="http://www.w3.org/2000/svg">
    <path d="M40.5 81.0001C32.4899 81.0001 24.6596 78.6248 17.9994 74.1746C11.3392 69.7244 6.14825 63.3991 3.0829 55.9987C0.0175488 48.5983 -0.784487 40.4551 0.778214 32.5989C2.34091 24.7427 6.19816 17.5263 11.8622 11.8623C17.5262 6.19823 24.7426 2.34098 32.5988 0.778277C40.4551 -0.784424 48.5983 0.0176031 55.9987 3.08295C63.3991 6.1483 69.7243 11.3393 74.1745 17.9995C78.6247 24.6597 81 32.4899 81 40.5001C80.9879 51.2376 76.717 61.5319 69.1244 69.1245C61.5318 76.7171 51.2375 80.9879 40.5 81.0001V81.0001Z" fill="#4A90E2"/>
    <path d="M44.5117 49.0391L52.6328 41.0001L44.5117 32.961L46.9727 30.5001L57.4727 41.0001L46.9727 51.5001L44.5117 49.0391ZM35.4883 49.0391L33.0273 51.5001L22.5273 41.0001L33.0273 30.5001L35.4883 32.961L27.3672 41.0001L35.4883 49.0391Z" fill="white"/>
  </svg>
</svg>
