<svg width="125" height="37" viewBox="0 0 125 37" fill="none" xmlns="http://www.w3.org/2000/svg">
  <path d="M41.9205 16.4855C42.0655 16.7753 42.1742 17.1014 42.2828 17.4275C42.3915 17.7536 42.4278 18.0797 42.5002 18.4058C41.9205 18.6231 41.4133 18.7318 40.9785 18.8043C40.5437 18.8768 40.0365 18.913 39.5292 18.913C38.5872 18.913 37.7901 18.7681 37.1017 18.4782C36.4133 18.1884 35.8336 17.7536 35.3626 17.2101C34.8916 16.6666 34.5293 16.0145 34.2756 15.2898C34.022 14.5652 33.9133 13.7319 33.9133 12.8623C33.9133 11.9928 34.022 11.1957 34.2756 10.4348C34.5293 9.67392 34.8916 9.05799 35.3626 8.51451C35.8336 7.97104 36.4133 7.53626 37.1017 7.2464C37.7901 6.95655 38.5872 6.77539 39.4568 6.77539C39.964 6.77539 40.4713 6.81162 40.906 6.88409C41.3408 6.95655 41.8118 7.10148 42.3191 7.28263C42.2828 7.60872 42.2466 7.9348 42.1379 8.22466C42.0292 8.55074 41.9205 8.8406 41.7756 9.16668C41.3771 9.02175 41.051 8.94929 40.7611 8.87683C40.4713 8.8406 40.1089 8.80436 39.7104 8.80436C38.6597 8.80436 37.8626 9.13045 37.3191 9.81885C36.7756 10.5073 36.4858 11.5217 36.4858 12.8623C36.4858 15.5072 37.609 16.8478 39.8553 16.8478C40.2539 16.8478 40.6162 16.8116 40.906 16.7753C41.1959 16.7029 41.522 16.5942 41.9205 16.4855Z" fill="#4A90E2"/>
  <path d="M43.7678 10.2535C44.1664 10.181 44.5287 10.1448 44.9272 10.1448C45.3258 10.1448 45.6881 10.181 46.0866 10.2535V14.7462C46.0866 15.181 46.1229 15.5433 46.1953 15.8331C46.2678 16.123 46.3765 16.3404 46.5214 16.5215C46.6664 16.7027 46.8475 16.8114 47.0649 16.8839C47.2823 16.9563 47.5359 16.9926 47.8258 16.9926C48.2243 16.9926 48.5504 16.9563 48.8403 16.8839V10.2535C49.2388 10.181 49.6011 10.1448 49.9997 10.1448C50.3982 10.1448 50.7605 10.181 51.1591 10.2535V18.3694C50.7968 18.4781 50.362 18.623 49.7823 18.7317C49.2026 18.8404 48.6229 18.9128 48.0069 18.9128C47.4635 18.9128 46.92 18.8766 46.4127 18.7679C45.9055 18.6955 45.4345 18.4781 45.0722 18.2244C44.6736 17.9346 44.3838 17.536 44.1664 16.9926C43.949 16.4491 43.8403 15.7245 43.8403 14.8187V10.2535H43.7678Z" fill="#4A90E2"/>
  <path d="M53.189 6.77544C53.5875 6.70298 53.9498 6.66675 54.3484 6.66675C54.7107 6.66675 55.1092 6.70298 55.5078 6.77544V15.3624C55.5078 15.6884 55.544 15.9783 55.5803 16.1957C55.6165 16.4131 55.6889 16.558 55.7614 16.6667C55.8339 16.7754 55.9426 16.8478 56.0875 16.9203C56.2324 16.9565 56.3774 16.9928 56.5947 16.9928C56.6672 16.9928 56.7759 16.9928 56.8846 16.9928C56.9933 16.9928 57.102 16.9565 57.1744 16.9565C57.2831 17.3913 57.3556 17.8261 57.3556 18.2609C57.3556 18.3333 57.3556 18.442 57.3556 18.5145C57.3556 18.587 57.3556 18.6594 57.3194 18.7681C57.1382 18.8044 56.9208 18.8768 56.7034 18.8768C56.4498 18.9131 56.2324 18.9131 56.015 18.9131C55.1817 18.9131 54.4933 18.6957 53.9861 18.2247C53.4788 17.7536 53.2252 16.9928 53.2252 15.9783V6.77544H53.189Z" fill="#4A90E2"/>
  <path d="M58.8053 12.0289H57.7546L57.6821 11.7028L60.7256 7.78979H61.0879V10.2535H63.0807C63.1169 10.4347 63.1531 10.5796 63.1531 10.6883C63.1531 10.8333 63.1531 10.942 63.1531 11.0869C63.1531 11.2318 63.1531 11.3767 63.1531 11.5217C63.1531 11.6666 63.1169 11.8115 63.0807 11.9927H61.0879V15.326C61.0879 15.6521 61.1241 15.9419 61.1604 16.1593C61.2328 16.3767 61.3053 16.5216 61.414 16.6666C61.5227 16.7753 61.6314 16.8839 61.8125 16.9202C61.9575 16.9564 62.1386 16.9926 62.356 16.9926C62.5372 16.9926 62.6821 16.9926 62.827 16.9564C62.972 16.9202 63.1169 16.9202 63.2256 16.8839C63.298 17.1013 63.3705 17.3187 63.4067 17.5361C63.443 17.7535 63.443 17.9709 63.443 18.1158C63.443 18.2245 63.443 18.3332 63.443 18.4057C63.443 18.4781 63.443 18.5506 63.4067 18.6593C62.8995 18.768 62.3922 18.8405 61.8488 18.8405C60.8705 18.8405 60.1096 18.6231 59.5662 18.1521C59.0589 17.681 58.7691 16.9202 58.7691 15.9057V12.0289H58.8053Z" fill="#4A90E2"/>
  <path d="M64.8552 6.95655C65.2175 6.88409 65.6161 6.84785 66.0509 6.81162C66.5219 6.77539 67.0654 6.77539 67.7538 6.77539C68.3697 6.77539 68.9132 6.81162 69.4566 6.92032C70.0001 7.02901 70.4711 7.17394 70.8697 7.42756C71.2682 7.64495 71.5943 7.97104 71.8117 8.36958C72.0291 8.76813 72.1378 9.23914 72.1378 9.85508C72.1378 10.2174 72.1016 10.5435 71.9929 10.8333C71.8842 11.1232 71.7392 11.3768 71.5943 11.6304C71.4132 11.8478 71.232 12.029 71.0146 12.1739C70.7972 12.3188 70.5798 12.4275 70.3624 12.4275C70.6161 12.4638 70.9059 12.5362 71.1958 12.6449C71.4856 12.7536 71.7755 12.9348 72.0291 13.1884C72.2827 13.4058 72.5001 13.7319 72.6813 14.0942C72.8624 14.4565 72.9349 14.9275 72.9349 15.4348C72.9349 16.1594 72.79 16.7391 72.5363 17.1739C72.2827 17.6087 71.9204 17.971 71.4494 18.2608C71.0146 18.5145 70.4711 18.6956 69.8914 18.8043C69.3117 18.913 68.6595 18.9492 68.0074 18.9492C67.5001 18.9492 67.0291 18.9492 66.5219 18.913C66.0146 18.8768 65.4712 18.8405 64.8552 18.7681V6.95655ZM67.9349 11.7029C68.2248 11.7029 68.4422 11.6667 68.6958 11.6304C68.9132 11.5942 69.1306 11.4855 69.3117 11.3768C69.4929 11.2681 69.6378 11.087 69.7103 10.8696C69.819 10.6522 69.8552 10.3986 69.8552 10.0725C69.8552 9.74639 69.7827 9.49277 69.674 9.31161C69.5653 9.09422 69.4204 8.94929 69.2393 8.8406C69.0581 8.7319 68.8407 8.65944 68.6233 8.62321C68.4059 8.58697 68.1885 8.55074 67.9712 8.55074C67.6813 8.55074 67.4277 8.55074 67.2103 8.58697V11.7391H67.9349V11.7029ZM67.2103 16.9203C67.3552 16.9565 67.5364 16.9565 67.7538 16.9565C67.9711 16.9565 68.1523 16.9565 68.2972 16.9565C68.5146 16.9565 68.7682 16.9203 69.0219 16.884C69.2755 16.8478 69.4929 16.7391 69.7103 16.6304C69.9277 16.5217 70.1088 16.3406 70.2537 16.1232C70.3987 15.9058 70.4711 15.6159 70.4711 15.2536C70.4711 14.9275 70.3987 14.6377 70.29 14.4203C70.1813 14.2029 70.0364 14.0217 69.819 13.8768C69.6016 13.7319 69.3842 13.6594 69.0943 13.5869C68.8045 13.5145 68.5146 13.5145 68.1885 13.5145H67.2103V16.9203Z" fill="#4A90E2"/>
  <path d="M78.2613 18.913C77.5729 18.913 76.9932 18.8043 76.486 18.587C75.9787 18.3696 75.5439 18.0435 75.2179 17.6449C74.8918 17.2464 74.6381 16.7754 74.457 16.2319C74.2758 15.6884 74.2034 15.1087 74.2034 14.4928C74.2034 13.8768 74.2758 13.2971 74.457 12.7537C74.6381 12.2102 74.8918 11.7392 75.2179 11.3406C75.5439 10.9421 75.9787 10.616 76.486 10.3986C76.9932 10.1812 77.5729 10.0725 78.2613 10.0725C78.9497 10.0725 79.5294 10.1812 80.0729 10.3986C80.5801 10.616 81.0149 10.9421 81.341 11.3406C81.6671 11.7392 81.9207 12.2102 82.1019 12.7537C82.283 13.2971 82.3555 13.8768 82.3555 14.4928C82.3555 15.1087 82.283 15.6884 82.1019 16.2319C81.9207 16.7754 81.7033 17.2464 81.341 17.6449C81.0149 18.0435 80.5801 18.3696 80.0729 18.587C79.5657 18.7681 78.9497 18.913 78.2613 18.913ZM78.2613 17.1377C78.8773 17.1377 79.312 16.9203 79.5657 16.4493C79.8193 16.0145 79.9642 15.3623 79.9642 14.4928C79.9642 13.6594 79.8193 13.0073 79.5657 12.5363C79.312 12.1015 78.8773 11.8479 78.2613 11.8479C77.6454 11.8479 77.2468 12.0653 76.957 12.5363C76.7034 12.971 76.5584 13.6232 76.5584 14.4928C76.5584 15.3261 76.7034 15.9783 76.957 16.4493C77.2468 16.9203 77.6816 17.1377 78.2613 17.1377Z" fill="#4A90E2"/>
  <path d="M87.7537 18.913C87.0653 18.913 86.4856 18.8043 85.9784 18.587C85.4712 18.3696 85.0364 18.0435 84.7103 17.6449C84.3842 17.2464 84.1306 16.7754 83.9494 16.2319C83.7683 15.6884 83.6958 15.1087 83.6958 14.4928C83.6958 13.8768 83.7683 13.2971 83.9494 12.7537C84.1306 12.2102 84.3842 11.7392 84.7103 11.3406C85.0364 10.9421 85.4712 10.616 85.9784 10.3986C86.4856 10.1812 87.0653 10.0725 87.7537 10.0725C88.4421 10.0725 89.0219 10.1812 89.5653 10.3986C90.0726 10.616 90.5074 10.9421 90.8334 11.3406C91.1595 11.7392 91.4131 12.2102 91.5943 12.7537C91.7755 13.2971 91.8479 13.8768 91.8479 14.4928C91.8479 15.1087 91.7755 15.6884 91.5943 16.2319C91.4131 16.7754 91.1958 17.2464 90.8334 17.6449C90.5074 18.0435 90.0726 18.3696 89.5653 18.587C89.0219 18.7681 88.4421 18.913 87.7537 18.913ZM87.7537 17.1377C88.3697 17.1377 88.8045 16.9203 89.0581 16.4493C89.3117 16.0145 89.4566 15.3623 89.4566 14.4928C89.4566 13.6594 89.3117 13.0073 89.0581 12.5363C88.8045 12.1015 88.3697 11.8479 87.7537 11.8479C87.1378 11.8479 86.7393 12.0653 86.4494 12.5363C86.1958 12.971 86.0509 13.6232 86.0509 14.4928C86.0509 15.3261 86.1958 15.9783 86.4494 16.4493C86.703 16.9203 87.1378 17.1377 87.7537 17.1377Z" fill="#4A90E2"/>
  <path d="M93.5144 6.77544C93.8767 6.70298 94.2753 6.66675 94.6738 6.66675C95.0724 6.66675 95.4347 6.70298 95.8332 6.77544V18.7319C95.4347 18.8044 95.0724 18.8406 94.6738 18.8406C94.2753 18.8406 93.913 18.8044 93.5144 18.7319V6.77544ZM96.1231 14.2754L98.2245 10.2537C98.6593 10.1812 99.0941 10.145 99.5289 10.145C99.9274 10.145 100.362 10.1812 100.725 10.2537L98.5506 14.1667L101.051 18.6957C100.616 18.7681 100.181 18.8044 99.7462 18.8044C99.3477 18.8044 98.9492 18.7681 98.5506 18.6957L96.1231 14.2754Z" fill="#4A90E2"/>
  <path d="M102.826 12.0288H101.739C101.703 11.8839 101.667 11.739 101.667 11.5941C101.667 11.4491 101.63 11.3042 101.63 11.1593C101.63 10.8694 101.667 10.5796 101.739 10.2897H105.109V18.7317C104.71 18.8042 104.348 18.8404 103.949 18.8404C103.587 18.8404 103.225 18.8042 102.826 18.7317V12.0288ZM102.5 8.84046C102.427 8.47814 102.391 8.11582 102.391 7.75351C102.391 7.39119 102.427 7.02887 102.5 6.66656C102.681 6.63032 102.898 6.59409 103.08 6.59409C103.297 6.59409 103.478 6.55786 103.659 6.55786C103.841 6.55786 104.058 6.55786 104.275 6.59409C104.493 6.59409 104.71 6.63032 104.891 6.66656C104.927 6.84771 104.964 7.02887 104.964 7.21003C104.964 7.39119 104.964 7.57235 104.964 7.75351C104.964 7.93466 104.964 8.11582 104.964 8.29698C104.964 8.47814 104.927 8.6593 104.891 8.84046C104.71 8.87669 104.493 8.91292 104.312 8.91292C104.094 8.91292 103.913 8.91292 103.732 8.91292C103.551 8.91292 103.369 8.91292 103.152 8.91292C102.898 8.87669 102.681 8.87669 102.5 8.84046Z" fill="#4A90E2"/>
  <path d="M107.392 10.2537C107.537 10.2174 107.681 10.1812 107.863 10.1812C108.008 10.1812 108.189 10.145 108.37 10.145C108.551 10.145 108.732 10.145 108.877 10.1812C109.022 10.1812 109.167 10.2174 109.312 10.2537C109.348 10.2899 109.384 10.3986 109.384 10.5073C109.421 10.616 109.421 10.7247 109.457 10.8334C109.493 10.9421 109.493 11.0508 109.529 11.1595C109.529 11.2682 109.566 11.3769 109.566 11.4493C109.674 11.2682 109.819 11.1232 109.964 10.9421C110.109 10.7609 110.29 10.616 110.508 10.5073C110.725 10.3624 110.942 10.2537 111.196 10.1812C111.45 10.1087 111.739 10.0725 112.029 10.0725C112.971 10.0725 113.696 10.3261 114.203 10.8696C114.674 11.3769 114.928 12.2102 114.928 13.3334V18.7319C114.529 18.8043 114.167 18.8406 113.768 18.8406C113.37 18.8406 113.008 18.8043 112.609 18.7319V13.9131C112.609 13.3334 112.537 12.8623 112.355 12.5725C112.174 12.2464 111.848 12.1015 111.413 12.1015C111.232 12.1015 111.051 12.1377 110.834 12.1739C110.652 12.2464 110.471 12.3189 110.29 12.5C110.145 12.645 110 12.8623 109.892 13.1522C109.783 13.4421 109.747 13.8044 109.747 14.2754V18.6956C109.348 18.7681 108.986 18.8043 108.587 18.8043C108.189 18.8043 107.826 18.7681 107.428 18.6956V10.2537H107.392Z" fill="#4A90E2"/>
  <path d="M121.703 17.2825C122.681 17.3187 123.406 17.5361 123.877 17.9346C124.348 18.3694 124.565 18.9491 124.565 19.71C124.565 20.181 124.456 20.5795 124.203 20.9419C123.949 21.3042 123.623 21.6303 123.225 21.8839C122.826 22.1375 122.319 22.3549 121.739 22.4998C121.159 22.6448 120.58 22.7172 119.928 22.7172C119.275 22.7172 118.732 22.681 118.261 22.5723C117.79 22.4636 117.428 22.3187 117.138 22.1375C116.848 21.9564 116.63 21.739 116.522 21.4491C116.413 21.1593 116.341 20.8694 116.341 20.5433C116.341 20.0361 116.449 19.6375 116.703 19.3477C116.92 19.0216 117.246 18.768 117.645 18.5143C117.391 18.3694 117.21 18.1883 117.065 17.9346C116.92 17.7172 116.848 17.4274 116.848 17.0651C116.848 16.6665 116.92 16.3042 117.101 16.0506C117.283 15.797 117.536 15.5433 117.862 15.2897C117.464 14.9999 117.174 14.6738 116.993 14.3115C116.775 13.9129 116.667 13.4781 116.667 13.0071C116.667 12.5724 116.739 12.1738 116.92 11.8115C117.101 11.4492 117.319 11.1231 117.645 10.8695C117.971 10.6158 118.333 10.3984 118.768 10.2535C119.203 10.1086 119.71 10.0361 120.254 10.0361C120.797 10.0361 121.304 10.1086 121.739 10.2898C122.21 10.4709 122.572 10.6883 122.899 10.9419C123.116 10.6521 123.37 10.4709 123.659 10.326C123.949 10.1811 124.384 10.1086 124.891 10.1086C124.927 10.2535 124.927 10.3984 124.964 10.5071C124.964 10.6521 125 10.797 125 10.9419C125 11.1231 125 11.3042 125 11.4492C125 11.6303 124.964 11.8115 124.927 11.9926H123.587C123.623 12.1013 123.696 12.2463 123.732 12.3912C123.768 12.5361 123.804 12.7535 123.804 13.0071C123.804 13.4419 123.732 13.8405 123.551 14.2028C123.406 14.5651 123.152 14.8912 122.862 15.1448C122.572 15.3984 122.174 15.6158 121.739 15.7607C121.304 15.9057 120.797 15.9781 120.254 15.9781C119.783 15.9781 119.348 15.9419 118.985 15.8332C118.804 15.9419 118.696 16.0868 118.659 16.2317C118.623 16.3767 118.587 16.4854 118.587 16.6303C118.587 16.8115 118.659 16.9564 118.768 17.0651C118.877 17.1738 119.13 17.2462 119.457 17.2462L121.703 17.2825ZM119.638 18.9854C119.384 18.9854 119.203 18.9854 119.058 19.0578C118.913 19.1303 118.768 19.2027 118.696 19.3114C118.587 19.4201 118.551 19.5288 118.514 19.6375C118.478 19.7462 118.442 19.8911 118.442 19.9998C118.442 20.3984 118.587 20.6882 118.913 20.8332C119.239 20.9781 119.638 21.0506 120.145 21.0506C120.833 21.0506 121.377 20.9419 121.812 20.7245C122.246 20.5071 122.427 20.2172 122.427 19.8549C122.427 19.7462 122.427 19.6375 122.391 19.5288C122.355 19.4201 122.319 19.3477 122.246 19.2752C122.174 19.2027 122.065 19.1303 121.92 19.0578C121.775 18.9854 121.594 18.9854 121.377 18.9854H119.638ZM120.29 14.5289C120.761 14.5289 121.087 14.3839 121.268 14.1303C121.485 13.8767 121.558 13.5144 121.558 13.0434C121.558 12.5723 121.449 12.21 121.268 11.9564C121.051 11.7028 120.725 11.5579 120.29 11.5579C119.819 11.5579 119.493 11.7028 119.275 11.9564C119.058 12.21 118.949 12.5723 118.949 13.0434C118.949 13.5144 119.058 13.8767 119.275 14.1303C119.493 14.4202 119.819 14.5289 120.29 14.5289Z" fill="#4A90E2"/>
  <path d="M24.0217 6.84797C23.1883 6.12334 21.8115 4.96393 20.5796 3.87698C20.0724 3.40597 19.6014 3.15234 19.0941 3.15234C18.1159 3.15234 17.0652 3.98567 16.2318 4.74654C17.6086 5.94218 20.3985 8.33347 21.7753 9.52912C22.6811 10.29 22.7535 10.8697 22.7535 11.5219V17.645C22.7535 19.0943 21.5579 20.2899 20.1086 20.2899H10.3985C8.94928 20.2899 7.75363 19.0943 7.75363 17.645V12.9711C7.24639 13.3697 6.59422 13.6233 5.86958 13.6233C5.28988 13.6233 4.7464 13.4421 4.27539 13.1885V17.6088C4.27539 20.9783 7.029 23.7319 10.3985 23.7319H20.0724C23.4419 23.7319 26.1956 20.9783 26.1956 17.6088V11.4856C26.1956 10.1813 25.9419 8.4784 24.0217 6.84797Z" fill="#4A90E2"/>
  <path d="M13.5506 4.56519C13.6231 4.49273 13.7318 4.38403 13.8767 4.23911C14.6738 3.40578 16.0144 1.99274 17.6086 1.44927C17.4637 1.30434 17.355 1.15941 17.21 1.01449L17.1013 0.942023C16.4854 0.398548 15.7245 0 14.6738 0C13.2246 0 12.4999 0.688402 11.6304 1.59419L5.76084 7.57242C5.65214 7.46372 5.50721 7.35503 5.39852 7.24633C5.32606 7.17387 5.25359 7.10141 5.18113 7.06518C5.1449 7.02894 5.10867 6.99271 5.07243 6.95648C3.62317 5.76084 1.77535 5.65214 0 7.35503C1.34057 8.29705 3.15216 9.85501 4.60142 11.2681C4.92751 11.5941 5.36229 11.7753 5.8333 11.7753C6.30431 11.7753 6.73909 11.5941 7.06518 11.2681L13.5506 4.56519Z" fill="#F7981C"/>
</svg>
