<svg width="834" height="744" viewBox="0 0 834 744" fill="none" xmlns="http://www.w3.org/2000/svg">
<path fill-rule="evenodd" clip-rule="evenodd" d="M224.241 529.056C183.45 495.504 140.336 460.463 123.309 410.442C105.733 358.81 114.592 302.224 129.099 249.558C143.821 196.115 165.35 142.274 207.209 105.867C248.466 69.983 303.869 52.5767 358.426 50.0969C408.578 47.8174 453.372 74.3796 500.112 92.5538C543.237 109.323 584.935 125.83 622.519 152.787C666.668 184.453 717.234 213.373 738.364 263.441C760.463 315.805 765.849 380.434 740.014 431.195C714.547 481.232 652.595 497.398 604.518 526.417C565.834 549.767 528.508 573.271 484.938 585.161C440.32 597.337 394.216 605.848 349.06 596.13C302.054 586.014 261.343 559.574 224.241 529.056Z" fill="#E5EFFB"/>
<g clip-path="url(#clip0)">
<path opacity="0.5" d="M376.455 165.194C404.156 154.954 390.104 128.719 368.065 139.385C366.312 136.015 364.28 132.797 361.988 129.768C367.23 124 375.015 116.747 369.093 111.802C355.587 100.355 347.752 105.302 342.127 112.128C338.85 110.21 335.418 108.572 331.866 107.23C333.481 99.9161 337.814 94.7706 330.117 92.9163C313.685 88.4019 306.658 94.0479 305.109 102.731C301.177 102.816 297.258 103.205 293.386 103.894C288.516 84.3286 260.233 96.2601 266.906 113.676C263.396 115.733 260.042 118.043 256.869 120.588C243.457 107.08 222.769 130.382 237.768 142.096C235.614 145.547 233.716 149.151 232.09 152.879C213.982 148.316 205.497 177.808 225.496 180.329C225.269 184.255 225.346 188.193 225.725 192.107C205.301 199.518 215.819 224.426 235.193 221.457C236.488 223.639 237.904 225.747 239.434 227.771C224.948 242.421 246.471 261.521 259.297 245.415C262.576 247.332 266.01 248.97 269.564 250.311C267.074 258.522 269.747 266.528 283.628 269.454C291.342 271.151 294.794 262.487 296.321 254.812C300.253 254.723 304.173 254.334 308.046 253.648C308.823 257.821 311.778 261.34 315.48 262.835C331.766 272.347 340.388 259.665 334.525 243.866C338.034 241.808 341.389 239.498 344.563 236.953C358.071 250.477 378.62 227.099 363.664 215.446C365.814 211.993 367.712 208.39 369.342 204.663C387.649 208.971 395.945 179.988 375.93 177.214C376.155 173.287 376.078 169.348 375.701 165.433C375.949 165.356 376.201 165.277 376.455 165.194ZM233.351 218.147C233.41 218.261 233.471 218.373 233.53 218.486C233.361 218.305 233.281 218.179 233.351 218.147ZM264.495 146.604C285.425 122.853 321.777 121.589 340.605 144.856C371.497 184.946 328.48 242.253 281.362 226.967V226.977C248.517 216.047 240.377 172.974 264.495 146.604Z" fill="#4A90E2"/>
<path d="M351.989 240.31C357.497 245.201 366.258 244.332 371.554 238.368C376.851 232.403 376.681 223.608 371.173 218.71C370.886 218.456 370.587 218.228 370.285 218.004C372.44 214.554 374.338 210.95 375.964 207.221C376.328 207.316 376.695 207.406 377.075 207.471C384.495 208.725 392.004 203.569 393.828 195.96C395.651 188.351 391.134 181.161 383.715 179.906C383.326 179.842 382.94 179.803 382.551 179.772C382.779 175.846 382.702 171.909 382.322 167.995C382.707 167.886 383.092 167.773 383.476 167.63C390.818 164.916 395.049 156.854 392.927 149.635C390.805 142.417 383.133 138.768 375.792 141.492C375.416 141.633 375.054 141.794 374.695 141.96C372.942 138.59 370.91 135.373 368.619 132.343C368.911 132.061 369.201 131.775 369.468 131.466C374.766 125.501 374.594 116.706 369.086 111.809C363.577 106.911 354.818 107.786 349.52 113.749C349.245 114.058 348.994 114.38 348.75 114.703C345.471 112.785 342.036 111.147 338.483 109.805C338.605 109.428 338.724 109.05 338.822 108.66C340.654 101.048 336.126 93.8612 328.707 92.6058C321.289 91.3504 313.787 96.5078 311.955 104.117C311.858 104.514 311.785 104.909 311.729 105.304C307.797 105.389 303.877 105.778 300.004 106.468C299.928 106.086 299.845 105.706 299.735 105.328C297.612 98.1093 289.941 94.4618 282.6 97.1847C275.259 99.9076 271.026 107.961 273.149 115.179C273.257 115.549 273.39 115.904 273.527 116.253C270.02 118.307 266.668 120.615 263.497 123.158C263.241 122.883 262.978 122.614 262.693 122.361C257.185 117.468 248.426 118.338 243.127 124.302C237.829 130.265 238.002 139.061 243.511 143.961C243.796 144.213 244.094 144.442 244.396 144.665C242.241 148.113 240.341 151.715 238.711 155.441C238.347 155.348 237.98 155.258 237.6 155.193C230.181 153.938 222.681 159.095 220.847 166.702C219.013 174.309 223.541 181.502 230.962 182.756C231.349 182.822 231.737 182.86 232.124 182.89C231.896 186.817 231.973 190.756 232.353 194.671C231.968 194.778 231.583 194.893 231.199 195.035C223.859 197.75 219.626 205.81 221.748 213.029C223.87 220.247 231.542 223.896 238.883 221.172C239.259 221.033 239.622 220.87 239.98 220.704C241.733 224.074 243.765 227.291 246.056 230.321C245.764 230.603 245.475 230.889 245.207 231.198C239.911 237.163 240.081 245.958 245.589 250.857C251.098 255.757 259.858 254.88 265.155 248.915C265.43 248.606 265.681 248.285 265.925 247.961C269.204 249.879 272.638 251.517 276.192 252.859C276.07 253.236 275.951 253.614 275.853 254.004C274.019 261.615 278.547 268.803 285.966 270.056C293.385 271.31 300.887 266.155 302.719 258.547C302.815 258.149 302.888 257.753 302.944 257.36C306.877 257.274 310.796 256.886 314.669 256.198C314.745 256.578 314.839 256.959 314.94 257.336C317.061 264.555 324.734 268.194 332.075 265.479C339.416 262.765 343.649 254.705 341.528 247.485C341.418 247.115 341.285 246.762 341.15 246.411C344.659 244.355 348.014 242.045 351.186 239.499C351.441 239.786 351.704 240.056 351.989 240.31ZM272.513 220.546C252.512 202.783 251.892 170.828 271.132 149.172C290.372 127.516 322.162 124.361 342.162 142.123C362.162 159.886 362.783 191.841 343.55 213.497C324.317 235.153 292.508 238.308 272.513 220.546Z" fill="#4A90E2"/>
<path opacity="0.5" d="M503.751 98.2773C522.921 91.2656 513.193 72.9264 497.928 80.3758C496.712 78.0381 495.302 75.8067 493.713 73.7051C497.348 69.6997 502.75 64.673 498.632 61.2409C489.263 53.3013 483.827 56.7333 479.925 61.4666C477.65 60.1372 475.266 59.0022 472.8 58.0736C473.919 52.9993 476.926 49.4299 471.585 48.1423C460.186 45.0122 455.312 48.9277 454.238 54.952C451.511 55.0115 448.792 55.2809 446.105 55.7579C442.728 42.1858 423.108 50.458 427.736 62.5439C425.303 63.9704 422.979 65.5728 420.78 67.3382C411.475 57.9667 397.127 74.1242 407.529 82.2674C406.035 84.6611 404.718 87.1611 403.589 89.7473C391.035 86.5799 385.148 107.04 399.019 108.789C398.862 111.513 398.916 114.245 399.178 116.961C385.021 121.991 392.37 139.465 405.747 137.319C406.644 138.833 407.625 140.295 408.686 141.699C398.636 151.863 413.566 165.111 422.463 153.936C424.739 155.265 427.122 156.4 429.588 157.329C429.503 157.592 429.419 157.857 429.356 158.125C428.083 163.404 430.104 168.702 439.345 170.608C444.456 171.663 446.721 166.555 447.997 161.277C448.063 161 448.111 160.725 448.153 160.452C450.881 160.391 453.6 160.121 456.286 159.645C456.554 161.05 457.166 162.367 458.066 163.479C458.966 164.59 460.127 165.462 461.445 166.017C472.74 172.616 478.724 163.82 474.656 152.859C477.087 151.43 479.411 149.828 481.611 148.064C491.01 157.448 505.228 141.212 494.863 133.135C496.355 130.74 497.671 128.239 498.802 125.654C511.466 128.65 517.294 108.56 503.372 106.61C503.528 103.886 503.475 101.154 503.213 98.4384C503.396 98.3909 503.573 98.3366 503.751 98.2773ZM404.477 135.013C404.517 135.093 404.561 135.171 404.602 135.249C404.477 135.124 404.427 135.037 404.477 135.013ZM426.082 85.3839C440.602 68.9057 465.82 68.0303 478.882 84.1709C500.365 111.861 470.347 151.822 437.784 141.128V141.136C414.995 133.556 409.351 103.677 426.08 85.3839H426.082Z" fill="#F7981C"/>
<path d="M486.777 150.389C490.598 153.782 496.675 153.18 500.349 149.042C504.024 144.904 503.912 138.798 500.085 135.405C499.886 135.236 499.679 135.066 499.469 134.917C500.963 132.523 502.28 130.022 503.408 127.435C503.661 127.501 503.917 127.564 504.18 127.605C509.325 128.475 514.529 124.901 515.801 119.619C517.073 114.338 513.935 109.354 508.786 108.483C508.516 108.438 508.246 108.411 507.978 108.39C508.136 105.666 508.083 102.934 507.819 100.218C508.087 100.143 508.353 100.064 508.62 99.9653C513.709 98.0788 516.648 92.4906 515.177 87.4825C513.706 82.4744 508.391 79.9432 503.289 81.8297C503.028 81.9264 502.78 82.0401 502.528 82.1555C501.313 79.817 499.903 77.5849 498.313 75.4831C498.515 75.288 498.717 75.0895 498.907 74.8741C502.582 70.7363 502.47 64.6306 498.641 61.2376C494.812 57.8446 488.744 58.4469 485.069 62.5846C484.879 62.7984 484.704 63.0223 484.535 63.2463C482.259 61.9179 479.875 60.7829 477.409 59.8533C477.494 59.592 477.579 59.329 477.642 59.0593C478.912 53.7798 475.775 48.7938 470.625 47.9235C465.474 47.0532 460.276 50.6277 459.004 55.9072C458.936 56.1837 458.888 56.4586 458.846 56.7317C456.118 56.791 453.399 57.061 450.713 57.5392C450.66 57.2746 450.603 57.0099 450.526 56.7487C449.054 51.7406 443.74 49.2111 438.639 51.0976C433.538 52.9841 430.613 58.5707 432.085 63.5788C432.16 63.835 432.255 64.0877 432.347 64.3235C429.914 65.7505 427.59 67.3534 425.391 69.1196C425.221 68.9295 425.031 68.7412 424.833 68.5665C421.012 65.1735 414.936 65.7758 411.261 69.9135C407.586 74.0513 407.698 80.1553 411.526 83.55C411.724 83.7197 411.931 83.8893 412.14 84.0386C410.647 86.4326 409.331 88.9325 408.202 91.5185C407.949 91.454 407.693 91.3912 407.43 91.3488C402.283 90.4785 397.082 94.053 395.809 99.3326C394.537 104.612 397.675 109.6 402.824 110.47C403.094 110.516 403.362 110.541 403.632 110.563C403.474 113.287 403.526 116.018 403.79 118.734C403.523 118.808 403.257 118.888 402.99 118.988C397.901 120.873 394.963 126.463 396.433 131.471C397.904 136.479 403.22 139.009 408.321 137.122C408.582 137.025 408.83 136.913 409.083 136.798C410.298 139.136 411.709 141.367 413.298 143.469C413.095 143.664 412.895 143.862 412.705 144.076C409.03 148.214 409.142 154.32 412.969 157.714C416.797 161.109 422.868 160.505 426.541 156.367C426.731 156.152 426.906 155.93 427.076 155.706C429.351 157.035 431.735 158.17 434.201 159.099C434.116 159.36 434.031 159.623 433.969 159.894C432.698 165.174 435.835 170.16 440.985 171.03C446.136 171.9 451.334 168.326 452.606 163.045C452.673 162.77 452.72 162.495 452.764 162.222C455.491 162.163 458.21 161.893 460.895 161.414C460.95 161.677 461.007 161.942 461.084 162.203C462.556 167.211 467.878 169.742 472.971 167.856C478.064 165.969 481.001 160.381 479.528 155.373C479.453 155.115 479.358 154.864 479.265 154.627C481.698 153.201 484.023 151.599 486.221 149.832C486.397 150.026 486.587 150.212 486.777 150.389ZM431.641 136.679C417.767 124.356 417.336 102.189 430.679 87.1669C444.022 72.1444 466.083 69.9542 479.959 82.2759C493.835 94.5976 494.264 116.766 480.921 131.788C467.578 146.811 445.517 148.994 431.643 136.679H431.641Z" fill="#F7981C"/>
<path d="M766.96 443.883L227.408 439.22V453.019C227.408 456.765 229.761 459.949 232.948 460.518L385.518 487.69C387.324 488.013 389.164 488.099 390.991 487.945L761.096 456.963C764.4 456.687 766.96 453.492 766.96 449.645V443.883Z" fill="#CBCBCB"/>
<path d="M568.404 421.77L225.475 447.013C219.339 447.466 214.35 442.659 214.35 436.292V180.922C214.35 174.549 219.339 169.386 225.475 169.386L237.607 176.379L568.404 169.386C573.46 169.386 577.547 174.058 577.547 179.82V410.664C577.547 416.426 573.46 421.398 568.404 421.77Z" fill="#CBCBCB"/>
<path d="M573.872 421.77L230.943 447.013C224.807 447.466 219.818 442.665 219.818 436.292V180.922C219.818 174.549 224.807 169.386 230.943 169.386H573.872C578.928 169.386 583.015 174.058 583.015 179.82V410.664C583.015 416.426 578.928 421.398 573.872 421.77Z" fill="#E8E8E8"/>
<path d="M563.188 405.495L243.787 427.422C238.793 427.761 234.735 423.826 234.735 418.622V195.046C234.735 189.842 238.793 185.606 243.787 185.586L563.188 184.208C567.359 184.19 570.734 188.014 570.734 192.764V396.395C570.734 401.135 567.359 405.208 563.188 405.495Z" fill="white"/>
<path opacity="0.07" d="M357.068 206.568L270.869 206.792L270.855 198.574L357.056 198.601L357.068 206.568Z" fill="black"/>
<path opacity="0.07" d="M397.658 204.188L377.745 204.224L377.736 198.608L397.65 198.615L397.658 204.188Z" fill="black"/>
<path opacity="0.07" d="M397.67 211.933L377.757 212.024L377.748 206.411L397.662 206.358L397.67 211.933Z" fill="black"/>
<path opacity="0.07" d="M496.904 211.471L419.65 211.831L419.642 206.302L496.895 206.104L496.904 211.471Z" fill="black"/>
<path opacity="0.07" d="M509.583 218.832L433.098 219.409L433.09 213.909L509.575 213.492L509.583 218.832Z" fill="black"/>
<path opacity="0.07" d="M509.594 226.253L433.11 227.05L433.102 221.55L509.585 220.912L509.594 226.253Z" fill="black"/>
<path opacity="0.07" d="M509.605 233.673L433.122 234.691L433.114 229.193L509.597 228.333L509.605 233.673Z" fill="black"/>
<path opacity="0.07" d="M397.682 219.676L377.769 219.827L377.76 214.211L397.674 214.103L397.682 219.676Z" fill="black"/>
<path opacity="0.07" d="M397.694 227.42L377.78 227.627L377.772 222.013L397.686 221.847L397.694 227.42Z" fill="black"/>
<path opacity="0.07" d="M397.706 235.165L377.794 235.429L377.784 229.814L397.697 229.59L397.706 235.165Z" fill="black"/>
<path opacity="0.07" d="M397.718 242.907L377.806 243.23L377.798 237.616L397.709 237.334L397.718 242.907Z" fill="black"/>
<path opacity="0.07" d="M451.076 242.042L402.063 242.838L402.054 237.273L451.068 236.579L451.076 242.042Z" fill="black"/>
<path opacity="0.07" d="M397.73 250.652L377.818 251.032L377.809 245.416L397.721 245.079L397.73 250.652Z" fill="black"/>
<path opacity="0.07" d="M397.742 258.395L377.83 258.832L377.821 253.219L397.733 252.822L397.742 258.395Z" fill="black"/>
<path opacity="0.07" d="M397.753 266.139L377.842 266.635L377.833 261.019L397.745 260.566L397.753 266.139Z" fill="black"/>
<path opacity="0.07" d="M474.052 249.193L419.71 250.231L419.701 244.704L474.043 243.779L474.052 249.193Z" fill="black"/>
<path opacity="0.07" d="M502.295 256.096L433.158 257.616L433.149 252.116L502.287 250.74L502.295 256.096Z" fill="black"/>
<path opacity="0.07" d="M502.305 263.537L433.17 265.257L433.161 259.757L502.297 258.181L502.305 263.537Z" fill="black"/>
<path opacity="0.07" d="M397.765 273.882L377.853 274.435L377.845 268.821L397.757 268.309L397.765 273.882Z" fill="black"/>
<path opacity="0.07" d="M397.777 281.627L377.865 282.237L377.857 276.622L397.769 276.054L397.777 281.627Z" fill="black"/>
<path opacity="0.07" d="M397.789 289.371L377.877 290.04L377.869 284.424L397.781 283.796L397.789 289.371Z" fill="black"/>
<path opacity="0.07" d="M397.801 297.114L377.889 297.84L377.881 292.225L397.792 291.541L397.801 297.114Z" fill="black"/>
<path opacity="0.07" d="M397.813 304.858L377.903 305.642L377.893 300.027L397.804 299.284L397.813 304.858Z" fill="black"/>
<path opacity="0.07" d="M397.826 312.601L377.915 313.443L377.906 307.827L397.816 307.028L397.826 312.601Z" fill="black"/>
<path opacity="0.07" d="M397.838 320.346L377.926 321.245L377.918 315.63L397.83 314.773L397.838 320.346Z" fill="black"/>
<path opacity="0.07" d="M397.85 328.09L377.938 329.045L377.93 323.43L397.84 322.516L397.85 328.09Z" fill="black"/>
<path opacity="0.07" d="M397.862 335.833L377.95 336.848L377.942 331.232L397.853 330.26L397.862 335.833Z" fill="black"/>
<path opacity="0.07" d="M397.874 343.578L377.962 344.648L377.954 339.033L397.865 338.005L397.874 343.578Z" fill="black"/>
<path opacity="0.07" d="M397.886 351.321L377.974 352.45L377.965 346.835L397.877 345.748L397.886 351.321Z" fill="black"/>
<path opacity="0.07" d="M397.898 359.065L377.986 360.251L377.977 354.636L397.889 353.492L397.898 359.065Z" fill="black"/>
<path opacity="0.07" d="M397.91 366.81L377.998 368.053L377.989 362.438L397.901 361.235L397.91 366.81Z" fill="black"/>
<path opacity="0.07" d="M397.921 374.552L378.011 375.854L378.001 370.24L397.913 368.979L397.921 374.552Z" fill="black"/>
<path opacity="0.07" d="M397.933 382.297L378.023 383.656L378.013 378.04L397.925 376.722L397.933 382.297Z" fill="black"/>
<path opacity="0.07" d="M397.945 390.04L378.035 391.456L378.026 385.843L397.937 384.467L397.945 390.04Z" fill="black"/>
<path opacity="0.07" d="M397.957 397.784L378.047 399.259L378.038 393.643L397.949 392.211L397.957 397.784Z" fill="black"/>
<path opacity="0.07" d="M397.969 405.529L378.059 407.059L378.05 401.445L397.96 399.954L397.969 405.529Z" fill="black"/>
<path opacity="0.07" d="M456.176 204.086L401.867 204.181L401.859 198.617L456.167 198.634L456.176 204.086Z" fill="black"/>
<path opacity="0.07" d="M497.134 360.611L419.888 365.436L419.879 359.908L497.126 355.243L497.134 360.611Z" fill="black"/>
<path opacity="0.07" d="M509.812 367.239L433.334 372.239L433.326 366.738L509.804 361.898L509.812 367.239Z" fill="black"/>
<path opacity="0.07" d="M509.823 374.659L433.346 379.879L433.337 374.379L509.816 369.319L509.823 374.659Z" fill="black"/>
<path opacity="0.07" d="M542.791 379.735L468.294 385.035L468.285 379.608L542.782 374.463L542.791 379.735Z" fill="black"/>
<path opacity="0.07" d="M542.802 387.059L468.306 392.576L468.297 387.149L542.794 381.788L542.802 387.059Z" fill="black"/>
<path opacity="0.07" d="M542.813 394.385L468.318 400.115L468.309 394.688L542.806 389.112L542.813 394.385Z" fill="black"/>
<path opacity="0.07" d="M456.41 355.579L402.107 358.814L402.098 353.249L456.401 350.126L456.41 355.579Z" fill="black"/>
<path opacity="0.07" d="M497.007 278.583L419.757 280.953L419.749 275.424L496.999 273.217L497.007 278.583Z" fill="black"/>
<path opacity="0.07" d="M509.685 285.615L433.205 288.182L433.197 282.682L509.678 280.275L509.685 285.615Z" fill="black"/>
<path opacity="0.07" d="M509.697 293.036L433.217 295.823L433.209 290.325L509.689 287.695L509.697 293.036Z" fill="black"/>
<path opacity="0.07" d="M509.709 300.456L433.229 303.466L433.22 297.966L509.7 295.115L509.709 300.456Z" fill="black"/>
<path opacity="0.07" d="M451.181 310.348L402.171 312.418L402.163 306.854L451.173 304.886L451.181 310.348Z" fill="black"/>
<path opacity="0.07" d="M474.155 316.902L419.816 319.353L419.808 313.826L474.147 311.487L474.155 316.902Z" fill="black"/>
<path opacity="0.07" d="M502.397 323.07L433.264 326.389L433.256 320.889L502.39 317.713L502.397 323.07Z" fill="black"/>
<path opacity="0.07" d="M502.409 330.511L433.276 334.03L433.268 328.531L502.4 325.155L502.409 330.511Z" fill="black"/>
<path opacity="0.07" d="M517.747 337.128L449.446 340.802L449.437 335.336L517.738 331.804L517.747 337.128Z" fill="black"/>
<path opacity="0.07" d="M517.759 344.526L449.458 348.398L449.449 342.931L517.75 339.201L517.759 344.526Z" fill="black"/>
<path opacity="0.07" d="M456.281 272.257L401.976 273.767L401.968 268.201L456.273 266.806L456.281 272.257Z" fill="black"/>
<path opacity="0.07" d="M357.087 219.015L307.749 219.368L307.735 211.259L357.075 211.049L357.087 219.015Z" fill="black"/>
<path opacity="0.07" d="M294.988 219.462L304.28 219.394L304.268 211.273L294.974 211.313L294.988 219.462Z" fill="black"/>
<path opacity="0.07" d="M357.104 230.465L307.766 231.028L307.754 222.917L357.092 222.5L357.104 230.465Z" fill="black"/>
<path opacity="0.07" d="M295.005 231.173L304.298 231.067L304.285 222.946L294.993 223.026L295.005 231.173Z" fill="black"/>
<path opacity="0.07" d="M357.122 241.917L307.784 242.687L307.773 234.576L357.11 233.952L357.122 241.917Z" fill="black"/>
<path opacity="0.07" d="M295.023 242.885L304.315 242.741L304.303 234.62L295.012 234.739L295.023 242.885Z" fill="black"/>
<path opacity="0.07" d="M357.248 323.199L271.055 327.122L271.042 318.904L357.236 315.234L357.248 323.199Z" fill="black"/>
<path opacity="0.07" d="M357.266 335.647L307.932 338.119L307.92 330.008L357.255 327.682L357.266 335.647Z" fill="black"/>
<path opacity="0.07" d="M295.171 338.756L304.464 338.291L304.451 330.17L295.159 330.608L295.171 338.756Z" fill="black"/>
<path opacity="0.07" d="M357.285 347.098L307.951 349.777L307.937 341.666L357.271 339.133L357.285 347.098Z" fill="black"/>
<path opacity="0.07" d="M295.19 350.469L304.481 349.965L304.47 341.844L295.178 342.321L295.19 350.469Z" fill="black"/>
<path opacity="0.07" d="M357.302 358.549L307.968 361.435L307.956 353.324L357.29 350.583L357.302 358.549Z" fill="black"/>
<path opacity="0.07" d="M295.208 362.181L304.5 361.639L304.487 353.517L295.195 354.033L295.208 362.181Z" fill="black"/>
<path opacity="0.07" d="M357.139 253.446L270.943 255.156L270.93 246.938L357.127 245.479L357.139 253.446Z" fill="black"/>
<path opacity="0.07" d="M357.16 265.893L307.822 267.098L307.81 258.987L357.146 257.926L357.16 265.893Z" fill="black"/>
<path opacity="0.07" d="M295.061 267.41L304.354 267.183L304.341 259.062L295.049 259.262L295.061 267.41Z" fill="black"/>
<path opacity="0.07" d="M357.176 277.343L307.841 278.756L307.827 270.647L357.165 269.378L357.176 277.343Z" fill="black"/>
<path opacity="0.07" d="M295.079 279.123L304.371 278.856L304.359 270.735L295.068 270.974L295.079 279.123Z" fill="black"/>
<path opacity="0.07" d="M357.212 300.395L307.876 302.226L307.864 294.115L357.2 292.428L357.212 300.395Z" fill="black"/>
<path opacity="0.07" d="M295.117 302.699L304.409 302.354L304.395 294.233L295.103 294.55L295.117 302.699Z" fill="black"/>
<path opacity="0.07" d="M357.231 311.846L307.895 313.884L307.883 305.775L357.217 303.88L357.231 311.846Z" fill="black"/>
<path opacity="0.07" d="M295.134 314.412L304.426 314.028L304.414 305.907L295.122 306.265L295.134 314.412Z" fill="black"/>
<path opacity="0.07" d="M357.195 288.794L307.859 290.416L307.846 282.305L357.182 280.829L357.195 288.794Z" fill="black"/>
<path opacity="0.07" d="M295.098 290.835L304.39 290.53L304.378 282.409L295.084 282.687L295.098 290.835Z" fill="black"/>
<path opacity="0.07" d="M357.321 369.996L271.13 375.402L271.116 367.183L357.307 362.031L357.321 369.996Z" fill="black"/>
<path opacity="0.07" d="M357.339 382.443L308.005 385.763L307.993 377.652L357.327 374.478L357.339 382.443Z" fill="black"/>
<path opacity="0.07" d="M295.246 386.621L304.537 385.997L304.526 377.876L295.232 378.473L295.246 386.621Z" fill="black"/>
<path opacity="0.07" d="M357.356 393.894L308.024 397.421L308.012 389.312L357.345 385.929L357.356 393.894Z" fill="black"/>
<path opacity="0.07" d="M295.264 398.334L304.556 397.671L304.543 389.55L295.251 390.186L295.264 398.334Z" fill="black"/>
<path opacity="0.07" d="M357.375 405.346L308.042 409.081L308.029 400.97L357.363 397.379L357.375 405.346Z" fill="black"/>
<path opacity="0.07" d="M295.281 410.047L304.573 409.344L304.561 401.223L295.269 401.898L295.281 410.047Z" fill="black"/>
<path opacity="0.07" d="M367.849 404.592L365.951 404.737L365.632 198.605H367.53L367.849 404.592Z" fill="black"/>
<path d="M414.518 176.367C414.518 178.742 412.754 180.668 410.574 180.675C408.394 180.681 406.621 178.759 406.621 176.382C406.621 174.006 408.392 172.075 410.574 172.073C412.756 172.072 414.518 173.994 414.518 176.367Z" fill="white"/>
<path d="M590.03 420.37L227.408 446.942L385.522 475.104C387.327 475.426 389.167 475.512 390.995 475.359L766.963 443.885L595.798 420.55C593.887 420.289 591.953 420.229 590.03 420.37Z" fill="#E8E8E8"/>
<path opacity="0.6" d="M280.32 447.17L582.212 424.718L675.645 437.354L376.354 461.354L280.32 447.17Z" fill="#CBCBCB"/>
<path d="M571.563 337.504C572.107 337.918 572.728 338.221 573.389 338.395C574.05 338.57 574.739 338.612 575.417 338.519C576.094 338.427 576.747 338.202 577.338 337.857C577.928 337.513 578.445 337.055 578.858 336.51L579.427 335.764C579.84 335.22 580.143 334.599 580.317 333.938C580.491 333.277 580.533 332.588 580.441 331.91C580.349 331.233 580.124 330.58 579.779 329.99C579.434 329.399 578.977 328.882 578.432 328.469L494.652 264.78C493.553 263.945 492.167 263.581 490.799 263.767C489.431 263.953 488.193 264.676 487.358 265.775L486.791 266.521C486.377 267.065 486.074 267.686 485.9 268.347C485.726 269.008 485.684 269.697 485.776 270.374C485.868 271.052 486.093 271.704 486.437 272.295C486.782 272.885 487.239 273.402 487.783 273.816L571.563 337.504Z" fill="#D6D6D6"/>
<path d="M562.343 358.151L643.838 420.104C646.044 421.768 648.82 422.49 651.558 422.113C654.295 421.735 656.772 420.289 658.446 418.09L679.184 390.81C680.012 389.722 680.617 388.481 680.965 387.159C681.313 385.836 681.397 384.458 681.213 383.104C681.028 381.749 680.579 380.444 679.89 379.263C679.201 378.081 678.286 377.048 677.198 376.22L595.703 314.267C594.115 313.06 592.215 312.333 590.227 312.174C588.239 312.014 586.247 312.429 584.487 313.368C583.16 314.067 582.002 315.047 581.094 316.24L560.356 343.52C558.685 345.726 557.955 348.504 558.328 351.246C558.7 353.988 560.144 356.471 562.343 358.151Z" fill="#F6C88D"/>
<path d="M660.804 388.201C661.2 388.502 661.651 388.721 662.131 388.848C662.612 388.975 663.112 389.005 663.605 388.938C664.097 388.871 664.571 388.708 665 388.458C665.429 388.208 665.805 387.875 666.106 387.48C666.407 387.084 666.626 386.633 666.753 386.153C666.879 385.672 666.91 385.172 666.843 384.679C666.776 384.187 666.612 383.713 666.362 383.284C666.111 382.854 665.779 382.479 665.383 382.178L597.84 330.83C597.041 330.223 596.034 329.959 595.04 330.094C594.046 330.23 593.146 330.754 592.539 331.553C592.238 331.948 592.018 332.399 591.892 332.88C591.766 333.36 591.735 333.861 591.802 334.353C591.869 334.846 592.033 335.32 592.283 335.749C592.533 336.178 592.866 336.554 593.262 336.854L660.804 388.201Z" fill="#F4F4F4"/>
<path d="M646.415 407.127C646.81 407.428 647.261 407.648 647.741 407.774C648.222 407.901 648.722 407.931 649.215 407.865C649.707 407.798 650.181 407.634 650.61 407.384C651.04 407.134 651.415 406.801 651.716 406.406C652.323 405.607 652.588 404.6 652.452 403.606C652.317 402.612 651.792 401.712 650.993 401.104L583.457 349.756C582.659 349.15 581.652 348.885 580.658 349.021C579.664 349.156 578.765 349.681 578.158 350.479C577.857 350.875 577.637 351.325 577.51 351.806C577.384 352.286 577.353 352.787 577.42 353.279C577.487 353.772 577.65 354.246 577.9 354.675C578.151 355.104 578.483 355.48 578.879 355.781L646.415 407.127Z" fill="#F4F4F4"/>
<path d="M473.704 272.16L457.821 254.028C457.479 253.636 457.283 253.138 457.266 252.617C457.25 252.097 457.414 251.587 457.731 251.174L460.254 247.856L462.353 245.094L464.911 241.73C465.224 241.314 465.671 241.019 466.177 240.895C466.682 240.771 467.215 240.827 467.685 241.051L489.409 251.509C490.082 251.834 490.635 252.365 490.986 253.025L493.882 258.569C494.844 260.381 494.583 262.524 493.343 264.158L491.178 267.003L489.078 269.766L486.949 272.567C485.707 274.199 483.712 275.024 481.708 274.581L475.55 273.242C474.833 273.092 474.185 272.712 473.704 272.16Z" fill="#D6D6D6"/>
<path d="M665.947 249.284C665.807 246.231 660.241 243.177 658.087 245.352L624.903 278.703L591.039 269.712L581.878 235.896L617.461 203.925C619.613 201.762 615.764 196.695 612.71 196.571C605.076 196.249 597.46 197.567 590.378 200.437C583.296 203.307 576.912 207.662 571.655 213.208C554.951 230.772 552.534 256.939 564.16 277.019L449.364 384.407C447.485 386.209 445.984 388.368 444.951 390.758C443.918 393.148 443.373 395.721 443.349 398.325C443.324 400.928 443.821 403.511 444.809 405.92C445.797 408.329 447.257 410.516 449.103 412.352C450.949 414.188 453.142 415.636 455.556 416.612C457.969 417.588 460.553 418.071 463.155 418.034C465.758 417.997 468.327 417.44 470.711 416.396C473.096 415.351 475.247 413.841 477.039 411.953L583.931 296.671C604.445 308.404 631.046 305.478 648.51 287.924C659.554 276.849 666.607 263.761 665.947 249.284Z" fill="#C4C4C4"/>
<path d="M666.023 249.86C665.884 246.806 662.194 245.367 660.038 247.534L626.856 280.885L592.992 271.904L583.839 238.086L617.021 204.734C619.174 202.571 617.723 198.886 614.675 198.763C607.04 198.44 599.425 199.757 592.343 202.627C585.26 205.497 578.876 209.852 573.619 215.399C556.916 232.964 554.498 259.131 566.124 279.209L451.329 386.598C449.449 388.399 447.949 390.558 446.915 392.948C445.882 395.338 445.338 397.91 445.313 400.514C445.289 403.118 445.786 405.7 446.774 408.109C447.762 410.517 449.222 412.704 451.068 414.541C452.913 416.377 455.106 417.825 457.52 418.801C459.933 419.777 462.517 420.261 465.119 420.224C467.722 420.187 470.291 419.63 472.676 418.586C475.06 417.542 477.212 416.031 479.004 414.144L585.894 298.861C606.409 310.593 633.009 307.668 650.474 290.114C655.722 284.853 659.814 278.557 662.491 271.626C665.169 264.695 666.371 257.281 666.023 249.86Z" fill="#A0C4F0"/>
<path d="M580.825 284.132C581.936 285.238 582.695 286.649 583.004 288.186C583.314 289.723 583.161 291.317 582.565 292.767C581.969 294.217 580.956 295.458 579.654 296.333C578.353 297.207 576.821 297.676 575.253 297.68C573.685 297.684 572.151 297.223 570.846 296.355C569.54 295.488 568.52 294.252 567.917 292.805C567.313 291.358 567.152 289.765 567.453 288.226C567.755 286.687 568.507 285.273 569.612 284.161C570.347 283.423 571.219 282.837 572.18 282.436C573.141 282.035 574.171 281.827 575.213 281.824C576.254 281.822 577.285 282.024 578.248 282.42C579.211 282.816 580.086 283.398 580.825 284.132Z" fill="#F4F4F4"/>
<path d="M570.681 300.977L470.818 401.347C469.941 402.228 468.749 402.725 467.505 402.728C466.261 402.732 465.067 402.241 464.185 401.364C463.303 400.487 462.806 399.295 462.803 398.051C462.8 396.807 463.291 395.613 464.168 394.731L564.033 294.361L570.681 300.977Z" fill="#F4F4F4"/>
</g>
<defs>
<clipPath id="clip0">
<rect width="553" height="440.985" fill="white" transform="translate(213.96 47.0343)"/>
</clipPath>
</defs>
</svg>
