<?xml version="1.0" encoding="utf-8"?>
<!-- Generator: Adobe Illustrator 17.1.0, SVG Export Plug-In . SVG Version: 6.00 Build 0)  -->
<!DOCTYPE svg PUBLIC "-//W3C//DTD SVG 1.1//EN" "http://www.w3.org/Graphics/SVG/1.1/DTD/svg11.dtd">
<svg version="1.1" id="Layer_1" xmlns="http://www.w3.org/2000/svg" xmlns:xlink="http://www.w3.org/1999/xlink" x="0px" y="0px"
	 viewBox="0 0 847.6 594.1" enable-background="new 0 0 847.6 594.1" xml:space="preserve">
<g>
	<path fill="#E4EEFB" d="M750.7,519.6l-102.6-31.4c-10.8-3.3-28.2-3.3-39,0l-197.3,60.1c-10.8,3.3-10.8,8.6,0,11.9l102.6,31.4
		c10.8,3.3,28.2,3.3,39,0l197.3-60.1C761.5,528.2,761.5,522.9,750.7,519.6z"/>
	
		<ellipse transform="matrix(-0.997 -7.744433e-002 7.744433e-002 -0.997 1061.046 1125.3507)" fill="#C9DEF6" cx="552.3" cy="542.1" rx="22.5" ry="3.3"/>
	
		<ellipse transform="matrix(-0.9933 -0.1158 0.1158 -0.9933 1213.173 1135.0363)" fill="#C9DEF6" cx="639.5" cy="532.3" rx="20.4" ry="3"/>
	<g>
		<polygon fill="#E4EEFB" points="847.6,415.6 529.3,316.3 529.3,74.6 847.6,173.8 		"/>
	</g>
	<path fill="#E4EEFB" d="M295.9,414.7v64.2l149.8-46.8V368L295.9,414.7z"/>
	<path fill="#E4EEFB" d="M0,111.6v108L251.9,141V33L0,111.6z"/>
	<g>
		<polygon fill="#80B1EB" points="96.1,474.9 539.3,336.7 539.3,0 96.1,138.2 		"/>
	</g>
	<g>
		<polygon fill="#E4EEFB" points="126,496.4 569.2,358.2 569.2,21.5 126,159.7 		"/>
	</g>
	<path fill="#80B1EB" d="M549.1,44l-403,125.7c-3.6,1.1-6.5,4.9-6.5,8.5v26.9l416-129.8V48.5C555.6,44.9,552.7,42.9,549.1,44z"/>
	<path fill="#FFFFFF" d="M139.6,205.3V470c0,3.6,2.9,5.6,6.5,4.5l403-125.7c3.6-1.1,6.5-4.9,6.5-8.5V75.5L139.6,205.3z"/>
	<path fill="#E4EEFB" d="M299.5,235.6l-85.3,26.6c-4.2,1.3-7.6,5.8-7.6,10v27.9c0,4.2,3.4,6.5,7.6,5.2l85.3-26.6V235.6z"/>
	<path fill="#FFFFFF" d="M168.7,179.6c0,3.3-2.7,6.8-5.9,7.8c-3.3,1-5.9-0.8-5.9-4.1c0-3.3,2.7-6.8,5.9-7.8
		C166,174.4,168.7,176.3,168.7,179.6z"/>
	<path fill="#FFFFFF" d="M189.5,173.1c0,3.3-2.7,6.8-5.9,7.8c-3.3,1-5.9-0.8-5.9-4.1c0-3.3,2.7-6.8,5.9-7.8
		C186.8,168,189.5,169.8,189.5,173.1z"/>
	<path fill="#FFFFFF" d="M210.2,166.6c0,3.3-2.7,6.8-5.9,7.8c-3.3,1-5.9-0.8-5.9-4.1c0-3.3,2.7-6.8,5.9-7.8
		C207.6,161.5,210.2,163.3,210.2,166.6z"/>
	<path fill="#4A90E2" d="M537,64.6c0,5.7-4.6,11.7-10.3,13.5c-5.7,1.8-10.3-1.4-10.3-7.1c0-5.7,4.6-11.7,10.3-13.5
		C532.4,55.8,537,58.9,537,64.6z"/>
	<path fill="#4A90E2" d="M421.5,100.7c0,4.2-3.4,8.7-7.6,10l-177.1,55.3c-4.2,1.3-7.6-1-7.6-5.2l0,0c0-4.2,3.4-8.7,7.6-10
		l177.1-55.3C418.1,94.1,421.5,96.5,421.5,100.7L421.5,100.7z"/>
	<g>
		<path fill="#FFFFFF" d="M508,68.4c0,1.3-1.1,2.7-2.4,3.1l-29.6,9.2c-1.3,0.4-2.4-0.3-2.4-1.6l0,0c0-1.3,1.1-2.7,2.4-3.1l29.6-9.2
			C507,66.4,508,67.1,508,68.4L508,68.4z"/>
		<path fill="#FFFFFF" d="M496,82.7c0,1.3-1.1,2.7-2.4,3.1l-17.5,5.5c-1.3,0.4-2.4-0.3-2.4-1.6l0,0c0-1.3,1.1-2.7,2.4-3.1l17.5-5.5
			C494.9,80.7,496,81.4,496,82.7L496,82.7z"/>
	</g>
	<g>
		<path fill="#4A90E2" d="M439.5,102.2c0,0.9,0.8,1.5,1.7,1.2c0.9-0.3,1.7-1.3,1.7-2.2v-0.4l-3.4,1.1V102.2z"/>
		<path fill="#4A90E2" d="M446.4,96.2c-0.2,0-0.5-0.2-0.5-0.5c0-0.9,0-3.6,0-3.6c0-2.2-1.5-3.6-3.5-3.5c0-0.7-0.6-1.1-1.3-0.8
			c-0.7,0.2-1.3,1-1.3,1.7c-2,1.2-3.5,3.5-3.5,5.7c0,0,0,2.6,0,3.6c0,0.3-0.3,0.7-0.5,0.8c-0.5,0.3-0.8,0.9-0.8,1.4
			c0,0.7,0.6,1.1,1.3,0.9l4.7-1.5l4.7-1.5c0.7-0.2,1.3-1,1.3-1.7C447.2,96.6,446.9,96.3,446.4,96.2z"/>
	</g>
	<path fill="#13217D" d="M488.6,151.2c0,4.2-3.4,8.7-7.6,10L158.9,261.8c-4.2,1.3-7.6-1-7.6-5.2v-27.9c0-4.2,3.4-8.7,7.6-10
		L481,118.1c4.2-1.3,7.6,1,7.6,5.2V151.2z"/>
	<path fill="#FF5A5F" d="M624,169.9c0,4.2-3.4,8.7-7.6,10L294.3,280.3c-4.2,1.3-7.6-1-7.6-5.2v-27.9c0-4.2,3.4-8.7,7.6-10
		l322.1-100.4c4.2-1.3,7.6,1,7.6,5.2V169.9z"/>
	<path fill="#80B1EB" d="M488.6,273.9c0,4.2-3.4,8.7-7.6,10L158.9,384.4c-4.2,1.3-7.6-1-7.6-5.2v-27.9c0-4.2,3.4-8.7,7.6-10
		L481,240.9c4.2-1.3,7.6,1,7.6,5.2V273.9z"/>
	<path fill="#4A84E2" d="M543.9,317.7c0,4.2-3.4,8.7-7.6,10L214.2,428.4c-4.2,1.3-7.6-1-7.6-5.2v-27.9c0-4.2,3.4-8.7,7.6-10
		l322.1-100.7c4.2-1.3,7.6,1,7.6,5.2V317.7z"/>
	<path fill="#80B1EB" d="M194.9,231.6c0-1.4-0.3-2.7-1-3.8c-0.2-0.3-0.3-0.6-0.2-1c0-3.3,0-6.6,0.1-9.9c0-0.2,0-0.4,0-0.6
		c0-1.2-0.7-1.8-1.9-1.7c-0.3,0-0.6,0.2-0.9,0.3c-9,3.2-18,6.5-27.1,9.7c-0.2,0.1-0.4,0.1-0.5,0.2c-1.4,0.6-2.3,1.9-2.3,3.3
		c0,0.2,0,0.3,0,0.5c0,3.3,0,6.6-0.1,9.9c0,0.3,0,0.6-0.2,1c-0.6,1.3-0.9,2.5-1,3.8c0,0.4,0,0.8-0.1,1.1c0,0.1,0,0.3,0,0.4
		c0.1,0,0.1,0.1,0.1,0.1l0,0l0,0c0,0.1,0,0.1,0,0.2l0,0l0,0c0,0.1,0,0.1-0.1,0.2c0,3.3,0,6.6-0.1,10c0.1,0,0.2,0,0.3-0.1
		c1.4-0.5,2.9-1,4.3-1.5c0.3-0.1,0.4-0.3,0.4-0.6c0-0.7,0-1.4,0-2.1c0-0.3,0-0.6,0.1-0.9c0.1-0.5,0.4-0.8,0.8-1
		c0.2-0.1,0.3-0.1,0.5-0.2c7.5-2.7,14.9-5.3,22.4-8c1-0.4,1.4-0.2,1.4,0.9c0,0.2,0,0.4,0,0.6c0,0.6,0,1.2,0,1.8
		c0,0.4,0.1,0.5,0.5,0.3c1.4-0.5,2.8-1,4.2-1.5c0.1,0,0.2-0.1,0.3-0.2c0-3.3,0-6.7,0.1-10c-0.1,0-0.1-0.1,0-0.2c0-0.2,0-0.3,0-0.5
		C194.9,231.8,194.9,231.7,194.9,231.6z M162.6,227.6c0-0.7,0.2-1.1,0.9-1.3c9.3-3.3,18.5-6.6,27.8-9.9c0.7-0.3,0.9-0.1,0.9,0.6
		c0,3,0,5.9-0.1,8.9c0,0.1,0,0.2,0,0.4c-0.6-0.3-1.2-0.5-1.9-0.5c-0.2,0-0.2-0.1-0.2-0.3c0-0.9,0-1.7,0-2.6c0-0.7-0.3-1.1-0.8-1.2
		c-0.8-0.2-1.6,0-2.5,0.2c-2.5,0.6-5.1,1.5-7.6,2.9c-0.6,0.3-1.1,0.7-1.6,1.1c-0.1,0.1-0.2,0.2-0.3,0.1c-1-0.2-2,0-3.1,0.3
		c-2.2,0.6-4.4,1.4-6.5,2.5c-0.8,0.4-1.5,0.8-2.2,1.5c-0.5,0.5-0.8,1.1-0.8,1.7c0,0.9,0,1.7,0,2.6c0,0.3-0.1,0.4-0.3,0.6
		c-0.6,0.5-1.2,1.1-1.8,1.7c-0.1,0-0.1-0.2-0.1-0.3C162.5,233.6,162.6,230.6,162.6,227.6z M188.7,225.5c0,0.2,0,0.3-0.2,0.3
		c-3.2,0.2-6.6,1.3-9.9,2.4c-0.4,0.1-0.5,0.1-0.5-0.3c0-1,0-1,1-1.6c1.4-0.9,2.9-1.4,4.3-2c1.4-0.5,2.9-1,4.3-1.1c0,0,0.1,0,0.1,0
		c0.9-0.1,0.9-0.1,0.9,0.9C188.7,224.5,188.7,225,188.7,225.5z M166.1,231.6c0-0.3,0.1-0.5,0.4-0.7c0.8-0.6,1.6-1,2.4-1.4
		c0.8-0.4,1.7-0.7,2.3-0.9c1.6-0.6,3-1,4.4-1.2c1.1-0.1,1.2,0,1.1,1.2c0,0.2-0.1,0.2-0.3,0.3c-1.4,0.5-2.9,1.1-4.3,1.7
		c-1.9,0.8-3.8,1.7-5.7,2.9c-0.3,0.2-0.4,0.2-0.4-0.2C166.1,232.8,166.1,232.2,166.1,231.6z M161.1,244.8c0.1-1.3,0.2-2.6,0.6-4
		c0.6-2,1.9-3.6,3.6-4.9c1.7-1.3,3.4-2.2,5.2-3c3.5-1.6,7.1-2.9,10.6-4c2.5-0.8,5-1.5,7.4-1.5c1.5,0,2.9,0.2,3.8,1.3
		c0.7,0.8,0.9,1.9,1.1,3.1c0.1,0.5,0.1,1.1,0.1,1.7c0,0.3-0.1,0.4-0.4,0.5c-3.7,1.3-7.3,2.6-11,3.9c-1.6,0.6-3.2,1.2-4.8,1.7
		c-5.3,1.9-10.5,3.8-15.8,5.7C161.1,245.3,161.1,245.2,161.1,244.8z M193.5,241.3c0,0.3-0.1,0.4-0.3,0.5c-0.5,0.2-1,0.3-1.5,0.5
		c-0.2,0.1-0.3,0.1-0.3-0.2c0-0.6,0-1.2,0-1.8c-0.2-1.2-1-1.8-2.3-1.4c-0.2,0.1-0.5,0.2-0.7,0.2c-7.3,2.6-14.7,5.3-22,7.9
		c-0.5,0.2-1,0.4-1.5,0.7c-1,0.7-1.6,1.8-1.6,3.1c0,0.4,0,0.9,0,1.3c0,0.2,0,0.3-0.3,0.4c-0.5,0.2-1.1,0.4-1.6,0.6
		c-0.2,0.1-0.3,0-0.3-0.2c0-2,0-4,0-6c0-0.4,0.2-0.4,0.4-0.4c5-1.8,10-3.6,15-5.4c0.3-0.1,0.6-0.2,0.9-0.3
		c5.3-1.9,10.5-3.8,15.8-5.7c0.4-0.1,0.4-0.1,0.4,0.3C193.5,237.5,193.5,239.4,193.5,241.3z"/>
	<g>
		<path fill="#4A90E2" d="M25.2,144.6l0.6-0.2c1.6,7.3,6.7,11.3,12.8,9.3c6-2,11.1-9.3,12.8-17.7l0.3-0.1c2.2-0.7,5-11,1.1-9.9
			c0-0.6,0-1.1,0-1.7c0-9.3-5.5-13.4-13.5-10.8c-1.2,0.4-2.3,0.9-3.4,1.6c-0.8,0.5-1.4,1.4-1.9,2.6c-0.5,0.1-1,0.2-1.6,0.3
			c-4.7,1.5-8.4,7.1-8.4,12.5c0,0.8,0.2,2.7,0.4,4.8l-0.3,0.1C20.1,136.7,22.9,145.4,25.2,144.6z"/>
		<path fill="#4A90E2" d="M58.8,153.7c-6,0.5-9.9-0.3-9.9-0.3l-5.1,17.3l-3.9-7.8c2.6-1.8,2.6-5.5,2.6-5.5c0-3-7.8-0.4-7.8,2.6
			c0,0,0,3.7,2.6,3.8l-3.9,10.4l-5.1-14c0,0-3.9,3.3-9.9,6.8c-3.7,2.1-6.8,6.1-6.8,11.1v2.2c0,6.1,13.6,4.7,27.1,0.2
			c13.5-4.4,27.1-11.9,27.1-18v-2.2C65.7,155.3,62.6,153.4,58.8,153.7z"/>
	</g>
	<g>
		<path fill="#80B1EB" d="M269.6,194.1c0,1.5-1.2,3.2-2.8,3.6L211.5,215c-1.5,0.5-2.8-0.4-2.8-1.9l0,0c0-1.5,1.2-3.2,2.8-3.6
			l55.3-17.3C268.3,191.7,269.6,192.6,269.6,194.1L269.6,194.1z"/>
		<path fill="#80B1EB" d="M340.2,172.2c0,1.5-1.2,3.2-2.8,3.6l-55.3,17.3c-1.5,0.5-2.8-0.4-2.8-1.9l0,0c0-1.5,1.2-3.2,2.8-3.6
			l55.3-17.3C338.9,169.8,340.2,170.7,340.2,172.2L340.2,172.2z"/>
		<path fill="#80B1EB" d="M313.3,192.4c0,1.5-1.2,3.2-2.8,3.6l-99.1,30.9c-1.5,0.5-2.8-0.4-2.8-1.9l0,0c0-1.5,1.2-3.2,2.8-3.6
			l99.1-30.9C312.1,190,313.3,190.8,313.3,192.4L313.3,192.4z"/>
		<path fill="#80B1EB" d="M278.5,215c0,1.5-1.2,3.2-2.8,3.6l-64.2,20.1c-1.5,0.5-2.8-0.4-2.8-1.9l0,0c0-1.5,1.2-3.2,2.8-3.6
			l64.2-20.1C277.2,212.6,278.5,213.5,278.5,215L278.5,215z"/>
	</g>
	<g>
		<path fill="#FFFFFF" d="M268.2,316.7c0,1.5-1.2,3.2-2.8,3.6l-53.9,16.8c-1.5,0.5-2.8-0.4-2.8-1.9l0,0c0-1.5,1.2-3.2,2.8-3.6
			l53.9-16.8C266.9,314.3,268.2,315.2,268.2,316.7L268.2,316.7z"/>
		<path fill="#FFFFFF" d="M295,319.9c0,1.5-1.2,3.2-2.8,3.6L211.5,349c-1.5,0.5-2.8-0.4-2.8-1.9l0,0c0-1.5,1.2-3.2,2.8-3.6
			l80.8-25.4C293.8,317.6,295,318.4,295,319.9L295,319.9z"/>
		<path fill="#FFFFFF" d="M250.5,345.9c0,1.5-1.2,3.2-2.8,3.6l-36.3,11.3c-1.5,0.5-2.8-0.4-2.8-1.9l0,0c0-1.5,1.2-3.1,2.8-3.6
			l36.3-11.3C249.3,343.5,250.5,344.4,250.5,345.9L250.5,345.9z"/>
	</g>
	<g>
		<path fill="#FFFFFF" d="M150.5,86.1c0,1.9-1.5,3.9-3.4,4.5l-67.2,20.9c-1.9,0.6-3.4-0.5-3.4-2.4l0,0c0-1.9,1.5-3.9,3.4-4.5
			l67.2-20.9C149,83.2,150.5,84.2,150.5,86.1L150.5,86.1z"/>
		<path fill="#FFFFFF" d="M184,90.1c0,1.9-1.5,3.9-3.4,4.5L79.9,126.3c-1.9,0.6-3.4-0.5-3.4-2.4l0,0c0-1.9,1.5-3.9,3.4-4.5
			l100.6-31.7C182.4,87.2,184,88.2,184,90.1L184,90.1z"/>
	</g>
	<g>
		<path fill="#FFFFFF" d="M285.8,372.9c0,1.5-1.2,3.2-2.8,3.6l-58.2,18.2c-1.5,0.5-2.8-0.4-2.8-1.9l0,0c0-1.5,1.2-3.2,2.8-3.6
			L283,371C284.5,370.5,285.8,371.4,285.8,372.9L285.8,372.9z"/>
		<path fill="#FFFFFF" d="M285.8,384.8c0,1.5-1.2,3.2-2.8,3.6l-58.2,18.1c-1.5,0.5-2.8-0.4-2.8-1.9l0,0c0-1.5,1.2-3.2,2.8-3.6
			l58.2-18.2C284.5,382.4,285.8,383.3,285.8,384.8L285.8,384.8z"/>
		<path fill="#FFFFFF" d="M328.8,383.3c0,1.5-1.2,3.2-2.8,3.6l-101.2,31.5c-1.5,0.5-2.8-0.4-2.8-1.9l0,0c0-1.5,1.2-3.2,2.8-3.6
			L326,381.4C327.5,380.9,328.8,381.8,328.8,383.3L328.8,383.3z"/>
	</g>
	<g>
		<path fill="#FFFFFF" d="M706.5,266.6c0,1.5,1.2,3.2,2.8,3.6l58.2,18.2c1.5,0.5,2.8-0.4,2.8-1.9l0,0c0-1.5-1.2-3.2-2.8-3.6
			l-58.2-18.2C707.7,264.2,706.5,265,706.5,266.6L706.5,266.6z"/>
		<path fill="#FFFFFF" d="M706.5,278.4c0,1.5,1.2,3.2,2.8,3.6l58.2,18.1c1.5,0.5,2.8-0.4,2.8-1.9l0,0c0-1.5-1.2-3.2-2.8-3.6
			l-58.2-18.2C707.7,276,706.5,276.9,706.5,278.4L706.5,278.4z"/>
		<path fill="#FFFFFF" d="M663.5,276.9c0,1.5,1.2,3.2,2.8,3.6L767.4,312c1.5,0.5,2.8-0.4,2.8-1.9l0,0c0-1.5-1.2-3.2-2.8-3.6
			L666.2,275C664.7,274.6,663.5,275.4,663.5,276.9L663.5,276.9z"/>
	</g>
	<g>
		<path fill="#FFFFFF" d="M370.9,224c0,1.5-1.2,3.2-2.8,3.6l-64.6,20.1c-1.5,0.5-2.8-0.4-2.8-1.9l0,0c0-1.5,1.2-3.2,2.8-3.6
			l64.6-20.1C369.6,221.6,370.9,222.5,370.9,224L370.9,224z"/>
		<path fill="#FFFFFF" d="M414.7,222.5c0,1.5-1.2,3.2-2.8,3.6l-108.5,33.5c-1.5,0.5-2.8-0.4-2.8-1.9l0,0c0-1.5,1.2-3.2,2.8-3.6
			L412,220.6C413.5,220.1,414.7,220.9,414.7,222.5L414.7,222.5z"/>
		<path fill="#FFFFFF" d="M343.1,256.2c0,1.5-1.2,3.2-2.8,3.6l-36.9,11.6c-1.5,0.5-2.8-0.4-2.8-1.9l0,0c0-1.5,1.2-3.2,2.8-3.6
			l36.9-11.6C341.9,253.8,343.1,254.7,343.1,256.2L343.1,256.2z"/>
	</g>
	<g>
		<path fill="#FFFFFF" d="M700,160.6c0,1.5,1.2,3.2,2.8,3.6l64.6,20.1c1.5,0.5,2.8-0.4,2.8-1.9l0,0c0-1.5-1.2-3.2-2.8-3.6
			l-64.6-20.1C701.3,158.2,700,159,700,160.6L700,160.6z"/>
		<path fill="#FFFFFF" d="M656.1,159c0,1.5,1.2,3.2,2.8,3.6l108.5,33.5c1.5,0.5,2.8-0.4,2.8-1.9l0,0c0-1.5-1.2-3.2-2.8-3.6
			l-108.5-33.5C657.4,156.6,656.1,157.5,656.1,159L656.1,159z"/>
		<path fill="#FFFFFF" d="M727.8,192.8c0,1.5,1.2,3.2,2.8,3.6l36.9,11.6c1.5,0.5,2.8-0.4,2.8-1.9l0,0c0-1.5-1.2-3.2-2.8-3.6
			l-36.9-11.6C729,190.4,727.8,191.2,727.8,192.8L727.8,192.8z"/>
	</g>
	<g>
		<path fill="#F8A786" d="M629.2,276.4c-8.5-4.5-19.9-18.7-24.8-24.2c-3.1-3.5-28.1-55.7-28.1-55.7c0-0.1,0.1-2.6-0.2-3.9
			c-0.3-1.9-3.3-8.8-3.3-8.9c-0.3-0.9-1.3-1.3-2.2-1.1c-0.4-1-0.8-1.7-0.8-1.7c-0.4-0.9-1.5-1.2-2.3-0.8c-0.2,0.1-0.3,0.2-0.5,0.3
			c-0.1-0.2-0.1-0.3-0.2-0.3c-0.5-0.8-1.5-1.1-2.4-0.7c-0.8,0.5-1.1,1.5-0.7,2.4c0,0,0,0-0.1,0c-0.9,0.4-1.2,1.5-0.8,2.3
			c0,0,3.3,8.8,4.1,11c0,0-0.8,0.3-1.8,0.6c-0.8,0.2,2.5,3.6,3.1,3.8c-0.1,0.4,22.8,64.3,24.8,67c2.2,2.8,20,27.6,20,27.6
			s11.2-4.1,14.6-7.9C632.4,281.3,631,277.3,629.2,276.4z"/>
		<path fill="#393C4F" d="M660,525.2c0,0,1.4,4,1.7,7.6c0.1,1.1-2.9,4.1-7.3,3.2c-16-3.5-22.1-1.6-26-6.6c0-1.2,0-3.9,4.5-3.7
			c4.6,0.2,17.4,0.6,16.6,0.5L660,525.2z"/>
		<path fill="#393C4F" d="M576.8,533.9c0,0-0.5,6.1-0.4,7.6c0.1,1.5-3.1,5-8,3.7c-15.4-4-21.1-2.4-27.2-7.4
			c-0.1-2.6,2.2-4.8,7.1-4.7C553.8,533.1,576.8,533.9,576.8,533.9z"/>
		<path fill="#444758" d="M598.3,368c0,0-25.5,103.1-25.5,105.1s-13.2,62.7-13.2,62.7s5.2,3.8,17.7,2.2l22.3-72.3
			c0,0,26.2-60.7,32.3-67.7c6.1-7,2.3-20.7,2.3-20.7l-18.1-8.8"/>
		<path fill="#4A90E2" d="M600.3,276.2c2.9-1,6.3-5.3,7.1-7.9c0.8-2.5,7.4-2,7.4-2l10.1,7.2l4.3,10c0,0-0.9,9.1-1.5,9.3
			c-0.5,0.2-19.1-3.5-19.1-3.5L600.3,276.2z"/>
		<path fill="#444758" d="M661.9,528.4c0,0-5.3-46.1-10.7-75.2c-5.3-29.1,3.5-57.3-4.4-84.7c-1.9-6.6-4.3-14.2-10.7-17.2
			c-5.3-2.5-11.8-2.1-16.7,1.2c-4.9,3.2-10.2,8.5-10,14.3c0.1,2.3,0.3,5.6,0.5,9.6c2.3,2,3.8,5,3.8,9c0,20.6,9.9,49.8,10.2,70.4
			c0.8,5,20.3,69,21.4,72.5C646.6,531.9,661.9,528.4,661.9,528.4z"/>
		<path fill="#4A90E2" d="M605.9,281.4c-3.8,2.8-16.1,6.9-16.2,11.5c-0.3,19,1.8,25,3.3,34.4c1.5,9.3,4.2,20.6,4,40.6
			c24.3,7.9,42.1-3.1,48.3-4.6c0.5-18,3.9-62.3-0.4-73.5c-2.6-7-8.8-10.4-10.4-11.4c-1.9-1.7-4.2-3.1-6.6-4.4
			c-0.6-0.3-1.1-0.3-1.6-0.1c-0.2,0-0.5,0-0.7,0l-19.2,7.4L605.9,281.4z"/>
		<path fill="#F8A786" d="M587.4,278.8c-8.6-4.4-20.6-13.2-25.7-18.7c-3.8-4.2-24.9-40.2-29.5-48.7c1-3.8,0.8-4.8,0.5-5.5
			c0,0-1.6,0.4-1.6,0.4c-0.7-2.3-2.5-10-2.5-10c-0.1-1-1-1.6-2-1.5c0,0-0.1,0-0.1,0c-0.1-0.9-1-1.6-1.9-1.5c-1,0.1-1.6,1-1.5,1.9
			c0,0,0,0.2,0,0.3c-0.2,0-0.4,0-0.6,0c-0.9,0.2-1.6,1.1-1.4,2c0,0.1,0.1,0.8,0.4,1.9c-0.9,0.3-1.4,1.2-1.1,2.1
			c0,0.1,1.6,6.1,2.4,7.8c0.6,1.2,2.8,5.4,3.1,6.2c8.7,27.3,22.7,56.4,24.8,59.1c2.2,2.8,20.9,22.2,20.9,22.2s10.6,1,14-2.9
			C590.2,288.9,589.2,279.7,587.4,278.8z"/>
		<path fill="#393C4F" d="M538.9,222.6c0,2.6-1.7,4.1-3.9,3.4c-2.2-0.7-3.9-3.4-3.9-6.1c0-2.6,1.8-4.1,3.9-3.4
			C537.1,217.3,538.9,220,538.9,222.6z"/>
		<polygon fill="#393C4F" points="528.1,223 536.7,218.8 538.5,221.9 529.2,226.4 		"/>
		<path fill="#4A90E2" d="M586.5,278.5c0,0-5.7,15.8-15.3,17.9l22.9,18.6l20.7-21.1l-7.9-9.3L586.5,278.5z"/>
		<path fill="none" stroke="#E4EEFB" stroke-linecap="round" stroke-linejoin="round" stroke-miterlimit="10" d="M602.6,282.8
			c0,0,3.5,1,6.9,1.5"/>
		<path fill="none" stroke="#737786" stroke-linecap="round" stroke-linejoin="round" stroke-miterlimit="10" d="M637.1,392.8
			c-6.1,18.8-13.5,13-20.4,35.4"/>
		<path fill="none" stroke="#E4EEFB" stroke-linecap="round" stroke-linejoin="round" stroke-miterlimit="10" d="M588.9,311.4
			c2.6,1.8,4.5,3.4,6.4,4.8"/>
		<g>
			<path fill="#F8A786" d="M627.2,279.3c0-0.1,0-0.2,0-0.2c0.1-0.7-0.2-1.7,0.2-2.3c1.2-2-1.8-3.8-3.1-2.1c0.2-7.6-0.7-13-0.8-13.3
				c-0.5-2.7-3-4.5-5.7-4c-2.7,0.5-4.5,3-4,5.7c0,0.1,0.3,2.8,0.5,6.7c-0.6,0.1-1.1,0.5-1.3,1.2c-0.7,2.4-0.3,5-0.3,7.5
				c0,2.1-0.7,3.7,1.4,4.9c1.8,1.1,4.3,0.9,6.3,0.7c2.3-0.2,5-0.4,6.7-2.2C628.1,281,627.9,279.9,627.2,279.3z"/>
			<path fill="#F8A786" d="M605.9,240.1c-6.5,0.1-6.9,2-5.6,12.4c-0.2,1.8-0.6,3.4-0.6,3.4s0.5,1.5,1.4,2.5
				c1,8.1,2.1,13.8,11.5,15.6c6.6,1.3,12.1-7.9,12-17.4C624.3,247.2,612.6,240,605.9,240.1z"/>
			<path fill="#393C4F" d="M635.1,254c-0.1-9.7-2.1-12.9-12.4-18.5s-18.1-13.6-18.8-12c-1.4,3-1,5.3-3.1,7.2
				c-2.1,1.9-2.1,9.6-0.4,15.8c0.7,1.8,1.5,3.6,2.4,5.2c0,0,0.1,0.1,0.1,0.1c0.7,1.3,1.6,2.4,2.5,3.5c0.6,0.5,1.2,1,1.7,1.6
				c0.3,0.3,0.6,0.5,0.8,0.8c0.5,0.5,0.9,0.9,1.2,1.5c0.6,0.9,0.5,2,0.6,3c0,0.2,0.1,0.4,0.1,0.6c0.1,0.5,0.3,1,0.6,1.4c0,0,0,0,0,0
				c0,0.1,0.1,0.1,0.1,0.2c0.4,0.6,1,1.1,1.6,1.5c0.4-0.3,0.7-0.9,0.8-1.7c0.5-3.6,4.6-1.1,2.9,3.8c-1,2.9,0.3,5.6,2.2,7.4
				c0.1,0.2,0.3,0.3,0.5,0.5c0.1,0.1,0.2,0.1,0.3,0.2c1,0.8,2.1,1.3,3,1.5c2.3,0.9,5.1,1.4,6.4,0.1c1.4-1.4,0.7-4.1,0.9-5.9
				C629.3,270.8,635.2,261.3,635.1,254z"/>
			<path fill="none" stroke="#FBD3C3" stroke-width="2" stroke-linecap="round" stroke-linejoin="round" stroke-miterlimit="10" d="
				M599.7,246.7c-0.3,2.3,0,1.5,0.5,5.7c-0.2,1.8-0.6,3.4-0.6,3.4s0.5,1.5,1.4,2.5c0.8,6.2,1.6,11.9,6.1,14"/>
		</g>
	</g>
	<path fill="#4A90E2" d="M454.7,126.2c0,4.6,3.7,7.6,8.4,6.7c4.6-0.9,8.4-5.4,8.4-10c0-4.6-3.7-7.6-8.4-6.7
		C458.4,117.1,454.7,121.6,454.7,126.2z"/>
	<path fill="#F43F7E" d="M210,46.2c0,6.7,5.4,11,12.1,9.6c6.7-1.3,12.1-7.8,12.1-14.5c0-6.7-5.4-11-12.1-9.6
		C215.4,33,210,39.5,210,46.2z"/>
	<path fill="#E4EEFB" d="M68.5,179v53.8c0,0-34.7-40.4-36.1-41.2C31,190.9,68.5,179,68.5,179z"/>
	<path fill="none" stroke="#A4C7F0" stroke-width="4" stroke-miterlimit="10" d="M820.4,224c0,2.3-1.8,3.5-4.1,2.6l-25.6-9.1
		c-2.3-0.8-4.1-3.3-4.1-5.6v-25.6c0-2.3,1.8-3.5,4.1-2.6l25.6,9.1c2.3,0.8,4.1,3.3,4.1,5.6V224z"/>
	<path fill="none" stroke="#A4C7F0" stroke-width="4" stroke-miterlimit="10" d="M820.4,275.2c0,2.3-1.8,3.5-4.1,2.6l-25.6-9.1
		c-2.3-0.8-4.1-3.3-4.1-5.6v-25.6c0-2.3,1.8-3.5,4.1-2.6l25.6,9.1c2.3,0.8,4.1,3.3,4.1,5.6V275.2z"/>
	<path fill="none" stroke="#A4C7F0" stroke-width="4" stroke-miterlimit="10" d="M820.4,326.4c0,2.3-1.8,3.5-4.1,2.6l-25.6-9.1
		c-2.3-0.8-4.1-3.3-4.1-5.6v-25.6c0-2.3,1.8-3.5,4.1-2.6l25.6,9.1c2.3,0.8,4.1,3.3,4.1,5.6V326.4z"/>
	<path fill="none" stroke="#A4C7F0" stroke-width="4" stroke-miterlimit="10" d="M820.4,377.6c0,2.3-1.8,3.5-4.1,2.6l-25.6-9.1
		c-2.3-0.8-4.1-3.3-4.1-5.6v-25.6c0-2.3,1.8-3.5,4.1-2.6l25.6,9.1c2.3,0.8,4.1,3.3,4.1,5.6V377.6z"/>
	<path fill="#FFFFFF" d="M593.4,174.4c0,0.5-0.4,1-0.9,1.2c-0.5,0.2-0.9-0.1-0.9-0.6s0.4-1,0.9-1.2
		C593,173.7,593.4,173.9,593.4,174.4z M589.7,177.4c0,0.1,0,0.2,0,0.2s-0.4-0.4-1.3-0.1c-1.5,0.5-2.7,2-2.7,3.6
		c0,1.6,1.1,2.4,2.6,1.9c0.9-0.3,1.3-1,1.3-1l0,0.2c0,0.1,0.1,0.2,0.2,0.1l1.1-0.4l0-5.2c0,0-1,0.3-1.1,0.4
		C589.8,177.2,589.7,177.3,589.7,177.4z M589.7,180.8c-0.2,0.4-0.6,0.8-1.1,0.9c-0.9,0.3-1.5,0-1.5-1c0-0.9,0.7-1.7,1.6-2
		c0.5-0.2,0.9,0,1.1,0.2L589.7,180.8z M591.9,176.5l1.3-0.4l0,5.2l-1.3,0.4L591.9,176.5z M611.6,170c-0.9,0.3-1.3,1-1.3,1l0-2.9
		l-1.3,0.4l-0.1,7.7c0,0,1-0.3,1.1-0.4c0.1,0,0.2-0.2,0.2-0.3l0-0.2l0,0c0,0,0.4,0.4,1.3,0.1c1.5-0.5,2.7-2,2.7-3.6
		C614.2,170.3,613.1,169.5,611.6,170z M611.3,174.3c-0.5,0.2-0.9,0-1.1-0.2l0-1.9c0.2-0.3,0.7-0.8,1.1-0.9c0.9-0.3,1.5,0,1.5,1
		C612.9,173.2,612.2,174,611.3,174.3z M608.2,173.3l0,3.1l-1.3,0.4l0-3c0-0.9-0.3-1.1-1-0.9c-0.4,0.1-0.8,0.5-1.1,0.9l0,3.6
		l-1.3,0.4l0-5.2l1-0.3c0.1,0,0.2,0,0.2,0.1l0,0.2c0.4-0.5,0.9-0.8,1.4-1c0.6-0.2,1.1-0.2,1.4,0C608.1,172,608.2,172.5,608.2,173.3z
		 M600.3,173.7c-0.9,0.3-1.3,1-1.3,1l0-2.9l-1.3,0.4l-0.1,7.7c0,0,1-0.3,1.1-0.4c0.1,0,0.2-0.2,0.2-0.3l0-0.2l0,0
		c0,0,0.4,0.4,1.3,0.1c1.5-0.5,2.7-2,2.7-3.6C603,174,601.8,173.2,600.3,173.7z M600,178c-0.5,0.2-0.9,0-1.1-0.2l0-1.9
		c0.2-0.3,0.7-0.8,1.1-0.9c0.9-0.3,1.5,0,1.5,1S600.9,177.7,600,178z M596.5,174.9c0.4-0.1,0.6-0.1,0.6-0.1l0,1.2c0,0-1.1,0-1.8,1
		l0,3.6l-1.3,0.4l0-5.2c0,0,1-0.3,1.1-0.4c0.1,0,0.2,0,0.2,0.1l0,0.2C595.6,175.5,596.1,175,596.5,174.9z M610.6,158.7
		c-0.1-0.2-0.2-0.5-0.3-0.7c-0.2-0.4-0.4-0.7-0.5-1l0,0c-1.6-3-3.3-6.1-5.1-9l-0.1-0.1c-0.2-0.3-0.4-0.6-0.6-0.9
		c-0.2-0.4-0.5-0.7-0.8-1c-0.7-0.7-1.8-0.9-3-0.5c-1.2,0.4-2.2,1.2-3,2.4c-0.4,0.5-0.6,1.1-0.9,1.6c-0.2,0.4-0.4,0.9-0.6,1.3
		l-0.1,0.2c-1.8,4.1-3.6,8.3-5.3,12.4l0,0.1c-0.2,0.4-0.4,0.9-0.6,1.4c-0.1,0.3-0.2,0.6-0.4,1c-0.3,1-0.4,1.8-0.3,2.7
		c0.2,1.7,1.4,2.8,3,2.9c0.6,0.1,1.2,0,1.9-0.2c0.2-0.1,0.4-0.2,0.6-0.2c0.8-0.3,1.6-0.9,2.4-1.6c1-0.9,1.9-1.9,2.9-3.4
		c1,0.8,2,1.3,2.9,1.5c0.8,0.2,1.6,0.2,2.3,0c0.2,0,0.4-0.1,0.6-0.2c0.7-0.2,1.3-0.5,1.9-1c1.7-1.2,2.8-3.1,3.1-4.9
		C611,160.3,610.9,159.5,610.6,158.7z M600,163.4c-1.3-1.2-2.1-2.4-2.3-3.6c-0.1-0.5-0.1-1-0.1-1.4c0.1-0.4,0.2-0.8,0.4-1.1
		c0.5-0.8,1.2-1.4,2.1-1.7c0.9-0.3,1.6-0.2,2.1,0.4c0.2,0.2,0.3,0.5,0.4,0.9c0.1,0.4,0,0.9-0.1,1.5
		C602.1,159.5,601.3,161.3,600,163.4z M609.4,161.4c-0.2,1.3-1,2.6-2.2,3.5c-0.6,0.4-1.2,0.7-1.8,0.8c-0.6,0.1-1.2,0.1-1.8,0
		c-0.8-0.2-1.7-0.7-2.7-1.4c1.6-2.4,2.5-4.5,2.9-6.2c0.2-0.8,0.2-1.5,0.1-2.1c-0.1-0.6-0.3-1-0.6-1.4c-0.7-0.8-1.9-1-3.3-0.6
		c-1.4,0.4-2.6,1.5-3.3,2.8c-0.3,0.6-0.5,1.2-0.6,1.8c-0.1,0.6-0.1,1.3,0.1,2c0.3,1.4,1.3,2.9,2.8,4.3c-1,1.4-1.8,2.4-2.7,3.2
		c-0.6,0.6-1.2,0.9-1.8,1.2c-0.6,0.3-1.2,0.4-1.8,0.3c-1.1-0.1-2-0.9-2.1-2.1c-0.1-0.6,0-1.2,0.2-1.9c0.1-0.3,0.2-0.5,0.3-0.9
		c0.2-0.4,0.4-0.9,0.5-1.4l0-0.1c1.6-4.1,3.4-8.2,5.3-12.3l0.1-0.2c0.2-0.4,0.4-0.9,0.6-1.3c0.2-0.4,0.4-0.9,0.7-1.3
		c0.5-0.7,1.2-1.3,1.9-1.5c0.7-0.2,1.4-0.1,1.9,0.3c0.3,0.2,0.5,0.5,0.6,0.8c0.2,0.3,0.4,0.6,0.6,0.9l0.1,0.1c1.8,3,3.5,6,5.1,9l0,0
		c0.2,0.3,0.3,0.7,0.5,1c0.1,0.2,0.2,0.4,0.3,0.7C609.4,160.2,609.5,160.8,609.4,161.4z"/>
	<g>
		<g>
			<path fill-rule="evenodd" clip-rule="evenodd" fill="#0C3678" d="M162.9,344.6l21.7-6.8c3.3-1,5.9,0.8,5.9,4.1l-0.1,21.8
				c0,3.3-2.7,6.9-6,7.9l-27.6,8.7l0.1-27.8C157,349.1,159.7,345.7,162.9,344.6z"/>
			<g>
				<path fill-rule="evenodd" clip-rule="evenodd" fill="#02000D" d="M175,357.2c1.1,0.2,1.8,0.7,2.2,1.7c0.7,2,0,5.2-3.4,7.1
					c-0.6,0.4-1.2,0.6-1.9,0.8c-1.9,0.6-3.7,1.2-5.6,1.8c-0.3,0.1-0.3,0-0.3-0.2c0-4.8,0-9.6,0.1-14.5c0-0.9,0.7-2,1.6-2.2
					c1.6-0.5,3.2-1.1,4.8-1.5c1.3-0.3,2.5-0.2,3.4,0.5c1.4,1.2,1.2,4-0.4,5.9C175.3,356.9,175.2,357,175,357.2L175,357.2z
					 M181,360.2c1.1-0.3,2,0.3,2,1.4s-0.9,2.3-2,2.7c-1.1,0.3-2-0.3-2-1.4C179,361.8,179.9,360.6,181,360.2L181,360.2z M169.2,363.1
					c0,0.5,0,1.1,0,1.6c0,0.2,0.1,0.3,0.3,0.2c0.9-0.3,1.7-0.5,2.6-0.8c1.3-0.4,2.1-1.5,2.1-2.9c0-1.3-0.8-1.9-2.1-1.5
					c-0.6,0.2-1.2,0.4-1.8,0.6c-0.7,0.2-1,0.7-1.1,1.4C169.2,362.1,169.2,362.6,169.2,363.1L169.2,363.1z M169.3,356.3
					c0,0.5,0,0.9,0,1.4c0,0.2,0,0.3,0.2,0.2c0.8-0.3,1.6-0.5,2.4-0.8c1.1-0.4,1.8-1.5,1.8-2.7c0-1.2-0.7-1.6-1.9-1.2
					c-0.4,0.1-0.9,0.3-1.3,0.4c-0.8,0.2-1.1,0.7-1.1,1.5C169.3,355.5,169.3,355.9,169.3,356.3z"/>
				<path fill-rule="evenodd" clip-rule="evenodd" fill="#FFFFFF" d="M175,357.1c1.1,0.2,1.8,0.7,2.2,1.7c0.7,2,0,5.2-3.4,7.1
					c-0.6,0.4-1.2,0.6-1.9,0.8c-1.9,0.6-3.7,1.2-5.6,1.8c-0.3,0.1-0.3,0-0.3-0.2c0-4.8,0-9.6,0.1-14.5c0-0.9,0.7-2,1.6-2.2
					c1.6-0.5,3.2-1.1,4.8-1.5c1.3-0.3,2.5-0.2,3.4,0.5c1.4,1.2,1.2,4-0.4,5.9C175.3,356.7,175.2,356.9,175,357.1L175,357.1z
					 M169.2,363c0,0.5,0,1.1,0,1.6c0,0.2,0.1,0.3,0.3,0.2c0.9-0.3,1.7-0.5,2.6-0.8c1.3-0.4,2.1-1.5,2.1-2.9c0-1.3-0.8-1.9-2.1-1.5
					c-0.6,0.2-1.2,0.4-1.8,0.6c-0.7,0.2-1,0.7-1.1,1.4C169.2,362,169.2,362.5,169.2,363L169.2,363z M169.3,356.2c0,0.5,0,0.9,0,1.4
					c0,0.2,0,0.3,0.2,0.2c0.8-0.3,1.6-0.5,2.4-0.8c1.1-0.4,1.8-1.5,1.8-2.7c0-1.2-0.7-1.6-1.9-1.2c-0.4,0.1-0.9,0.3-1.3,0.4
					c-0.8,0.2-1.1,0.7-1.1,1.5C169.3,355.4,169.3,355.8,169.3,356.2z"/>
				<path fill-rule="evenodd" clip-rule="evenodd" fill="#20A8E0" d="M181,364.2c1.1-0.3,2-1.5,2-2.7c0-1.1-0.9-1.7-2-1.4
					c-1.1,0.3-2,1.5-2,2.7C179,363.9,179.9,364.5,181,364.2z"/>
			</g>
		</g>
	</g>
	<g>
		<path fill="#FFFFFF" d="M531.6,308.2l2.8,1.2c0.3,0.1,0.3,0.4,0.1,0.9l-2.7,5.7c-0.2,0.4-0.4,0.5-0.8,0.6l-3.3-0.2
			c-0.9,1-1.6,1.7-2.3,2.2l-0.5,3.8c-0.1,0.4-0.3,0.7-0.6,0.8l-5.4,1.9c-0.3,0.1-0.5,0-0.6-0.4l-0.5-3.4c-0.8-0.1-1.5-0.2-2.3-0.5
			l-3.3,2.5c-0.4,0.3-0.6,0.3-0.8,0l-2.7-3.8c-0.2-0.3-0.2-0.6,0.1-0.9l2.8-3.3c0-0.3-0.1-0.7-0.1-1.3c0-0.6,0-1.1,0.1-1.4l-2.8-1.2
			c-0.3-0.1-0.3-0.4-0.1-0.9l2.7-5.7c0.2-0.4,0.4-0.5,0.8-0.6l3.3,0.2c0.9-1,1.6-1.7,2.3-2.2l0.5-3.8c0.1-0.4,0.3-0.7,0.6-0.8
			l5.4-1.9c0.3-0.1,0.5,0,0.6,0.4l0.5,3.4c0.8,0.1,1.5,0.2,2.3,0.5l3.3-2.5c0.4-0.3,0.6-0.3,0.8,0l2.7,3.8c0.2,0.3,0.2,0.6-0.1,0.9
			l-2.8,3.3c0,0.3,0.1,0.7,0.1,1.3C531.7,307.5,531.7,307.9,531.6,308.2z M518.1,315.8c1.1,0.7,2.3,0.8,3.9,0.3
			c1.5-0.5,2.8-1.5,3.9-3c1.1-1.5,1.6-3,1.6-4.5c0-1.5-0.5-2.7-1.6-3.4c-1.1-0.7-2.3-0.8-3.9-0.3c-1.5,0.5-2.8,1.5-3.9,3
			c-1.1,1.5-1.6,3-1.6,4.5C516.5,313.9,517,315.1,518.1,315.8z"/>
	</g>
</g>
</svg>
