<svg width="1345" height="343" viewBox="0 0 1345 343" fill="none" xmlns="http://www.w3.org/2000/svg">
<mask id="mask0_2037:2621" style="mask-type:alpha" maskUnits="userSpaceOnUse" x="0" y="0" width="1345" height="343">
<rect width="1345" height="343" fill="#4A90E2"/>
</mask>
<g mask="url(#mask0_2037:2621)">
<g opacity="0.1">
<path d="M1377.77 159.554C1365.68 149.58 1346.54 132.624 1328.41 117.663C1321.36 110.681 1314.31 107.689 1307.26 107.689C1293.16 107.689 1278.05 119.658 1266.97 129.632C1287.12 146.588 1326.4 180.5 1345.54 196.459C1358.63 207.43 1359.64 215.41 1359.64 224.386V310.164C1359.64 331.11 1342.52 347.068 1322.37 347.068H1185.39C1164.24 347.068 1148.12 330.112 1148.12 310.164V245.332C1141.07 251.317 1132 254.309 1121.93 254.309C1113.87 254.309 1105.82 252.314 1099.77 248.324V310.164C1099.77 358.04 1139.05 395.942 1186.39 395.942H1323.38C1371.73 395.942 1410 357.042 1410 310.164V224.386C1408.99 207.43 1405.97 183.492 1377.77 159.554Z" fill="white"/>
<path d="M1231.31 126.696C1232.32 125.701 1234.33 123.71 1235.34 121.72C1246.41 109.777 1265.54 89.8718 1288.7 81.9098C1286.69 79.9193 1284.67 77.9288 1282.66 75.9383L1281.65 74.943C1272.59 68.9715 1262.52 63 1247.42 63C1227.28 63 1216.21 72.9525 1204.12 84.8955L1121.56 169.492C1118.43 166.397 1115.55 164.485 1111.49 161.53C1082.67 140.511 1064.17 142.62 1039 166.506C1058.13 179.444 1084.31 201.34 1104.45 221.245C1109.48 226.221 1115.52 228.212 1121.56 228.212C1128.61 228.212 1134.65 225.226 1138.68 221.245L1231.31 126.696Z" fill="white"/>
</g>
</g>
</svg>
