<svg width="558" height="462" viewBox="0 0 558 462" fill="none" xmlns="http://www.w3.org/2000/svg">
<path d="M122.47 425.934L136.507 440.998C136.507 440.998 163.554 455.035 144.382 456.747C125.209 458.459 118.704 450.926 118.704 450.926C118.704 450.926 94.7382 449.215 95.0806 445.791C95.423 442.367 97.1348 431.069 97.1348 431.069L122.47 425.934Z" fill="#333333"/>
<path opacity="0.2" d="M82.5 462C126.959 462 163 459.538 163 456.5C163 453.462 126.959 451 82.5 451C38.0411 451 2 453.462 2 456.5C2 459.538 38.0411 462 82.5 462Z" fill="#1C60B0"/>
<path d="M46.2929 429.566V440.179C46.2929 440.179 45.9506 444.63 46.2929 445.657C46.6353 446.684 51.7708 459.352 34.6524 456.613C17.534 453.874 24.3813 443.261 24.3813 443.261L28.4898 427.854L46.2929 429.566Z" fill="#333333"/>
<path d="M89.3659 196.365L107.049 210.303L144.519 197.134C144.519 197.134 157.259 182.804 164.463 193.477C166.93 197.133 150.77 203.886 149.245 204.513C145.434 206.082 108.922 226.113 105.344 223.485C101.766 220.857 81.6352 207.565 81.6352 207.565L89.3659 196.365Z" fill="#F3CAA5"/>
<path d="M29.0038 172.588C45.7632 166.326 61.706 163.363 74.6318 172.588V142.814C74.6318 139.818 74.0417 136.851 72.8952 134.083C71.7487 131.316 70.0683 128.801 67.9498 126.682C65.8313 124.564 63.3163 122.883 60.5484 121.737C57.7805 120.59 54.8138 120 51.8179 120H51.8178C48.8219 120 45.8552 120.59 43.0873 121.737C40.3194 122.883 37.8044 124.564 35.6859 126.682C33.5674 128.801 31.887 131.316 30.7405 134.083C29.594 136.851 29.0039 139.818 29.0039 142.814L29.0038 172.588Z" fill="#F0DFC6"/>
<path d="M71.1146 237.631L72.4841 247.217C72.4841 247.217 75.9078 257.488 72.4841 276.661L127.605 426.96L86.8636 438.601L66.6638 356.433L38.2472 293.779L40.9862 364.992L55.3657 440.998L12.9119 439.286L0.540901 308.959C-1.45949 288.362 2.11324 267.605 10.8852 248.863C14.317 241.574 18.007 235.83 21.3552 234.996C31.3999 232.495 71.1146 237.631 71.1146 237.631Z" fill="#5A5C6C"/>
<path d="M52.0274 163.679C42.5259 163.679 34.8234 155.977 34.8234 146.475C34.8234 136.974 42.5259 129.271 52.0274 129.271C61.5289 129.271 69.2314 136.974 69.2314 146.475C69.2314 155.977 61.5289 163.679 52.0274 163.679Z" fill="#F3CAA5"/>
<path d="M40.1303 155.976C40.1303 155.976 42.5269 178.572 40.1303 182.68C37.7337 186.789 64.4385 178.572 64.4385 178.572C64.4385 178.572 58.6182 163.165 60.6724 157.003C62.7267 150.84 40.1303 155.976 40.1303 155.976Z" fill="#F3CAA5"/>
<path d="M26.436 221.026L20.9581 236.09L71.9711 241.91C71.9711 241.91 77.449 240.883 77.449 236.432C77.449 231.981 83.2693 216.232 83.2693 216.232C83.2693 216.232 97.5239 204.679 104.371 201.598C106.853 200.481 103.14 200.942 101.052 196.204C100.425 194.78 99.6756 193.277 98.8573 191.753C98.1897 190.503 97.4707 189.237 96.7347 187.987C95.8411 186.464 94.9201 184.964 94.0265 183.536C91.3218 179.219 88.8533 175.59 88.0624 174.121C85.6659 169.67 63.1346 169.273 63.1346 169.273C56.6912 173.327 38.0766 174.121 38.0766 174.121C38.0766 174.121 25.272 179.479 19.9379 183.536C19.551 183.827 26.436 221.026 26.436 221.026Z" fill="#CFCCE0"/>
<path d="M37.5105 125.822V125.413L37.9961 125.44C40.7543 123.34 43.9547 121.895 47.3545 121.216C50.7543 120.536 54.2641 120.64 57.6177 121.519C54.403 122.369 51.4137 123.913 48.8608 126.044L65.3513 126.96L72.3115 142.427H67.6011L63.8046 135.467V142.427H47.8735L46.7908 137.014L43.7832 142.427H40.6532C40.6338 142.813 40.6039 143.196 40.6039 143.587L43.6973 173.361L29.0036 167.175V143.587C29.0009 140.178 29.7639 136.812 31.2363 133.737C32.7087 130.662 34.8529 127.957 37.5105 125.822Z" fill="#F0DFC6"/>
<path d="M14.4529 204.592L15.48 231.639L18.219 284.021C18.219 284.021 14.4529 306.618 24.0393 306.275C33.6256 305.933 26.4359 279.571 26.4359 279.571L29.1748 238.144L26.4359 209.043L14.4529 204.592Z" fill="#F3CAA5"/>
<path d="M11.7138 219.314C11.7138 222.395 29.0034 221.539 29.0034 221.539L38.0762 174.121C38.0762 174.121 25.2716 179.479 19.9375 183.536C18.682 184.838 17.6553 186.343 16.9006 187.987C16.4932 189.086 16.1064 190.359 15.74 191.753C15.3771 193.136 15.0382 194.639 14.7198 196.204C13.2255 203.835 12.2215 211.554 11.7138 219.314Z" fill="#CFCCE0"/>
<g filter="url(#filter0_d_2037:2394)">
<rect x="211" y="62" width="300" height="291.979" rx="5" fill="white"/>
</g>
<path d="M509.339 57H212.662C212.221 57.0008 211.799 57.1726 211.488 57.4777C211.176 57.7828 211.001 58.1964 211 58.6279V68.2063C210.999 68.6051 211.151 68.9898 211.426 69.2837C211.58 69.4563 211.77 69.5947 211.983 69.6896C212.196 69.7846 212.427 69.8339 212.662 69.8342H509.339C509.573 69.8339 509.804 69.7846 510.017 69.6896C510.23 69.5947 510.421 69.4563 510.575 69.2837C510.85 68.9898 511.002 68.6051 511 68.2063V58.6279C510.999 58.1964 510.824 57.7829 510.513 57.4778C510.201 57.1727 509.779 57.0009 509.339 57Z" fill="#C8C8CE"/>
<path d="M221.074 65.4267C222.376 65.4267 223.432 64.371 223.432 63.0687C223.432 61.7664 222.376 60.7107 221.074 60.7107C219.772 60.7107 218.716 61.7664 218.716 63.0687C218.716 64.371 219.772 65.4267 221.074 65.4267Z" fill="white"/>
<path d="M230.024 65.4267C231.326 65.4267 232.382 64.371 232.382 63.0687C232.382 61.7664 231.326 60.7107 230.024 60.7107C228.722 60.7107 227.666 61.7664 227.666 63.0687C227.666 64.371 228.722 65.4267 230.024 65.4267Z" fill="white"/>
<path d="M238.975 65.4267C240.277 65.4267 241.333 64.371 241.333 63.0687C241.333 61.7664 240.277 60.7107 238.975 60.7107C237.673 60.7107 236.617 61.7664 236.617 63.0687C236.617 64.371 237.673 65.4267 238.975 65.4267Z" fill="white"/>
<path d="M500.836 59.9199H490.529C490.327 59.9199 490.133 60.0002 489.99 60.1431C489.847 60.286 489.767 60.4798 489.767 60.682C489.767 60.8841 489.847 61.0779 489.99 61.2208C490.133 61.3637 490.327 61.444 490.529 61.444H500.836C501.038 61.444 501.232 61.3637 501.375 61.2208C501.518 61.0779 501.598 60.8841 501.598 60.682C501.598 60.4798 501.518 60.286 501.375 60.1431C501.232 60.0002 501.038 59.9199 500.836 59.9199Z" fill="white"/>
<path d="M500.836 62.7834H490.529C490.327 62.7834 490.133 62.8637 489.99 63.0066C489.847 63.1495 489.767 63.3434 489.767 63.5455C489.767 63.7476 489.847 63.9414 489.99 64.0843C490.133 64.2272 490.327 64.3075 490.529 64.3075H500.836C501.038 64.3075 501.232 64.2272 501.375 64.0843C501.518 63.9414 501.598 63.7476 501.598 63.5455C501.598 63.3434 501.518 63.1495 501.375 63.0066C501.232 62.8637 501.038 62.7834 500.836 62.7834Z" fill="white"/>
<path d="M500.836 65.647H490.529C490.327 65.647 490.133 65.7273 489.99 65.8702C489.847 66.0131 489.767 66.2069 489.767 66.409C489.767 66.6111 489.847 66.8049 489.99 66.9478C490.133 67.0908 490.327 67.171 490.529 67.171H500.836C501.038 67.171 501.232 67.0908 501.375 66.9478C501.518 66.8049 501.598 66.6111 501.598 66.409C501.598 66.2069 501.518 66.0131 501.375 65.8702C501.232 65.7273 501.038 65.647 500.836 65.647Z" fill="white"/>
<circle cx="352.5" cy="207.5" r="88.5" fill="#F6F9FE"/>
<path opacity="0.5" d="M441 207.5C441 256.377 401.377 296 352.5 296C303.623 296 264 256.377 264 207.5C264 158.623 303.623 119 352.5 119C401.377 119 441 158.623 441 207.5ZM292.609 207.5C292.609 240.577 319.423 267.391 352.5 267.391C385.577 267.391 412.391 240.577 412.391 207.5C412.391 174.423 385.577 147.609 352.5 147.609C319.423 147.609 292.609 174.423 292.609 207.5Z" fill="#C8C8CE"/>
<path opacity="0.5" d="M430.054 164.867C421.845 149.934 409.501 137.689 394.502 129.602C379.504 121.515 362.489 117.93 345.503 119.277C328.516 120.624 312.28 126.847 298.744 137.197C285.208 147.547 274.947 161.585 269.195 177.625C263.443 193.664 262.443 211.023 266.317 227.617C270.19 244.211 278.772 259.334 291.03 271.169C303.289 283.004 318.704 291.049 335.424 294.337C352.143 297.625 369.457 296.016 385.284 289.704L374.686 263.13C363.975 267.402 352.259 268.491 340.944 266.266C329.629 264.041 319.197 258.596 310.901 250.587C302.605 242.578 296.798 232.344 294.177 221.114C291.556 209.884 292.232 198.137 296.125 187.282C300.017 176.428 306.961 166.928 316.121 159.923C325.282 152.919 336.269 148.708 347.765 147.796C359.26 146.885 370.774 149.311 380.924 154.784C391.074 160.257 399.428 168.543 404.984 178.648L430.054 164.867Z" fill="#91929D"/>
<path opacity="0.5" d="M430.054 164.867C423.781 153.454 415.066 143.567 404.531 135.911C393.997 128.255 381.903 123.017 369.111 120.573L363.742 148.673C372.398 150.328 380.583 153.872 387.711 159.053C394.84 164.235 400.738 170.925 404.984 178.648L430.054 164.867Z" fill="#5A5C6C"/>
<path d="M371.54 194.821C369.628 193.226 366.602 190.513 363.735 188.12C362.62 187.003 361.505 186.524 360.39 186.524C358.16 186.524 355.771 188.439 354.019 190.034C357.204 192.747 363.416 198.172 366.443 200.725C368.513 202.481 368.673 203.757 368.673 205.193V218.916C368.673 222.267 365.965 224.82 362.779 224.82H341.117C337.772 224.82 335.224 222.107 335.224 218.916V208.544C334.109 209.502 332.675 209.98 331.082 209.98C329.808 209.98 328.534 209.661 327.578 209.023V218.916C327.578 226.575 333.79 232.639 341.276 232.639H362.938C370.584 232.639 376.637 226.416 376.637 218.916V205.193C376.477 202.481 375.999 198.651 371.54 194.821Z" fill="#4A90E2"/>
<path d="M348.379 189.565C348.538 189.405 348.857 189.087 349.016 188.769C350.767 186.858 353.793 183.673 357.455 182.4C357.136 182.081 356.818 181.763 356.499 181.444L356.34 181.285C354.907 180.33 353.315 179.375 350.927 179.375C347.742 179.375 345.991 180.967 344.08 182.877L331.024 196.411C330.529 195.916 330.072 195.61 329.432 195.137C324.874 191.775 321.948 192.112 317.968 195.934C320.993 198.003 325.133 201.506 328.317 204.691C329.113 205.487 330.069 205.805 331.024 205.805C332.138 205.805 333.094 205.328 333.731 204.691L348.379 189.565Z" fill="#FAB229"/>
<rect x="133" width="115" height="120.367" rx="10" fill="white"/>
<rect x="133.5" y="0.5" width="114" height="119.367" rx="9.5" stroke="black" stroke-opacity="0.1"/>
<path opacity="0.5" d="M156.767 44.6333C156.767 42.4242 158.557 40.6333 160.767 40.6333H168.867C171.076 40.6333 172.867 42.4242 172.867 44.6333V105.033H156.767V44.6333Z" fill="#91929D"/>
<path opacity="0.5" d="M182.066 62.2666C182.066 60.0575 183.857 58.2666 186.066 58.2666H194.933C197.142 58.2666 198.933 60.0575 198.933 62.2666V105.033H182.066V62.2666Z" fill="#5A5C6C"/>
<path opacity="0.5" d="M208.134 18.5667C208.134 16.3575 209.925 14.5667 212.134 14.5667H220.234C222.443 14.5667 224.234 16.3575 224.234 18.5667V105.033H208.134V18.5667Z" fill="#5A5C6C"/>
<line x1="142.2" y1="104.533" x2="238.034" y2="104.533" stroke="#4A90E2"/>
<mask id="path-33-inside-1_2037:2394" fill="white">
<path d="M548 381C553.523 381 558.073 376.5 557.287 371.034C556.458 365.269 554.91 359.617 552.672 354.212C549.154 345.719 543.998 338.003 537.497 331.503C530.997 325.002 523.281 319.846 514.788 316.328C506.295 312.811 497.193 311 488 311C478.807 311 469.705 312.811 461.212 316.328C452.719 319.846 445.003 325.002 438.503 331.503C432.002 338.003 426.846 345.719 423.328 354.212C421.09 359.617 419.542 365.269 418.713 371.034C417.927 376.5 422.477 381 428 381L488 381H548Z"/>
</mask>
<path d="M548 381C553.523 381 558.073 376.5 557.287 371.034C556.458 365.269 554.91 359.617 552.672 354.212C549.154 345.719 543.998 338.003 537.497 331.503C530.997 325.002 523.281 319.846 514.788 316.328C506.295 312.811 497.193 311 488 311C478.807 311 469.705 312.811 461.212 316.328C452.719 319.846 445.003 325.002 438.503 331.503C432.002 338.003 426.846 345.719 423.328 354.212C421.09 359.617 419.542 365.269 418.713 371.034C417.927 376.5 422.477 381 428 381L488 381H548Z" fill="white" stroke="black" stroke-opacity="0.1" stroke-width="2" mask="url(#path-33-inside-1_2037:2394)"/>
<path opacity="0.05" d="M535.341 371.694C535.341 359.031 530.311 346.886 521.357 337.932C512.403 328.978 500.258 323.948 487.595 323.948C474.932 323.948 462.788 328.978 453.834 337.932C444.88 346.886 439.85 359.031 439.85 371.694L465.207 371.694C465.207 365.756 467.566 360.061 471.764 355.863C475.963 351.664 481.658 349.305 487.595 349.305C493.533 349.305 499.228 351.664 503.426 355.863C507.625 360.061 509.984 365.756 509.984 371.694H535.341Z" fill="#4A90E2"/>
<rect x="486.108" y="351.36" width="2.52252" height="20.1802" rx="1.26126" fill="#F7981C"/>
<circle cx="487.595" cy="371.694" r="6.4273" fill="#91929D"/>
<path d="M446.604 371.693C446.604 360.822 450.923 350.396 458.611 342.708C466.298 335.021 476.724 330.702 487.596 330.702C498.467 330.702 508.893 335.021 516.581 342.708C524.268 350.396 528.587 360.822 528.587 371.693" stroke="#4A90E2" stroke-width="8" stroke-dasharray="34.04 340.38"/>
<defs>
<filter id="filter0_d_2037:2394" x="196" y="52" width="330" height="321.979" filterUnits="userSpaceOnUse" color-interpolation-filters="sRGB">
<feFlood flood-opacity="0" result="BackgroundImageFix"/>
<feColorMatrix in="SourceAlpha" type="matrix" values="0 0 0 0 0 0 0 0 0 0 0 0 0 0 0 0 0 0 127 0" result="hardAlpha"/>
<feOffset dy="5"/>
<feGaussianBlur stdDeviation="7.5"/>
<feComposite in2="hardAlpha" operator="out"/>
<feColorMatrix type="matrix" values="0 0 0 0 0.290196 0 0 0 0 0.564706 0 0 0 0 0.886275 0 0 0 0.1 0"/>
<feBlend mode="normal" in2="BackgroundImageFix" result="effect1_dropShadow_2037:2394"/>
<feBlend mode="normal" in="SourceGraphic" in2="effect1_dropShadow_2037:2394" result="shape"/>
</filter>
</defs>
</svg>
