<svg width="1345" height="933" viewBox="0 0 1345 933" fill="none" xmlns="http://www.w3.org/2000/svg">
<mask id="mask0_2031:2339" style="mask-type:alpha" maskUnits="userSpaceOnUse" x="0" y="0" width="1345" height="933">
<rect width="1345" height="933" transform="matrix(-1 0 0 1 1345 0)" fill="#4A90E2"/>
</mask>
<g mask="url(#mask0_2031:2339)">
<path opacity="0.5" d="M555.985 -43.3956C599.264 -244.283 496.112 -242.099 531.658 -314.702L846.965 -325.271L1547.26 -179.283L1534.72 281.593L1410.29 857.497C1314.62 841.509 1015.76 778.717 849.453 696.619C788.003 666.285 690.264 606.717 696.264 491.217C701.811 384.434 738.597 381.998 772.264 317.217C805.931 252.436 799.764 196 729.764 137.717C653.688 74.3742 535.478 51.787 555.985 -43.3956Z" fill="#4A90E2"/>
</g>
</svg>
