<svg width="536" height="490" viewBox="0 0 536 490" fill="none" xmlns="http://www.w3.org/2000/svg">
<rect width="446.537" height="466.874" rx="40" fill="white" fill-opacity="0.2"/>
<rect x="0.5" y="0.5" width="445.537" height="465.874" rx="39.5" stroke="black" stroke-opacity="0.1"/>
<g filter="url(#filter0_d_2019:2657)">
<rect x="76" y="72" width="294" height="320" rx="5" fill="white"/>
<rect x="76.5" y="72.5" width="293" height="319" rx="4.5" stroke="#4A90E2" stroke-opacity="0.1"/>
</g>
<path d="M139.463 188.316C143.174 188.316 146.183 185.307 146.183 181.596C146.183 177.885 143.174 174.876 139.463 174.876C135.752 174.876 132.743 177.885 132.743 181.596C132.743 185.307 135.752 188.316 139.463 188.316Z" fill="#FF948D"/>
<path d="M167.463 188.316C171.174 188.316 174.182 185.307 174.182 181.596C174.182 177.885 171.174 174.876 167.463 174.876C163.751 174.876 160.743 177.885 160.743 181.596C160.743 185.307 163.751 188.316 167.463 188.316Z" fill="#FF948D"/>
<path d="M195.462 188.316C199.173 188.316 202.182 185.307 202.182 181.596C202.182 177.885 199.173 174.876 195.462 174.876C191.751 174.876 188.742 177.885 188.742 181.596C188.742 185.307 191.751 188.316 195.462 188.316Z" fill="#4A90E2"/>
<path d="M223.462 188.316C227.173 188.316 230.181 185.307 230.181 181.596C230.181 177.885 227.173 174.876 223.462 174.876C219.75 174.876 216.742 177.885 216.742 181.596C216.742 185.307 219.75 188.316 223.462 188.316Z" fill="#4A90E2"/>
<path d="M251.461 188.316C255.172 188.316 258.181 185.307 258.181 181.596C258.181 177.885 255.172 174.876 251.461 174.876C247.75 174.876 244.741 177.885 244.741 181.596C244.741 185.307 247.75 188.316 251.461 188.316Z" fill="#4A90E2"/>
<path d="M279.461 188.316C283.172 188.316 286.18 185.307 286.18 181.596C286.18 177.885 283.172 174.876 279.461 174.876C275.749 174.876 272.741 177.885 272.741 181.596C272.741 185.307 275.749 188.316 279.461 188.316Z" fill="#4A90E2"/>
<path d="M307.46 188.316C311.171 188.316 314.18 185.307 314.18 181.596C314.18 177.885 311.171 174.876 307.46 174.876C303.749 174.876 300.74 177.885 300.74 181.596C300.74 185.307 303.749 188.316 307.46 188.316Z" fill="#4A90E2"/>
<path d="M139.463 209.595C143.174 209.595 146.183 206.587 146.183 202.875C146.183 199.164 143.174 196.156 139.463 196.156C135.752 196.156 132.743 199.164 132.743 202.875C132.743 206.587 135.752 209.595 139.463 209.595Z" fill="#4A90E2"/>
<path d="M167.463 209.595C171.174 209.595 174.182 206.587 174.182 202.875C174.182 199.164 171.174 196.156 167.463 196.156C163.751 196.156 160.743 199.164 160.743 202.875C160.743 206.587 163.751 209.595 167.463 209.595Z" fill="#4A90E2"/>
<path d="M195.462 209.595C199.173 209.595 202.182 206.587 202.182 202.875C202.182 199.164 199.173 196.156 195.462 196.156C191.751 196.156 188.742 199.164 188.742 202.875C188.742 206.587 191.751 209.595 195.462 209.595Z" fill="#4A90E2"/>
<path d="M223.462 209.595C227.173 209.595 230.181 206.587 230.181 202.875C230.181 199.164 227.173 196.156 223.462 196.156C219.75 196.156 216.742 199.164 216.742 202.875C216.742 206.587 219.75 209.595 223.462 209.595Z" fill="#4A90E2"/>
<path d="M251.461 209.595C255.172 209.595 258.181 206.587 258.181 202.875C258.181 199.164 255.172 196.156 251.461 196.156C247.75 196.156 244.741 199.164 244.741 202.875C244.741 206.587 247.75 209.595 251.461 209.595Z" fill="#4A90E2"/>
<path d="M279.461 209.595C283.172 209.595 286.18 206.587 286.18 202.875C286.18 199.164 283.172 196.156 279.461 196.156C275.749 196.156 272.741 199.164 272.741 202.875C272.741 206.587 275.749 209.595 279.461 209.595Z" fill="#27AE60"/>
<path d="M307.46 209.595C311.171 209.595 314.18 206.587 314.18 202.875C314.18 199.164 311.171 196.156 307.46 196.156C303.749 196.156 300.74 199.164 300.74 202.875C300.74 206.587 303.749 209.595 307.46 209.595Z" fill="#27AE60"/>
<path d="M139.463 230.875C143.174 230.875 146.183 227.866 146.183 224.155C146.183 220.444 143.174 217.435 139.463 217.435C135.752 217.435 132.743 220.444 132.743 224.155C132.743 227.866 135.752 230.875 139.463 230.875Z" fill="#E2E2E6"/>
<path d="M167.463 230.875C171.174 230.875 174.182 227.866 174.182 224.155C174.182 220.444 171.174 217.435 167.463 217.435C163.751 217.435 160.743 220.444 160.743 224.155C160.743 227.866 163.751 230.875 167.463 230.875Z" fill="#E6E6E6"/>
<path d="M195.462 230.875C199.173 230.875 202.182 227.866 202.182 224.155C202.182 220.444 199.173 217.435 195.462 217.435C191.751 217.435 188.742 220.444 188.742 224.155C188.742 227.866 191.751 230.875 195.462 230.875Z" fill="#E6E6E6"/>
<path d="M223.462 230.875C227.173 230.875 230.181 227.866 230.181 224.155C230.181 220.444 227.173 217.435 223.462 217.435C219.75 217.435 216.742 220.444 216.742 224.155C216.742 227.866 219.75 230.875 223.462 230.875Z" fill="#E2E2E6"/>
<path d="M251.461 230.875C255.172 230.875 258.181 227.866 258.181 224.155C258.181 220.444 255.172 217.435 251.461 217.435C247.75 217.435 244.741 220.444 244.741 224.155C244.741 227.866 247.75 230.875 251.461 230.875Z" fill="#E2E2E6"/>
<path d="M279.461 230.875C283.172 230.875 286.18 227.866 286.18 224.155C286.18 220.444 283.172 217.435 279.461 217.435C275.749 217.435 272.741 220.444 272.741 224.155C272.741 227.866 275.749 230.875 279.461 230.875Z" fill="#E2E2E6"/>
<path d="M307.46 230.875C311.171 230.875 314.18 227.866 314.18 224.155C314.18 220.444 311.171 217.435 307.46 217.435C303.749 217.435 300.74 220.444 300.74 224.155C300.74 227.866 303.749 230.875 307.46 230.875Z" fill="#E2E2E6"/>
<path d="M139.463 252.155C143.174 252.155 146.183 249.146 146.183 245.435C146.183 241.723 143.174 238.715 139.463 238.715C135.752 238.715 132.743 241.723 132.743 245.435C132.743 249.146 135.752 252.155 139.463 252.155Z" fill="#E2E2E6"/>
<path d="M167.463 252.155C171.174 252.155 174.182 249.146 174.182 245.435C174.182 241.723 171.174 238.715 167.463 238.715C163.751 238.715 160.743 241.723 160.743 245.435C160.743 249.146 163.751 252.155 167.463 252.155Z" fill="#E2E2E6"/>
<path d="M139.463 273.434C143.174 273.434 146.183 270.426 146.183 266.714C146.183 263.003 143.174 259.994 139.463 259.994C135.752 259.994 132.743 263.003 132.743 266.714C132.743 270.426 135.752 273.434 139.463 273.434Z" fill="#E2E2E6"/>
<path d="M167.463 273.434C171.174 273.434 174.182 270.426 174.182 266.714C174.182 263.003 171.174 259.994 167.463 259.994C163.751 259.994 160.743 263.003 160.743 266.714C160.743 270.426 163.751 273.434 167.463 273.434Z" fill="#E2E2E6"/>
<path d="M195.462 273.434C199.173 273.434 202.182 270.426 202.182 266.714C202.182 263.003 199.173 259.994 195.462 259.994C191.751 259.994 188.742 263.003 188.742 266.714C188.742 270.426 191.751 273.434 195.462 273.434Z" fill="#E2E2E6"/>
<path d="M195.462 252.155C199.173 252.155 202.182 249.146 202.182 245.435C202.182 241.723 199.173 238.715 195.462 238.715C191.751 238.715 188.742 241.723 188.742 245.435C188.742 249.146 191.751 252.155 195.462 252.155Z" fill="#E2E2E6"/>
<path d="M223.462 252.155C227.173 252.155 230.181 249.146 230.181 245.435C230.181 241.723 227.173 238.715 223.462 238.715C219.75 238.715 216.742 241.723 216.742 245.435C216.742 249.146 219.75 252.155 223.462 252.155Z" fill="#E2E2E6"/>
<path d="M251.461 252.155C255.172 252.155 258.181 249.146 258.181 245.435C258.181 241.723 255.172 238.715 251.461 238.715C247.75 238.715 244.741 241.723 244.741 245.435C244.741 249.146 247.75 252.155 251.461 252.155Z" fill="#E2E2E6"/>
<path d="M279.461 252.155C283.172 252.155 286.18 249.146 286.18 245.435C286.18 241.723 283.172 238.715 279.461 238.715C275.749 238.715 272.741 241.723 272.741 245.435C272.741 249.146 275.749 252.155 279.461 252.155Z" fill="#E2E2E6"/>
<path d="M307.46 252.155C311.171 252.155 314.18 249.146 314.18 245.435C314.18 241.723 311.171 238.715 307.46 238.715C303.749 238.715 300.74 241.723 300.74 245.435C300.74 249.146 303.749 252.155 307.46 252.155Z" fill="#E2E2E6"/>
<path opacity="0.52" d="M234.641 142.12V123.76H211.359V142.12H234.641ZM234.641 115.401C235.526 115.401 236.307 115.74 236.984 116.417C237.661 117.094 238 117.875 238 118.76V142.12C238 143.005 237.661 143.786 236.984 144.464C236.307 145.089 235.526 145.401 234.641 145.401H211.359C210.422 145.401 209.615 145.089 208.938 144.464C208.312 143.839 208 143.057 208 142.12V118.76C208 117.875 208.312 117.094 208.938 116.417C209.615 115.74 210.422 115.401 211.359 115.401H213V112.12H216.359V115.401H229.641V112.12H233V115.401H234.641ZM231.359 127.12V130.401H228V127.12H231.359ZM224.641 127.12V130.401H221.359V127.12H224.641ZM218 127.12V130.401H214.641V127.12H218Z" fill="#C8C8CE"/>
<path d="M296.826 121.234C296.751 121.308 296.693 121.396 296.652 121.493C296.612 121.59 296.592 121.694 296.592 121.799C296.592 121.904 296.612 122.008 296.652 122.104C296.693 122.201 296.751 122.289 296.826 122.364L300.255 125.793H291.799C291.587 125.793 291.384 125.877 291.234 126.027C291.084 126.177 291 126.38 291 126.592C291 126.803 291.084 127.007 291.234 127.156C291.384 127.306 291.587 127.39 291.799 127.39H300.255L296.826 130.82C296.751 130.894 296.693 130.982 296.652 131.079C296.612 131.176 296.592 131.279 296.592 131.384C296.592 131.489 296.612 131.593 296.652 131.69C296.693 131.787 296.751 131.875 296.826 131.949C296.9 132.023 296.988 132.082 297.085 132.122C297.182 132.163 297.285 132.183 297.39 132.183C297.495 132.183 297.599 132.163 297.696 132.122C297.793 132.082 297.881 132.023 297.955 131.949L302.748 127.156C302.898 127.007 302.982 126.803 302.982 126.592C302.982 126.38 302.898 126.177 302.748 126.027L297.955 121.234C297.881 121.16 297.793 121.101 297.696 121.061C297.599 121.021 297.495 121 297.39 121C297.286 121 297.182 121.021 297.085 121.061C296.988 121.101 296.9 121.16 296.826 121.234Z" fill="#C8C8CE"/>
<path d="M149.156 121.234C149.231 121.308 149.289 121.396 149.33 121.493C149.37 121.59 149.39 121.694 149.39 121.799C149.39 121.904 149.37 122.008 149.33 122.105C149.289 122.201 149.231 122.289 149.156 122.364L145.727 125.793H154.183C154.395 125.793 154.598 125.877 154.748 126.027C154.898 126.177 154.982 126.38 154.982 126.592C154.982 126.803 154.898 127.007 154.748 127.156C154.598 127.306 154.395 127.39 154.183 127.39H145.727L149.156 130.82C149.306 130.969 149.39 131.173 149.39 131.384C149.39 131.596 149.306 131.799 149.156 131.949C149.007 132.099 148.803 132.183 148.592 132.183C148.38 132.183 148.177 132.099 148.027 131.949L143.234 127.156C143.084 127.007 143 126.803 143 126.592C143 126.38 143.084 126.177 143.234 126.027L148.027 121.234C148.101 121.16 148.189 121.101 148.286 121.061C148.383 121.021 148.487 121 148.592 121C148.696 121 148.8 121.021 148.897 121.061C148.994 121.101 149.082 121.16 149.156 121.234Z" fill="#C8C8CE"/>
<path opacity="0.2" d="M166.903 316.324C164.99 316.322 163.096 316.698 161.328 317.429C159.56 318.16 157.954 319.232 156.601 320.585C155.248 321.937 154.175 323.542 153.442 325.309C152.71 327.076 152.333 328.97 152.333 330.883C152.333 332.796 152.71 334.69 153.442 336.457C154.175 338.225 155.248 339.83 156.601 341.182C157.954 342.534 159.56 343.607 161.328 344.338C163.096 345.069 164.99 345.444 166.903 345.443H280.021C281.934 345.444 283.828 345.069 285.596 344.338C287.363 343.607 288.969 342.534 290.323 341.182C291.676 339.83 292.749 338.225 293.481 336.457C294.214 334.69 294.59 332.796 294.59 330.883C294.59 328.97 294.214 327.076 293.481 325.309C292.749 323.542 291.676 321.937 290.323 320.585C288.969 319.232 287.363 318.16 285.596 317.429C283.828 316.698 281.934 316.322 280.021 316.324H166.903Z" fill="#4A90E2"/>
<path d="M79.9888 99.8499C75.3611 99.8499 70.8374 98.4776 66.9896 95.9066C63.1418 93.3356 60.1428 89.6813 58.3719 85.4059C56.601 81.1305 56.1376 76.4259 57.0404 71.8871C57.9432 67.3484 60.1717 63.1792 63.4439 59.907C66.7162 56.6347 70.8853 54.4063 75.4241 53.5034C79.9629 52.6006 84.6674 53.064 88.9429 54.8349C93.2183 56.6059 96.8725 59.6048 99.4436 63.4526C102.015 67.3004 103.387 71.8242 103.387 76.4519C103.38 82.6552 100.912 88.6026 96.526 92.989C92.1395 97.3755 86.1922 99.8429 79.9888 99.8499Z" fill="#4A90E2"/>
<path d="M88.42 71.432C87.5683 70.721 86.2198 69.5122 84.9423 68.4457C84.4455 67.948 83.9486 67.7347 83.4518 67.7347C82.4582 67.7347 81.3936 68.5879 80.6128 69.2989C82.0323 70.5077 84.8003 72.9251 86.1489 74.0628C87.0715 74.8449 87.1425 75.4137 87.1425 76.0536V82.1684C87.1425 83.6616 85.9359 84.7992 84.5164 84.7992H74.8639C73.3734 84.7992 72.2378 83.5905 72.2378 82.1684V77.5468C71.741 77.9734 71.1022 78.1867 70.3925 78.1867C69.8247 78.1867 69.2569 78.0445 68.8311 77.7601V82.1684C68.8311 85.5814 71.5991 88.2832 74.9349 88.2832H84.5874C87.9942 88.2832 90.6912 85.5103 90.6912 82.1684V76.0536C90.6203 74.8449 90.4073 73.1385 88.42 71.432Z" fill="white"/>
<path d="M78.0999 69.0895C78.1709 69.0186 78.3128 68.8767 78.3837 68.7348C79.1641 67.8834 80.5121 66.4645 82.1439 65.8969C82.0021 65.755 81.8602 65.6131 81.7183 65.4712L81.6473 65.4002C81.0088 64.9745 80.2993 64.5489 79.2351 64.5489C77.8161 64.5489 77.0357 65.2583 76.1843 66.1097L70.3666 72.1403C70.146 71.9197 69.9426 71.7834 69.6571 71.5727C67.6261 70.0744 66.3225 70.2247 64.5488 71.9275C65.8968 72.8498 67.7415 74.4106 69.1605 75.8296C69.5152 76.1843 69.9409 76.3262 70.3666 76.3262C70.8632 76.3262 71.2889 76.1134 71.5727 75.8296L78.0999 69.0895Z" fill="#FAB229"/>
<path opacity="0.2" d="M465.226 489.623C504.313 489.623 536 487.206 536 484.225C536 481.244 504.313 478.827 465.226 478.827C426.139 478.827 394.453 481.244 394.453 484.225C394.453 487.206 426.139 489.623 465.226 489.623Z" fill="#1C60B0"/>
<path d="M492.65 329.684L485.806 348.776C485.287 350.223 485.284 351.805 485.798 353.253C486.312 354.702 487.311 355.928 488.625 356.725C489.582 357.305 490.669 357.635 491.787 357.684C492.905 357.733 494.017 357.5 495.021 357.006C496.025 356.512 496.888 355.774 497.532 354.858C498.175 353.943 498.578 352.881 498.703 351.769L500.875 332.426L517.325 278.05L503.159 271.196L492.65 329.684Z" fill="#E1BAC3"/>
<path d="M486.938 473.85H496.99V376.064L474.143 375.607L486.938 473.85Z" fill="#BC8676"/>
<path d="M442.157 473.85H452.21V376.064L429.363 375.607L442.157 473.85Z" fill="#BC8676"/>
<path d="M498.59 386.346L472.544 383.604L467.06 354.816L457.008 384.061L425.936 380.862L438.73 332.426C462.117 316.534 484.33 316.882 505.444 332.426L498.59 386.346Z" fill="#5A5C6C"/>
<path d="M454.43 478.015C454.585 479.255 454.453 480.515 454.044 481.697C453.635 482.878 452.961 483.95 452.072 484.83C451.183 485.709 450.104 486.373 448.918 486.769C447.733 487.166 446.472 487.285 445.232 487.117L426.713 484.605C425.057 484.347 423.571 483.442 422.581 482.089C421.591 480.736 421.179 479.046 421.433 477.389C421.663 475.895 422.421 474.532 423.568 473.548C424.715 472.564 426.177 472.022 427.689 472.022H430.743L440.789 462.869C440.888 469.104 445.479 467.719 453.067 467.111L454.43 478.015Z" fill="#505160"/>
<path d="M499.211 478.015C499.366 479.255 499.234 480.515 498.825 481.697C498.416 482.878 497.741 483.95 496.853 484.83C495.964 485.709 494.885 486.373 493.699 486.769C492.513 487.166 491.252 487.285 490.013 487.117L471.494 484.605C469.838 484.347 468.352 483.442 467.362 482.089C466.372 480.736 465.959 479.046 466.214 477.389C466.444 475.895 467.201 474.532 468.349 473.548C469.496 472.564 470.958 472.022 472.47 472.022H475.523L485.569 462.869C485.668 469.104 490.26 467.719 497.848 467.111L499.211 478.015Z" fill="#505160"/>
<path d="M463.519 220.018C472.415 220.018 479.627 212.806 479.627 203.911C479.627 195.015 472.415 187.803 463.519 187.803C454.624 187.803 447.412 195.015 447.412 203.911C447.412 212.806 454.624 220.018 463.519 220.018Z" fill="#BC8676"/>
<path d="M483.968 230.984L463.862 232.813V214.991L474.372 208.594L483.968 230.984Z" fill="#BC8676"/>
<path d="M507.729 339.28C487.502 324.469 463.215 325.974 436.445 337.453C448.574 303.118 453.74 271.119 444.213 244.05C444.213 239.267 445.805 234.62 448.738 230.842C451.672 227.065 455.779 224.371 460.412 223.185L463.862 222.303L480.769 223.217L496.645 232.523C499.883 234.421 502.57 237.13 504.443 240.382C506.317 243.634 507.311 247.318 507.328 251.07L507.729 339.28Z" fill="white"/>
<path d="M520.98 288.56H498.59V233.726C502.462 235.878 505.827 238.837 508.455 242.403C511.083 245.969 512.913 250.058 513.822 254.394L520.98 288.56Z" fill="white"/>
<path d="M451.239 195.19C450.255 195.654 449.17 195.867 448.084 195.808C446.997 195.749 445.942 195.421 445.013 194.853C444.105 194.253 443.419 193.371 443.062 192.343C442.704 191.315 442.694 190.198 443.034 189.164C443.713 187.418 445.432 186.324 447.099 185.47C450.778 183.586 454.719 182.27 458.791 181.564C460.733 181.228 462.788 181.043 464.623 181.761C465.531 182.116 466.345 182.678 467.247 183.05C468.904 183.734 470.752 183.737 472.506 184.107C474.301 184.5 475.992 185.273 477.462 186.375C478.933 187.477 480.15 188.882 481.031 190.495C481.608 191.592 482.051 192.755 482.35 193.958C483.195 197.25 483.184 200.704 482.318 203.99C480.939 209.197 477.429 213.98 477.745 219.357C475.149 217.845 473.933 214.768 471.766 212.689C470.155 211.153 468.07 210.209 465.853 210.011C465.247 210.035 464.647 209.882 464.127 209.571C463.749 209.202 463.487 208.73 463.376 208.214L460.934 200.566C460.437 199.01 459.837 197.319 458.433 196.484C457.566 196.045 456.61 195.813 455.639 195.805C453.317 195.636 450.985 195.658 448.666 195.871" fill="#C8C8CE"/>
<g filter="url(#filter1_d_2019:2657)">
<path d="M373.145 259.323C387.307 259.323 398.788 248.04 398.788 234.122C398.788 220.204 387.307 208.922 373.145 208.922C358.983 208.922 347.502 220.204 347.502 234.122C347.502 248.04 358.983 259.323 373.145 259.323Z" fill="white"/>
<path d="M398.288 234.122C398.288 247.756 387.039 258.823 373.145 258.823C359.251 258.823 348.002 247.756 348.002 234.122C348.002 220.489 359.251 209.422 373.145 209.422C387.039 209.422 398.288 220.489 398.288 234.122Z" stroke="#4A90E2" stroke-opacity="0.1"/>
</g>
<path d="M371.139 242.417C370.644 242.417 370.161 242.257 369.765 241.96L369.74 241.942L364.564 237.979C364.324 237.795 364.122 237.566 363.971 237.304C363.819 237.043 363.721 236.754 363.681 236.455C363.641 236.155 363.661 235.851 363.739 235.559C363.817 235.267 363.952 234.993 364.135 234.753C364.319 234.513 364.548 234.312 364.81 234.161C365.072 234.01 365.361 233.911 365.66 233.872C365.96 233.832 366.264 233.852 366.556 233.93C366.848 234.009 367.122 234.144 367.361 234.328L370.714 236.899L378.637 226.566C378.821 226.326 379.05 226.125 379.311 225.974C379.573 225.823 379.861 225.725 380.161 225.685C380.46 225.646 380.764 225.666 381.056 225.744C381.348 225.822 381.621 225.956 381.861 226.14L381.812 226.207L381.862 226.141C382.346 226.513 382.662 227.061 382.742 227.665C382.822 228.27 382.658 228.881 382.288 229.365L372.969 241.519C372.753 241.799 372.476 242.026 372.159 242.181C371.841 242.337 371.492 242.418 371.139 242.417Z" fill="#4A90E2"/>
<path d="M387.491 251.859C387.664 252.329 387.799 252.812 387.897 253.304L429.27 270.579L437.921 263.972L449.593 275.768L435.414 288.957C434.268 290.023 432.808 290.687 431.253 290.849C429.698 291.012 428.132 290.665 426.789 289.859L383.03 263.612C381.325 264.508 379.388 264.863 377.477 264.628C375.565 264.394 373.769 263.582 372.328 262.3C370.887 261.019 369.868 259.328 369.408 257.453C368.948 255.579 369.068 253.609 369.753 251.806C370.437 250.003 371.653 248.452 373.239 247.36C374.825 246.267 376.706 245.685 378.632 245.691C380.557 245.697 382.436 246.29 384.019 247.392C385.601 248.493 386.812 250.051 387.491 251.859L387.491 251.859Z" fill="#BC8676"/>
<path d="M456.551 278.507L430.505 268.454L442.334 236.583C443.711 232.872 446.13 229.637 449.3 227.266C452.47 224.895 456.257 223.489 460.207 223.217L456.551 278.507Z" fill="white"/>
<defs>
<filter id="filter0_d_2019:2657" x="61" y="62" width="324" height="350" filterUnits="userSpaceOnUse" color-interpolation-filters="sRGB">
<feFlood flood-opacity="0" result="BackgroundImageFix"/>
<feColorMatrix in="SourceAlpha" type="matrix" values="0 0 0 0 0 0 0 0 0 0 0 0 0 0 0 0 0 0 127 0" result="hardAlpha"/>
<feOffset dy="5"/>
<feGaussianBlur stdDeviation="7.5"/>
<feComposite in2="hardAlpha" operator="out"/>
<feColorMatrix type="matrix" values="0 0 0 0 0.290196 0 0 0 0 0.564706 0 0 0 0 0.886275 0 0 0 0.2 0"/>
<feBlend mode="normal" in2="BackgroundImageFix" result="effect1_dropShadow_2019:2657"/>
<feBlend mode="normal" in="SourceGraphic" in2="effect1_dropShadow_2019:2657" result="shape"/>
</filter>
<filter id="filter1_d_2019:2657" x="332.502" y="198.922" width="81.2852" height="80.4012" filterUnits="userSpaceOnUse" color-interpolation-filters="sRGB">
<feFlood flood-opacity="0" result="BackgroundImageFix"/>
<feColorMatrix in="SourceAlpha" type="matrix" values="0 0 0 0 0 0 0 0 0 0 0 0 0 0 0 0 0 0 127 0" result="hardAlpha"/>
<feOffset dy="5"/>
<feGaussianBlur stdDeviation="7.5"/>
<feComposite in2="hardAlpha" operator="out"/>
<feColorMatrix type="matrix" values="0 0 0 0 0.290196 0 0 0 0 0.564706 0 0 0 0 0.886275 0 0 0 0.2 0"/>
<feBlend mode="normal" in2="BackgroundImageFix" result="effect1_dropShadow_2019:2657"/>
<feBlend mode="normal" in="SourceGraphic" in2="effect1_dropShadow_2019:2657" result="shape"/>
</filter>
</defs>
</svg>